NotoSerifTamil-CondensedSemiBold.ufo
<glyph name="exclam" format="2">
  <advance width="316"/>
  <unicode hex="0021"/>
  <outline>
    <contour>
      <point x="135" y="219" type="line"/>
      <point x="181" y="219" type="line"/>
      <point x="232" y="714" type="line"/>
      <point x="84" y="714" type="line"/>
    </contour>
    <contour>
      <point x="159" y="-7" type="curve" smooth="yes"/>
      <point x="195" y="-7"/>
      <point x="226" y="10"/>
      <point x="226" y="66" type="curve" smooth="yes"/>
      <point x="226" y="121"/>
      <point x="195" y="139"/>
      <point x="159" y="139" type="curve" smooth="yes"/>
      <point x="121" y="139"/>
      <point x="92" y="121"/>
      <point x="92" y="66" type="curve" smooth="yes"/>
      <point x="92" y="10"/>
      <point x="121" y="-7"/>
    </contour>
  </outline>
</glyph>
<glyph name="quotedbl" format="2">
  <advance width="424"/>
  <unicode hex="0022"/>
  <outline>
    <contour>
      <point x="284" y="452" type="line"/>
      <point x="339" y="452" type="line"/>
      <point x="368" y="714" type="line"/>
      <point x="236" y="714" type="line"/>
    </contour>
    <contour>
      <point x="94" y="452" type="line"/>
      <point x="149" y="452" type="line"/>
      <point x="188" y="714" type="line"/>
      <point x="56" y="714" type="line"/>
    </contour>
  </outline>
</glyph>
<glyph name="percent" format="2">
  <advance width="739"/>
  <unicode hex="0025"/>
  <outline>
    <contour>
      <point x="197" y="0" type="line"/>
      <point x="261" y="0" type="line"/>
      <point x="540" y="714" type="line"/>
      <point x="476" y="714" type="line"/>
    </contour>
    <contour>
      <point x="175" y="280" type="curve" smooth="yes"/>
      <point x="275" y="280"/>
      <point x="324" y="369"/>
      <point x="324" y="503" type="curve" smooth="yes"/>
      <point x="324" y="637"/>
      <point x="275" y="724"/>
      <point x="175" y="724" type="curve" smooth="yes"/>
      <point x="70" y="724"/>
      <point x="26" y="637"/>
      <point x="26" y="503" type="curve" smooth="yes"/>
      <point x="26" y="369"/>
      <point x="70" y="280"/>
    </contour>
    <contour>
      <point x="175" y="325" type="curve" smooth="yes"/>
      <point x="133" y="325"/>
      <point x="118" y="389"/>
      <point x="118" y="503" type="curve" smooth="yes"/>
      <point x="118" y="615"/>
      <point x="133" y="678"/>
      <point x="175" y="678" type="curve" smooth="yes"/>
      <point x="218" y="678"/>
      <point x="231" y="615"/>
      <point x="231" y="503" type="curve" smooth="yes"/>
      <point x="231" y="389"/>
      <point x="218" y="325"/>
    </contour>
    <contour>
      <point x="564" y="-10" type="curve" smooth="yes"/>
      <point x="665" y="-10"/>
      <point x="713" y="79"/>
      <point x="713" y="213" type="curve" smooth="yes"/>
      <point x="713" y="347"/>
      <point x="665" y="434"/>
      <point x="565" y="434" type="curve" smooth="yes"/>
      <point x="460" y="434"/>
      <point x="416" y="347"/>
      <point x="416" y="213" type="curve" smooth="yes"/>
      <point x="416" y="79"/>
      <point x="460" y="-10"/>
    </contour>
    <contour>
      <point x="564" y="35" type="curve" smooth="yes"/>
      <point x="523" y="35"/>
      <point x="508" y="99"/>
      <point x="508" y="213" type="curve" smooth="yes"/>
      <point x="508" y="325"/>
      <point x="523" y="388"/>
      <point x="565" y="388" type="curve" smooth="yes"/>
      <point x="607" y="388"/>
      <point x="621" y="325"/>
      <point x="621" y="213" type="curve" smooth="yes"/>
      <point x="621" y="99"/>
      <point x="607" y="35"/>
    </contour>
  </outline>
</glyph>
<glyph name="quotesingle" format="2">
  <advance width="244"/>
  <unicode hex="0027"/>
  <outline>
    <contour>
      <point x="94" y="452" type="line"/>
      <point x="149" y="452" type="line"/>
      <point x="188" y="714" type="line"/>
      <point x="56" y="714" type="line"/>
    </contour>
  </outline>
</glyph>
<glyph name="asterisk" format="2">
  <advance width="400"/>
  <unicode hex="002A"/>
  <outline>
    <contour>
      <point x="156" y="368" type="line"/>
      <point x="248" y="368" type="line"/>
      <point x="219" y="533" type="line"/>
      <point x="337" y="432" type="line"/>
      <point x="375" y="521" type="line"/>
      <point x="253" y="564" type="line"/>
      <point x="375" y="607" type="line"/>
      <point x="337" y="697" type="line"/>
      <point x="219" y="595" type="line"/>
      <point x="248" y="760" type="line"/>
      <point x="156" y="760" type="line"/>
      <point x="184" y="594" type="line"/>
      <point x="65" y="699" type="line"/>
      <point x="28" y="608" type="line"/>
      <point x="151" y="564" type="line"/>
      <point x="28" y="520" type="line"/>
      <point x="65" y="431" type="line"/>
      <point x="183" y="535" type="line"/>
    </contour>
  </outline>
</glyph>
<glyph name="plus" format="2">
  <advance width="425"/>
  <unicode hex="002B"/>
  <outline>
    <contour>
      <point x="177" y="143" type="line"/>
      <point x="247" y="143" type="line"/>
      <point x="247" y="324" type="line"/>
      <point x="387" y="324" type="line"/>
      <point x="387" y="391" type="line"/>
      <point x="247" y="391" type="line"/>
      <point x="247" y="572" type="line"/>
      <point x="177" y="572" type="line"/>
      <point x="177" y="391" type="line"/>
      <point x="38" y="391" type="line"/>
      <point x="38" y="324" type="line"/>
      <point x="177" y="324" type="line"/>
    </contour>
  </outline>
</glyph>
<glyph name="comma" format="2">
  <advance width="244"/>
  <unicode hex="002C"/>
  <outline>
    <contour>
      <point x="40" y="-154" type="line"/>
      <point x="145" y="-121"/>
      <point x="184" y="-48"/>
      <point x="184" y="33" type="curve" smooth="yes"/>
      <point x="184" y="99"/>
      <point x="159" y="139"/>
      <point x="112" y="139" type="curve" smooth="yes"/>
      <point x="79" y="139"/>
      <point x="52" y="116"/>
      <point x="52" y="76" type="curve" smooth="yes"/>
      <point x="52" y="5"/>
      <point x="109" y="11"/>
      <point x="109" y="-25" type="curve" smooth="yes"/>
      <point x="109" y="-61"/>
      <point x="85" y="-87"/>
      <point x="40" y="-107" type="curve"/>
    </contour>
  </outline>
</glyph>
<glyph name="hyphen" format="2">
  <advance width="253"/>
  <unicode hex="002D"/>
  <outline>
    <contour>
      <point x="21" y="225" type="line"/>
      <point x="233" y="225" type="line"/>
      <point x="233" y="320" type="line"/>
      <point x="21" y="320" type="line"/>
    </contour>
  </outline>
</glyph>
<glyph name="period" format="2">
  <advance width="244"/>
  <unicode hex="002E"/>
  <outline>
    <contour>
      <point x="122" y="-7" type="curve" smooth="yes"/>
      <point x="158" y="-7"/>
      <point x="190" y="10"/>
      <point x="190" y="66" type="curve" smooth="yes"/>
      <point x="190" y="121"/>
      <point x="158" y="139"/>
      <point x="122" y="139" type="curve" smooth="yes"/>
      <point x="84" y="139"/>
      <point x="54" y="121"/>
      <point x="54" y="66" type="curve" smooth="yes"/>
      <point x="54" y="10"/>
      <point x="84" y="-7"/>
    </contour>
  </outline>
</glyph>
<glyph name="slash" format="2">
  <advance width="235"/>
  <unicode hex="002F"/>
  <outline>
    <contour>
      <point x="0" y="-121" type="line"/>
      <point x="61" y="-121" type="line"/>
      <point x="235" y="760" type="line"/>
      <point x="177" y="760" type="line"/>
    </contour>
  </outline>
</glyph>
<glyph name="zero" format="2">
  <advance width="456"/>
  <unicode hex="0030"/>
  <outline>
    <contour>
      <point x="228" y="-10" type="curve" smooth="yes"/>
      <point x="373" y="-10"/>
      <point x="428" y="130"/>
      <point x="428" y="358" type="curve" smooth="yes"/>
      <point x="428" y="588"/>
      <point x="374" y="724"/>
      <point x="229" y="724" type="curve" smooth="yes"/>
      <point x="75" y="724"/>
      <point x="26" y="585"/>
      <point x="26" y="359" type="curve" smooth="yes"/>
      <point x="26" y="128"/>
      <point x="76" y="-10"/>
    </contour>
    <contour>
      <point x="228" y="50" type="curve" smooth="yes"/>
      <point x="168" y="50"/>
      <point x="157" y="163"/>
      <point x="157" y="358" type="curve" smooth="yes"/>
      <point x="157" y="553"/>
      <point x="168" y="664"/>
      <point x="229" y="664" type="curve" smooth="yes"/>
      <point x="287" y="664"/>
      <point x="299" y="553"/>
      <point x="299" y="358" type="curve" smooth="yes"/>
      <point x="299" y="163"/>
      <point x="287" y="50"/>
    </contour>
  </outline>
</glyph>
<glyph name="one" format="2">
  <advance width="456"/>
  <unicode hex="0031"/>
  <outline>
    <contour>
      <point x="71" y="0" type="line"/>
      <point x="410" y="0" type="line"/>
      <point x="410" y="49" type="line"/>
      <point x="366" y="49" type="line" smooth="yes"/>
      <point x="330" y="49"/>
      <point x="309" y="67"/>
      <point x="309" y="116" type="curve" smooth="yes"/>
      <point x="309" y="718" type="line"/>
      <point x="215" y="718" type="line"/>
      <point x="158" y="669" type="line" smooth="yes"/>
      <point x="103" y="621"/>
      <point x="64" y="604"/>
      <point x="32" y="594" type="curve"/>
      <point x="32" y="553"/>
      <point x="53" y="527"/>
      <point x="79" y="527" type="curve" smooth="yes"/>
      <point x="112" y="527"/>
      <point x="145" y="563"/>
      <point x="185" y="621" type="curve"/>
      <point x="185" y="116" type="line" smooth="yes"/>
      <point x="185" y="60"/>
      <point x="160" y="49"/>
      <point x="128" y="49" type="curve" smooth="yes"/>
      <point x="71" y="49" type="line"/>
    </contour>
  </outline>
</glyph>
<glyph name="two" format="2">
  <advance width="456"/>
  <unicode hex="0032"/>
  <outline>
    <contour>
      <point x="29" y="0" type="line"/>
      <point x="420" y="0" type="line"/>
      <point x="424" y="198" type="line"/>
      <point x="373" y="198" type="line"/>
      <point x="366" y="170" type="line" smooth="yes"/>
      <point x="354" y="123"/>
      <point x="330" y="100"/>
      <point x="299" y="100" type="curve" smooth="yes"/>
      <point x="118" y="100" type="line"/>
      <point x="241" y="242" type="line" smooth="yes"/>
      <point x="336" y="351"/>
      <point x="405" y="434"/>
      <point x="405" y="552" type="curve" smooth="yes"/>
      <point x="405" y="655"/>
      <point x="338" y="724"/>
      <point x="213" y="724" type="curve" smooth="yes"/>
      <point x="91" y="724"/>
      <point x="32" y="657"/>
      <point x="32" y="588" type="curve" smooth="yes"/>
      <point x="32" y="524"/>
      <point x="82" y="506"/>
      <point x="136" y="506" type="curve"/>
      <point x="136" y="609"/>
      <point x="158" y="667"/>
      <point x="213" y="667" type="curve" smooth="yes"/>
      <point x="252" y="667"/>
      <point x="277" y="628"/>
      <point x="277" y="547" type="curve" smooth="yes"/>
      <point x="277" y="446"/>
      <point x="245" y="375"/>
      <point x="149" y="247" type="curve" smooth="yes"/>
      <point x="29" y="87" type="line"/>
    </contour>
  </outline>
</glyph>
<glyph name="three" format="2">
  <advance width="456"/>
  <unicode hex="0033"/>
  <outline>
    <contour>
      <point x="200" y="-10" type="curve" smooth="yes"/>
      <point x="318" y="-10"/>
      <point x="425" y="43"/>
      <point x="425" y="201" type="curve" smooth="yes"/>
      <point x="425" y="317"/>
      <point x="352" y="365"/>
      <point x="283" y="379" type="curve"/>
      <point x="351" y="406"/>
      <point x="404" y="469"/>
      <point x="404" y="559" type="curve" smooth="yes"/>
      <point x="404" y="665"/>
      <point x="332" y="724"/>
      <point x="217" y="724" type="curve" smooth="yes"/>
      <point x="95" y="724"/>
      <point x="36" y="660"/>
      <point x="36" y="590" type="curve" smooth="yes"/>
      <point x="36" y="536"/>
      <point x="77" y="516"/>
      <point x="134" y="516" type="curve"/>
      <point x="134" y="595"/>
      <point x="155" y="667"/>
      <point x="209" y="667" type="curve" smooth="yes"/>
      <point x="251" y="667"/>
      <point x="276" y="622"/>
      <point x="276" y="548" type="curve" smooth="yes"/>
      <point x="276" y="457"/>
      <point x="249" y="399"/>
      <point x="179" y="399" type="curve"/>
      <point x="124" y="399" type="line"/>
      <point x="124" y="342" type="line"/>
      <point x="175" y="342" type="line" smooth="yes"/>
      <point x="256" y="342"/>
      <point x="296" y="286"/>
      <point x="296" y="202" type="curve" smooth="yes"/>
      <point x="296" y="90"/>
      <point x="249" y="54"/>
      <point x="197" y="54" type="curve" smooth="yes"/>
      <point x="139" y="54"/>
      <point x="98" y="106"/>
      <point x="98" y="186" type="curve"/>
      <point x="59" y="186"/>
      <point x="26" y="160"/>
      <point x="26" y="113" type="curve" smooth="yes"/>
      <point x="26" y="44"/>
      <point x="75" y="-10"/>
    </contour>
  </outline>
</glyph>
<glyph name="four" format="2">
  <advance width="456"/>
  <unicode hex="0034"/>
  <outline>
    <contour>
      <point x="144" y="0" type="line"/>
      <point x="435" y="0" type="line"/>
      <point x="435" y="49" type="line"/>
      <point x="424" y="49" type="line" smooth="yes"/>
      <point x="387" y="49"/>
      <point x="357" y="58"/>
      <point x="357" y="121" type="curve" smooth="yes"/>
      <point x="357" y="190" type="line"/>
      <point x="439" y="190" type="line"/>
      <point x="439" y="252" type="line"/>
      <point x="357" y="252" type="line"/>
      <point x="357" y="714" type="line"/>
      <point x="235" y="714" type="line"/>
      <point x="11" y="243" type="line"/>
      <point x="11" y="190" type="line"/>
      <point x="234" y="190" type="line"/>
      <point x="234" y="121" type="line" smooth="yes"/>
      <point x="234" y="58"/>
      <point x="204" y="49"/>
      <point x="167" y="49" type="curve" smooth="yes"/>
      <point x="144" y="49" type="line"/>
    </contour>
    <contour>
      <point x="75" y="252" type="line"/>
      <point x="175" y="466" type="line" smooth="yes"/>
      <point x="196" y="512"/>
      <point x="225" y="579"/>
      <point x="239" y="622" type="curve"/>
      <point x="235" y="560"/>
      <point x="234" y="496"/>
      <point x="234" y="438" type="curve" smooth="yes"/>
      <point x="234" y="252" type="line"/>
    </contour>
  </outline>
</glyph>
<glyph name="six" format="2">
  <advance width="456"/>
  <unicode hex="0036"/>
  <outline>
    <contour>
      <point x="239" y="-10" type="curve" smooth="yes"/>
      <point x="364" y="-10"/>
      <point x="429" y="88"/>
      <point x="429" y="230" type="curve" smooth="yes"/>
      <point x="429" y="359"/>
      <point x="364" y="436"/>
      <point x="267" y="436" type="curve" smooth="yes"/>
      <point x="210" y="436"/>
      <point x="179" y="414"/>
      <point x="157" y="393" type="curve"/>
      <point x="162" y="570"/>
      <point x="194" y="669"/>
      <point x="255" y="669" type="curve" smooth="yes"/>
      <point x="298" y="669"/>
      <point x="319" y="615"/>
      <point x="319" y="544" type="curve"/>
      <point x="385" y="544"/>
      <point x="412" y="572"/>
      <point x="412" y="615" type="curve" smooth="yes"/>
      <point x="412" y="672"/>
      <point x="366" y="724"/>
      <point x="259" y="724" type="curve" smooth="yes"/>
      <point x="108" y="724"/>
      <point x="35" y="583"/>
      <point x="35" y="335" type="curve" smooth="yes"/>
      <point x="35" y="97"/>
      <point x="117" y="-10"/>
    </contour>
    <contour>
      <point x="241" y="50" type="curve" smooth="yes"/>
      <point x="193" y="50"/>
      <point x="158" y="144"/>
      <point x="157" y="334" type="curve"/>
      <point x="173" y="352"/>
      <point x="198" y="378"/>
      <point x="236" y="378" type="curve" smooth="yes"/>
      <point x="280" y="378"/>
      <point x="307" y="331"/>
      <point x="307" y="220" type="curve" smooth="yes"/>
      <point x="307" y="102"/>
      <point x="282" y="50"/>
    </contour>
  </outline>
</glyph>
<glyph name="seven" format="2">
  <advance width="456"/>
  <unicode hex="0037"/>
  <outline>
    <contour>
      <point x="125" y="0" type="line"/>
      <point x="205" y="0" type="line"/>
      <point x="421" y="671" type="line"/>
      <point x="421" y="713" type="line"/>
      <point x="42" y="713" type="line"/>
      <point x="37" y="513" type="line"/>
      <point x="90" y="513" type="line"/>
      <point x="95" y="561" type="line" smooth="yes"/>
      <point x="99" y="597"/>
      <point x="112" y="614"/>
      <point x="142" y="614" type="curve" smooth="yes"/>
      <point x="345" y="614" type="line"/>
    </contour>
  </outline>
</glyph>
<glyph name="eight" format="2">
  <advance width="456"/>
  <unicode hex="0038"/>
  <outline>
    <contour>
      <point x="224" y="-10" type="curve" smooth="yes"/>
      <point x="356" y="-10"/>
      <point x="433" y="65"/>
      <point x="433" y="182" type="curve" smooth="yes"/>
      <point x="433" y="284"/>
      <point x="391" y="335"/>
      <point x="303" y="385" type="curve"/>
      <point x="370" y="421"/>
      <point x="411" y="469"/>
      <point x="411" y="559" type="curve" smooth="yes"/>
      <point x="411" y="653"/>
      <point x="350" y="724"/>
      <point x="232" y="724" type="curve" smooth="yes"/>
      <point x="98" y="724"/>
      <point x="42" y="644"/>
      <point x="42" y="545" type="curve" smooth="yes"/>
      <point x="42" y="455"/>
      <point x="84" y="405"/>
      <point x="148" y="364" type="curve"/>
      <point x="78" y="331"/>
      <point x="24" y="277"/>
      <point x="24" y="173" type="curve" smooth="yes"/>
      <point x="24" y="73"/>
      <point x="85" y="-10"/>
    </contour>
    <contour>
      <point x="227" y="46" type="curve" smooth="yes"/>
      <point x="173" y="46"/>
      <point x="136" y="92"/>
      <point x="136" y="180" type="curve" smooth="yes"/>
      <point x="136" y="249"/>
      <point x="158" y="299"/>
      <point x="194" y="332" type="curve"/>
      <point x="271" y="282"/>
      <point x="310" y="234"/>
      <point x="310" y="166" type="curve" smooth="yes"/>
      <point x="310" y="90"/>
      <point x="276" y="46"/>
    </contour>
    <contour>
      <point x="251" y="413" type="curve"/>
      <point x="196" y="448"/>
      <point x="161" y="487"/>
      <point x="161" y="560" type="curve" smooth="yes"/>
      <point x="161" y="626"/>
      <point x="185" y="668"/>
      <point x="230" y="668" type="curve" smooth="yes"/>
      <point x="278" y="668"/>
      <point x="302" y="617"/>
      <point x="302" y="556" type="curve" smooth="yes"/>
      <point x="302" y="485"/>
      <point x="284" y="443"/>
    </contour>
  </outline>
</glyph>
<glyph name="colon" format="2">
  <advance width="246"/>
  <unicode hex="003A"/>
  <outline>
    <contour>
      <point x="122" y="392" type="curve" smooth="yes"/>
      <point x="158" y="392"/>
      <point x="190" y="410"/>
      <point x="190" y="465" type="curve" smooth="yes"/>
      <point x="190" y="521"/>
      <point x="158" y="538"/>
      <point x="122" y="538" type="curve" smooth="yes"/>
      <point x="84" y="538"/>
      <point x="55" y="521"/>
      <point x="55" y="465" type="curve" smooth="yes"/>
      <point x="55" y="410"/>
      <point x="84" y="392"/>
    </contour>
    <contour>
      <point x="122" y="-7" type="curve" smooth="yes"/>
      <point x="158" y="-7"/>
      <point x="190" y="10"/>
      <point x="190" y="66" type="curve" smooth="yes"/>
      <point x="190" y="121"/>
      <point x="158" y="139"/>
      <point x="122" y="139" type="curve" smooth="yes"/>
      <point x="84" y="139"/>
      <point x="55" y="121"/>
      <point x="55" y="66" type="curve" smooth="yes"/>
      <point x="55" y="10"/>
      <point x="84" y="-7"/>
    </contour>
  </outline>
</glyph>
<glyph name="less" format="2">
  <advance width="425"/>
  <unicode hex="003C"/>
  <outline>
    <contour>
      <point x="387" y="106" type="line"/>
      <point x="387" y="182" type="line"/>
      <point x="126" y="357" type="line"/>
      <point x="387" y="534" type="line"/>
      <point x="387" y="610" type="line"/>
      <point x="38" y="377" type="line"/>
      <point x="38" y="338" type="line"/>
    </contour>
  </outline>
</glyph>
<glyph name="equal" format="2">
  <advance width="425"/>
  <unicode hex="003D"/>
  <outline>
    <contour>
      <point x="36" y="414" type="line"/>
      <point x="389" y="414" type="line"/>
      <point x="389" y="481" type="line"/>
      <point x="36" y="481" type="line"/>
    </contour>
    <contour>
      <point x="36" y="233" type="line"/>
      <point x="389" y="233" type="line"/>
      <point x="389" y="300" type="line"/>
      <point x="36" y="300" type="line"/>
    </contour>
  </outline>
</glyph>
<glyph name="greater" format="2">
  <advance width="425"/>
  <unicode hex="003E"/>
  <outline>
    <contour>
      <point x="38" y="106" type="line"/>
      <point x="387" y="338" type="line"/>
      <point x="387" y="377" type="line"/>
      <point x="38" y="610" type="line"/>
      <point x="38" y="534" type="line"/>
      <point x="298" y="357" type="line"/>
      <point x="38" y="182" type="line"/>
    </contour>
  </outline>
</glyph>
<glyph name="question" format="2">
  <advance width="456"/>
  <unicode hex="003F"/>
  <outline>
    <contour>
      <point x="182" y="221" type="line"/>
      <point x="226" y="221" type="line"/>
      <point x="249" y="323" type="line"/>
      <point x="358" y="376"/>
      <point x="409" y="435"/>
      <point x="409" y="543" type="curve" smooth="yes"/>
      <point x="409" y="658"/>
      <point x="331" y="724"/>
      <point x="208" y="724" type="curve" smooth="yes"/>
      <point x="88" y="724"/>
      <point x="31" y="668"/>
      <point x="31" y="607" type="curve" smooth="yes"/>
      <point x="31" y="554"/>
      <point x="72" y="537"/>
      <point x="142" y="537" type="curve"/>
      <point x="142" y="618"/>
      <point x="162" y="668"/>
      <point x="209" y="668" type="curve" smooth="yes"/>
      <point x="251" y="668"/>
      <point x="274" y="617"/>
      <point x="274" y="550" type="curve" smooth="yes"/>
      <point x="274" y="467"/>
      <point x="253" y="394"/>
      <point x="160" y="348" type="curve"/>
    </contour>
    <contour>
      <point x="203" y="-7" type="curve" smooth="yes"/>
      <point x="239" y="-7"/>
      <point x="271" y="10"/>
      <point x="271" y="66" type="curve" smooth="yes"/>
      <point x="271" y="121"/>
      <point x="239" y="139"/>
      <point x="203" y="139" type="curve" smooth="yes"/>
      <point x="165" y="139"/>
      <point x="135" y="121"/>
      <point x="135" y="66" type="curve" smooth="yes"/>
      <point x="135" y="10"/>
      <point x="165" y="-7"/>
    </contour>
  </outline>
</glyph>
<glyph name="bracketleft" format="2">
  <advance width="343"/>
  <unicode hex="005B"/>
  <outline>
    <contour>
      <point x="81" y="-128" type="line"/>
      <point x="313" y="-128" type="line"/>
      <point x="313" y="-79" type="line"/>
      <point x="278" y="-79" type="line" smooth="yes"/>
      <point x="241" y="-79"/>
      <point x="211" y="-70"/>
      <point x="211" y="-7" type="curve" smooth="yes"/>
      <point x="211" y="639" type="line" smooth="yes"/>
      <point x="211" y="702"/>
      <point x="241" y="711"/>
      <point x="278" y="711" type="curve" smooth="yes"/>
      <point x="313" y="711" type="line"/>
      <point x="313" y="760" type="line"/>
      <point x="81" y="760" type="line"/>
    </contour>
  </outline>
</glyph>
<glyph name="underscore" format="2">
  <advance width="373"/>
  <unicode hex="005F"/>
  <outline>
    <contour>
      <point x="-5" y="-142" type="line"/>
      <point x="377" y="-142" type="line"/>
      <point x="377" y="-83" type="line"/>
      <point x="-5" y="-83" type="line"/>
    </contour>
  </outline>
</glyph>
<glyph name="braceleft" format="2">
  <advance width="361"/>
  <unicode hex="007B"/>
  <outline>
    <contour>
      <point x="259" y="-126" type="curve" smooth="yes"/>
      <point x="339" y="-126" type="line"/>
      <point x="339" y="-76" type="line"/>
      <point x="306" y="-76" type="line" smooth="yes"/>
      <point x="260" y="-76"/>
      <point x="249" y="-41"/>
      <point x="249" y="24" type="curve" smooth="yes"/>
      <point x="249" y="195" type="line" smooth="yes"/>
      <point x="249" y="258"/>
      <point x="222" y="299"/>
      <point x="160" y="316" type="curve"/>
      <point x="160" y="322" type="line"/>
      <point x="223" y="337"/>
      <point x="249" y="378"/>
      <point x="249" y="441" type="curve" smooth="yes"/>
      <point x="249" y="611" type="line" smooth="yes"/>
      <point x="249" y="676"/>
      <point x="260" y="711"/>
      <point x="306" y="711" type="curve" smooth="yes"/>
      <point x="339" y="711" type="line"/>
      <point x="339" y="760" type="line"/>
      <point x="259" y="760" type="line" smooth="yes"/>
      <point x="165" y="760"/>
      <point x="117" y="708"/>
      <point x="117" y="615" type="curve" smooth="yes"/>
      <point x="117" y="443" type="line" smooth="yes"/>
      <point x="117" y="366"/>
      <point x="76" y="347"/>
      <point x="22" y="345" type="curve"/>
      <point x="22" y="291" type="line"/>
      <point x="76" y="288"/>
      <point x="117" y="271"/>
      <point x="117" y="192" type="curve" smooth="yes"/>
      <point x="117" y="21" type="line" smooth="yes"/>
      <point x="117" y="-70"/>
      <point x="165" y="-126"/>
    </contour>
  </outline>
</glyph>
<glyph name="bar" format="2">
  <advance width="456"/>
  <unicode hex="007C"/>
  <outline>
    <contour>
      <point x="197" y="-240" type="line"/>
      <point x="258" y="-240" type="line"/>
      <point x="258" y="760" type="line"/>
      <point x="197" y="760" type="line"/>
    </contour>
  </outline>
</glyph>
<glyph name="braceright" format="2">
  <advance width="361"/>
  <unicode hex="007D"/>
  <outline>
    <contour>
      <point x="22" y="-126" type="line"/>
      <point x="102" y="-126" type="line" smooth="yes"/>
      <point x="196" y="-126"/>
      <point x="244" y="-70"/>
      <point x="244" y="21" type="curve" smooth="yes"/>
      <point x="244" y="192" type="line" smooth="yes"/>
      <point x="244" y="271"/>
      <point x="287" y="288"/>
      <point x="339" y="291" type="curve"/>
      <point x="339" y="345" type="line"/>
      <point x="287" y="347"/>
      <point x="244" y="366"/>
      <point x="244" y="443" type="curve" smooth="yes"/>
      <point x="244" y="615" type="line" smooth="yes"/>
      <point x="244" y="708"/>
      <point x="196" y="760"/>
      <point x="102" y="760" type="curve" smooth="yes"/>
      <point x="22" y="760" type="line"/>
      <point x="22" y="711" type="line"/>
      <point x="55" y="711" type="line" smooth="yes"/>
      <point x="101" y="711"/>
      <point x="112" y="676"/>
      <point x="112" y="611" type="curve" smooth="yes"/>
      <point x="112" y="441" type="line" smooth="yes"/>
      <point x="112" y="378"/>
      <point x="138" y="337"/>
      <point x="202" y="322" type="curve"/>
      <point x="202" y="316" type="line"/>
      <point x="139" y="299"/>
      <point x="112" y="258"/>
      <point x="112" y="195" type="curve" smooth="yes"/>
      <point x="112" y="24" type="line" smooth="yes"/>
      <point x="112" y="-41"/>
      <point x="101" y="-76"/>
      <point x="55" y="-76" type="curve" smooth="yes"/>
      <point x="22" y="-76" type="line"/>
    </contour>
  </outline>
</glyph>
<glyph name="twosuperior" format="2">
  <advance width="326"/>
  <unicode hex="00B2"/>
  <outline>
    <contour>
      <point x="23" y="387" type="line"/>
      <point x="294" y="387" type="line"/>
      <point x="297" y="525" type="line"/>
      <point x="270" y="525" type="line"/>
      <point x="265" y="498" type="line" smooth="yes"/>
      <point x="261" y="478"/>
      <point x="253" y="464"/>
      <point x="231" y="464" type="curve"/>
      <point x="88" y="464" type="line"/>
      <point x="146" y="521" type="line"/>
      <point x="253" y="604"/>
      <point x="290" y="639"/>
      <point x="290" y="708" type="curve" smooth="yes"/>
      <point x="290" y="777"/>
      <point x="251" y="825"/>
      <point x="159" y="825" type="curve" smooth="yes"/>
      <point x="69" y="825"/>
      <point x="27" y="785"/>
      <point x="27" y="737" type="curve" smooth="yes"/>
      <point x="27" y="705"/>
      <point x="47" y="690"/>
      <point x="100" y="690" type="curve"/>
      <point x="100" y="744"/>
      <point x="110" y="780"/>
      <point x="149" y="780" type="curve" smooth="yes"/>
      <point x="179" y="780"/>
      <point x="194" y="753"/>
      <point x="194" y="710" type="curve" smooth="yes"/>
      <point x="194" y="649"/>
      <point x="165" y="611"/>
      <point x="111" y="552" type="curve" smooth="yes"/>
      <point x="23" y="454" type="line"/>
    </contour>
  </outline>
</glyph>
<glyph name="threesuperior" format="2">
  <advance width="326"/>
  <unicode hex="00B3"/>
  <outline>
    <contour>
      <point x="145" y="380" type="curve" smooth="yes"/>
      <point x="246" y="380"/>
      <point x="301" y="428"/>
      <point x="301" y="509" type="curve" smooth="yes"/>
      <point x="301" y="579"/>
      <point x="252" y="603"/>
      <point x="205" y="612" type="curve"/>
      <point x="205" y="615" type="line"/>
      <point x="248" y="630"/>
      <point x="287" y="664"/>
      <point x="287" y="723" type="curve" smooth="yes"/>
      <point x="287" y="785"/>
      <point x="248" y="824"/>
      <point x="157" y="824" type="curve" smooth="yes"/>
      <point x="68" y="824"/>
      <point x="29" y="783"/>
      <point x="29" y="738" type="curve" smooth="yes"/>
      <point x="29" y="705"/>
      <point x="53" y="693"/>
      <point x="97" y="693" type="curve"/>
      <point x="97" y="743"/>
      <point x="104" y="781"/>
      <point x="145" y="781" type="curve" smooth="yes"/>
      <point x="174" y="781"/>
      <point x="191" y="759"/>
      <point x="191" y="716" type="curve" smooth="yes"/>
      <point x="191" y="665"/>
      <point x="169" y="632"/>
      <point x="124" y="632" type="curve" smooth="yes"/>
      <point x="94" y="632" type="line"/>
      <point x="94" y="586" type="line"/>
      <point x="123" y="586" type="line" smooth="yes"/>
      <point x="180" y="586"/>
      <point x="201" y="557"/>
      <point x="201" y="511" type="curve" smooth="yes"/>
      <point x="201" y="450"/>
      <point x="173" y="428"/>
      <point x="137" y="428" type="curve" smooth="yes"/>
      <point x="93" y="428"/>
      <point x="76" y="466"/>
      <point x="76" y="515" type="curve"/>
      <point x="38" y="515"/>
      <point x="18" y="499"/>
      <point x="18" y="466" type="curve" smooth="yes"/>
      <point x="18" y="417"/>
      <point x="56" y="380"/>
    </contour>
  </outline>
</glyph>
<glyph name="multiply" format="2">
  <advance width="425"/>
  <unicode hex="00D7"/>
  <outline>
    <contour>
      <point x="89" y="158" type="line"/>
      <point x="213" y="308" type="line"/>
      <point x="335" y="160" type="line"/>
      <point x="384" y="201" type="line"/>
      <point x="255" y="359" type="line"/>
      <point x="384" y="516" type="line"/>
      <point x="334" y="557" type="line"/>
      <point x="213" y="410" type="line"/>
      <point x="90" y="559" type="line"/>
      <point x="40" y="518" type="line"/>
      <point x="171" y="359" type="line"/>
      <point x="40" y="199" type="line"/>
    </contour>
  </outline>
</glyph>
<glyph name="udatta-deva" format="2">
  <unicode hex="0951"/>
  <anchor x="0" y="565" name="_vedic"/>
  <outline>
    <contour>
      <point x="-30" y="937" type="line"/>
      <point x="30" y="937" type="line"/>
      <point x="30" y="1138" type="line"/>
      <point x="-30" y="1138" type="line"/>
    </contour>
  </outline>
</glyph>
<glyph name="anudatta-deva" format="2">
  <unicode hex="0952"/>
  <anchor x="0" y="0" name="_bottom"/>
  <outline>
    <contour>
      <point x="-202" y="-543" type="line"/>
      <point x="202" y="-543" type="line"/>
      <point x="202" y="-460" type="line"/>
      <point x="-202" y="-460" type="line"/>
    </contour>
  </outline>
</glyph>
<glyph name="danda-deva" format="2">
  <advance width="276"/>
  <unicode hex="0964"/>
  <outline>
    <contour>
      <point x="66" y="0" type="line"/>
      <point x="209" y="0" type="line"/>
      <point x="209" y="565" type="line"/>
      <point x="66" y="565" type="line"/>
    </contour>
  </outline>
</glyph>
<glyph name="aa-tamil" format="2">
  <advance width="1283"/>
  <unicode hex="0B86"/>
  <note>
uni0B86
</note>
  <anchor x="634" y="0" name="bottom"/>
  <anchor x="359" y="-140" name="nukta"/>
  <anchor x="637" y="565" name="top"/>
  <anchor x="638" y="565" name="vedic"/>
  <outline>
    <contour>
      <point x="855" y="-408" type="curve" smooth="yes"/>
      <point x="1065" y="-408"/>
      <point x="1268" y="-293"/>
      <point x="1268" y="-75" type="curve" smooth="yes"/>
      <point x="1268" y="28"/>
      <point x="1218" y="83"/>
      <point x="1142" y="83" type="curve" smooth="yes"/>
      <point x="1058" y="83"/>
      <point x="1009" y="17"/>
      <point x="1000" y="-93" type="curve"/>
      <point x="1024" y="-101" type="line"/>
      <point x="1023" y="-47"/>
      <point x="1048" y="-19"/>
      <point x="1079" y="-19" type="curve" smooth="yes"/>
      <point x="1111" y="-19"/>
      <point x="1130" y="-44"/>
      <point x="1130" y="-91" type="curve" smooth="yes"/>
      <point x="1129" y="-261"/>
      <point x="1000" y="-348"/>
      <point x="848" y="-348" type="curve" smooth="yes"/>
      <point x="769" y="-348"/>
      <point x="701" y="-323"/>
      <point x="701" y="-266" type="curve" smooth="yes"/>
      <point x="701" y="-223"/>
      <point x="729" y="-201"/>
      <point x="782" y="-188" type="curve"/>
      <point x="769" y="-130" type="line"/>
      <point x="684" y="-151"/>
      <point x="636" y="-194"/>
      <point x="636" y="-263" type="curve" smooth="yes"/>
      <point x="636" y="-356"/>
      <point x="726" y="-408"/>
    </contour>
    <component base="a-tamil"/>
  </outline>
</glyph>
<glyph name="i-tamil" format="2">
  <advance width="846"/>
  <unicode hex="0B87"/>
  <note>
uni0B87
</note>
  <anchor x="401" y="0" name="bottom"/>
  <anchor x="399" y="-277" name="nukta"/>
  <anchor x="416" y="831" name="top"/>
  <anchor x="407" y="565" name="vedic"/>
  <outline>
    <contour>
      <point x="193" y="-314" type="curve" smooth="yes"/>
      <point x="462" y="-314"/>
      <point x="666" y="-51"/>
      <point x="666" y="230" type="curve" smooth="yes"/>
      <point x="666" y="436"/>
      <point x="568" y="570"/>
      <point x="402" y="570" type="curve" smooth="yes"/>
      <point x="275" y="570"/>
      <point x="203" y="489"/>
      <point x="203" y="377" type="curve" smooth="yes"/>
      <point x="203" y="288"/>
      <point x="260" y="229"/>
      <point x="336" y="229" type="curve" smooth="yes"/>
      <point x="412" y="229"/>
      <point x="471" y="278"/>
      <point x="471" y="367" type="curve" smooth="yes"/>
      <point x="471" y="440"/>
      <point x="425" y="503"/>
      <point x="367" y="529" type="curve"/>
      <point x="310" y="520" type="line"/>
      <point x="359" y="496"/>
      <point x="384" y="440"/>
      <point x="384" y="382" type="curve" smooth="yes"/>
      <point x="384" y="336"/>
      <point x="365" y="298"/>
      <point x="324" y="298" type="curve" smooth="yes"/>
      <point x="290" y="298"/>
      <point x="266" y="328"/>
      <point x="266" y="382" type="curve" smooth="yes"/>
      <point x="266" y="452"/>
      <point x="303" y="508"/>
      <point x="385" y="508" type="curve" smooth="yes"/>
      <point x="496" y="508"/>
      <point x="534" y="402"/>
      <point x="534" y="252" type="curve" smooth="yes"/>
      <point x="534" y="6"/>
      <point x="443" y="-251"/>
      <point x="196" y="-251" type="curve" smooth="yes"/>
      <point x="134" y="-251"/>
      <point x="101" y="-220"/>
      <point x="101" y="-160" type="curve" smooth="yes"/>
      <point x="101" y="-36"/>
      <point x="250" y="49"/>
      <point x="398" y="49" type="curve" smooth="yes"/>
      <point x="556" y="49"/>
      <point x="716" y="-27"/>
      <point x="716" y="-158" type="curve" smooth="yes"/>
      <point x="716" y="-222"/>
      <point x="678" y="-251"/>
      <point x="617" y="-251" type="curve" smooth="yes"/>
      <point x="396" y="-251"/>
      <point x="114" y="65"/>
      <point x="114" y="369" type="curve" smooth="yes"/>
      <point x="114" y="615"/>
      <point x="238" y="715"/>
      <point x="416" y="715" type="curve" smooth="yes"/>
      <point x="607" y="715"/>
      <point x="739" y="588"/>
      <point x="739" y="352" type="curve" smooth="yes"/>
      <point x="739" y="95" type="line"/>
      <point x="804" y="95" type="line"/>
      <point x="804" y="356" type="line" smooth="yes"/>
      <point x="804" y="684"/>
      <point x="648" y="831"/>
      <point x="416" y="831" type="curve" smooth="yes"/>
      <point x="186" y="831"/>
      <point x="41" y="665"/>
      <point x="41" y="410" type="curve" smooth="yes"/>
      <point x="41" y="39"/>
      <point x="369" y="-314"/>
      <point x="628" y="-314" type="curve" smooth="yes"/>
      <point x="729" y="-314"/>
      <point x="790" y="-260"/>
      <point x="790" y="-171" type="curve" smooth="yes"/>
      <point x="790" y="17"/>
      <point x="597" y="107"/>
      <point x="397" y="107" type="curve" smooth="yes"/>
      <point x="212" y="107"/>
      <point x="31" y="4"/>
      <point x="31" y="-162" type="curve" smooth="yes"/>
      <point x="31" y="-261"/>
      <point x="95" y="-314"/>
    </contour>
  </outline>
</glyph>
<glyph name="ii-tamil" format="2">
  <advance width="682"/>
  <unicode hex="0B88"/>
  <note>
uni0B88
</note>
  <anchor x="341" y="0" name="bottom"/>
  <anchor x="341" y="0" name="nukta"/>
  <anchor x="344" y="565" name="top"/>
  <anchor x="344" y="565" name="vedic"/>
  <outline>
    <contour>
      <point x="64" y="0" type="line"/>
      <point x="129" y="0" type="line"/>
      <point x="129" y="505" type="line"/>
      <point x="325" y="505" type="line"/>
      <point x="325" y="0" type="line"/>
      <point x="470" y="0" type="line"/>
      <point x="470" y="505" type="line"/>
      <point x="638" y="505" type="line"/>
      <point x="638" y="565" type="line"/>
      <point x="64" y="565" type="line"/>
    </contour>
    <contour>
      <point x="226" y="209" type="curve" smooth="yes"/>
      <point x="261" y="209"/>
      <point x="290" y="237"/>
      <point x="290" y="269" type="curve" smooth="yes"/>
      <point x="290" y="301"/>
      <point x="262" y="329"/>
      <point x="227" y="329" type="curve" smooth="yes"/>
      <point x="191" y="329"/>
      <point x="163" y="301"/>
      <point x="163" y="269" type="curve" smooth="yes"/>
      <point x="163" y="237"/>
      <point x="191" y="209"/>
    </contour>
    <contour>
      <point x="567" y="209" type="curve" smooth="yes"/>
      <point x="602" y="209"/>
      <point x="631" y="237"/>
      <point x="631" y="269" type="curve" smooth="yes"/>
      <point x="631" y="301"/>
      <point x="603" y="329"/>
      <point x="568" y="329" type="curve" smooth="yes"/>
      <point x="532" y="329"/>
      <point x="504" y="301"/>
      <point x="504" y="269" type="curve" smooth="yes"/>
      <point x="504" y="237"/>
      <point x="532" y="209"/>
    </contour>
  </outline>
</glyph>
<glyph name="u-tamil" format="2">
  <advance width="778"/>
  <unicode hex="0B89"/>
  <note>
uni0B89
</note>
  <anchor x="390" y="0" name="bottom"/>
  <anchor x="390" y="0" name="nukta"/>
  <anchor x="394" y="565" name="top"/>
  <anchor x="393" y="565" name="vedic"/>
  <outline>
    <contour>
      <point x="127" y="0" type="curve" smooth="yes"/>
      <point x="765" y="0" type="line"/>
      <point x="765" y="61" type="line"/>
      <point x="126" y="61" type="line" smooth="yes"/>
      <point x="109" y="61"/>
      <point x="93" y="75"/>
      <point x="93" y="97" type="curve" smooth="yes"/>
      <point x="93" y="119"/>
      <point x="108" y="133"/>
      <point x="126" y="133" type="curve" smooth="yes"/>
      <point x="315" y="133" type="line" smooth="yes"/>
      <point x="456" y="133"/>
      <point x="559" y="196"/>
      <point x="559" y="338" type="curve" smooth="yes"/>
      <point x="559" y="485"/>
      <point x="454" y="570"/>
      <point x="297" y="570" type="curve" smooth="yes"/>
      <point x="174" y="570"/>
      <point x="93" y="492"/>
      <point x="93" y="385" type="curve" smooth="yes"/>
      <point x="93" y="297"/>
      <point x="146" y="244"/>
      <point x="219" y="244" type="curve" smooth="yes"/>
      <point x="293" y="244"/>
      <point x="349" y="291"/>
      <point x="349" y="373" type="curve" smooth="yes"/>
      <point x="349" y="450"/>
      <point x="300" y="510"/>
      <point x="244" y="528" type="curve"/>
      <point x="185" y="524" type="line"/>
      <point x="237" y="497"/>
      <point x="263" y="444"/>
      <point x="263" y="388" type="curve" smooth="yes"/>
      <point x="263" y="340"/>
      <point x="243" y="309"/>
      <point x="207" y="309" type="curve" smooth="yes"/>
      <point x="177" y="309"/>
      <point x="156" y="336"/>
      <point x="156" y="386" type="curve" smooth="yes"/>
      <point x="156" y="458"/>
      <point x="209" y="510"/>
      <point x="276" y="510" type="curve" smooth="yes"/>
      <point x="367" y="510"/>
      <point x="425" y="452"/>
      <point x="425" y="348" type="curve" smooth="yes"/>
      <point x="425" y="246"/>
      <point x="375" y="191"/>
      <point x="295" y="191" type="curve" smooth="yes"/>
      <point x="127" y="191" type="line" smooth="yes"/>
      <point x="72" y="191"/>
      <point x="34" y="157"/>
      <point x="34" y="97" type="curve" smooth="yes"/>
      <point x="34" y="36"/>
      <point x="73" y="0"/>
    </contour>
  </outline>
</glyph>
<glyph name="uu-tamil" format="2">
  <advance width="1457"/>
  <unicode hex="0B8A"/>
  <note>
uni0B8A
</note>
  <anchor x="726" y="0" name="bottom"/>
  <anchor x="726" y="0" name="nukta"/>
  <anchor x="726" y="565" name="top"/>
  <anchor x="729" y="565" name="vedic"/>
  <outline>
    <contour>
      <point x="125" y="0" type="curve" smooth="yes"/>
      <point x="1412" y="0" type="line"/>
      <point x="1412" y="61" type="line"/>
      <point x="124" y="61" type="line" smooth="yes"/>
      <point x="106" y="61"/>
      <point x="93" y="75"/>
      <point x="93" y="97" type="curve" smooth="yes"/>
      <point x="93" y="119"/>
      <point x="106" y="133"/>
      <point x="124" y="133" type="curve" smooth="yes"/>
      <point x="315" y="133" type="line" smooth="yes"/>
      <point x="456" y="133"/>
      <point x="559" y="196"/>
      <point x="559" y="338" type="curve" smooth="yes"/>
      <point x="559" y="485"/>
      <point x="454" y="570"/>
      <point x="297" y="570" type="curve" smooth="yes"/>
      <point x="174" y="570"/>
      <point x="93" y="492"/>
      <point x="93" y="385" type="curve" smooth="yes"/>
      <point x="93" y="297"/>
      <point x="146" y="244"/>
      <point x="219" y="244" type="curve" smooth="yes"/>
      <point x="293" y="244"/>
      <point x="349" y="291"/>
      <point x="349" y="373" type="curve" smooth="yes"/>
      <point x="349" y="450"/>
      <point x="300" y="510"/>
      <point x="244" y="528" type="curve"/>
      <point x="185" y="524" type="line"/>
      <point x="237" y="497"/>
      <point x="263" y="444"/>
      <point x="263" y="388" type="curve" smooth="yes"/>
      <point x="263" y="340"/>
      <point x="243" y="309"/>
      <point x="207" y="309" type="curve" smooth="yes"/>
      <point x="177" y="309"/>
      <point x="156" y="336"/>
      <point x="156" y="386" type="curve" smooth="yes"/>
      <point x="156" y="458"/>
      <point x="209" y="510"/>
      <point x="276" y="510" type="curve" smooth="yes"/>
      <point x="367" y="510"/>
      <point x="425" y="452"/>
      <point x="425" y="348" type="curve" smooth="yes"/>
      <point x="425" y="246"/>
      <point x="375" y="191"/>
      <point x="295" y="191" type="curve" smooth="yes"/>
      <point x="125" y="191" type="line" smooth="yes"/>
      <point x="69" y="191"/>
      <point x="34" y="157"/>
      <point x="34" y="97" type="curve" smooth="yes"/>
      <point x="34" y="36"/>
      <point x="70" y="0"/>
    </contour>
    <contour>
      <point x="775" y="113" type="curve" smooth="yes"/>
      <point x="855" y="113"/>
      <point x="915" y="165"/>
      <point x="915" y="255" type="curve" smooth="yes"/>
      <point x="915" y="350"/>
      <point x="860" y="398"/>
      <point x="792" y="398" type="curve" smooth="yes"/>
      <point x="712" y="398"/>
      <point x="670" y="325"/>
      <point x="667" y="238" type="curve"/>
      <point x="695" y="206" type="line"/>
      <point x="697" y="274"/>
      <point x="726" y="331"/>
      <point x="766" y="331" type="curve" smooth="yes"/>
      <point x="797" y="331"/>
      <point x="820" y="306"/>
      <point x="820" y="256" type="curve" smooth="yes"/>
      <point x="820" y="206"/>
      <point x="799" y="175"/>
      <point x="762" y="175" type="curve" smooth="yes"/>
      <point x="716" y="175"/>
      <point x="668" y="222"/>
      <point x="668" y="331" type="curve" smooth="yes"/>
      <point x="668" y="437"/>
      <point x="724" y="510"/>
      <point x="818" y="510" type="curve" smooth="yes"/>
      <point x="918" y="510"/>
      <point x="977" y="430"/>
      <point x="977" y="320" type="curve"/>
      <point x="1033" y="320" type="line"/>
      <point x="1029" y="480"/>
      <point x="936" y="570"/>
      <point x="818" y="570" type="curve" smooth="yes"/>
      <point x="691" y="570"/>
      <point x="608" y="468"/>
      <point x="608" y="329" type="curve" smooth="yes"/>
      <point x="608" y="193"/>
      <point x="682" y="113"/>
    </contour>
    <contour>
      <point x="977" y="116" type="line"/>
      <point x="1100" y="116" type="line"/>
      <point x="1100" y="509" type="line"/>
      <point x="1211" y="509" type="line"/>
      <point x="1211" y="116" type="line"/>
      <point x="1333" y="116" type="line"/>
      <point x="1333" y="509" type="line"/>
      <point x="1412" y="509" type="line"/>
      <point x="1412" y="565" type="line"/>
      <point x="1002" y="565" type="line"/>
      <point x="1005" y="391" type="line"/>
      <point x="977" y="388" type="line"/>
    </contour>
  </outline>
</glyph>
<glyph name="e-tamil" format="2">
  <advance width="775"/>
  <unicode hex="0B8E"/>
  <note>
uni0B8E
</note>
  <anchor x="407" y="0" name="bottom"/>
  <anchor x="407" y="0" name="nukta"/>
  <anchor x="410" y="565" name="top"/>
  <anchor x="410" y="565" name="vedic"/>
  <outline>
    <contour>
      <point x="231" y="-5" type="curve" smooth="yes"/>
      <point x="331" y="-5"/>
      <point x="396" y="60"/>
      <point x="396" y="164" type="curve" smooth="yes"/>
      <point x="396" y="256"/>
      <point x="345" y="323"/>
      <point x="259" y="323" type="curve" smooth="yes"/>
      <point x="160" y="323"/>
      <point x="108" y="228"/>
      <point x="105" y="117" type="curve"/>
      <point x="142" y="91" type="line"/>
      <point x="144" y="174"/>
      <point x="169" y="235"/>
      <point x="213" y="235" type="curve" smooth="yes"/>
      <point x="248" y="235"/>
      <point x="267" y="198"/>
      <point x="267" y="153" type="curve" smooth="yes"/>
      <point x="267" y="99"/>
      <point x="249" y="63"/>
      <point x="205" y="63" type="curve" smooth="yes"/>
      <point x="151" y="63"/>
      <point x="107" y="133"/>
      <point x="107" y="255" type="curve" smooth="yes"/>
      <point x="107" y="417"/>
      <point x="188" y="505"/>
      <point x="353" y="505" type="curve" smooth="yes"/>
      <point x="509" y="505" type="line"/>
      <point x="509" y="0" type="line"/>
      <point x="653" y="0" type="line"/>
      <point x="653" y="505" type="line"/>
      <point x="757" y="505" type="line"/>
      <point x="757" y="565" type="line"/>
      <point x="342" y="565" type="line" smooth="yes"/>
      <point x="150" y="565"/>
      <point x="43" y="452"/>
      <point x="43" y="257" type="curve" smooth="yes"/>
      <point x="43" y="96"/>
      <point x="117" y="-5"/>
    </contour>
  </outline>
</glyph>
<glyph name="ee-tamil" format="2">
  <advance width="775"/>
  <unicode hex="0B8F"/>
  <note>
uni0B8F
</note>
  <anchor x="407" y="0" name="bottom"/>
  <anchor x="407" y="-161" name="nukta"/>
  <anchor x="410" y="565" name="top"/>
  <anchor x="410" y="565" name="vedic"/>
  <outline>
    <contour>
      <point x="421" y="-220" type="line"/>
      <point x="653" y="43" type="line"/>
      <point x="653" y="505" type="line"/>
      <point x="757" y="505" type="line"/>
      <point x="757" y="565" type="line"/>
      <point x="342" y="565" type="line" smooth="yes"/>
      <point x="150" y="565"/>
      <point x="43" y="452"/>
      <point x="43" y="257" type="curve" smooth="yes"/>
      <point x="43" y="96"/>
      <point x="117" y="-5"/>
      <point x="231" y="-5" type="curve" smooth="yes"/>
      <point x="331" y="-5"/>
      <point x="396" y="60"/>
      <point x="396" y="164" type="curve" smooth="yes"/>
      <point x="396" y="256"/>
      <point x="345" y="323"/>
      <point x="259" y="323" type="curve" smooth="yes"/>
      <point x="160" y="323"/>
      <point x="108" y="228"/>
      <point x="105" y="117" type="curve"/>
      <point x="142" y="91" type="line"/>
      <point x="144" y="174"/>
      <point x="171" y="235"/>
      <point x="214" y="235" type="curve" smooth="yes"/>
      <point x="249" y="235"/>
      <point x="267" y="198"/>
      <point x="267" y="153" type="curve" smooth="yes"/>
      <point x="267" y="99"/>
      <point x="249" y="63"/>
      <point x="206" y="63" type="curve" smooth="yes"/>
      <point x="153" y="63"/>
      <point x="108" y="133"/>
      <point x="108" y="255" type="curve" smooth="yes"/>
      <point x="108" y="417"/>
      <point x="188" y="505"/>
      <point x="353" y="505" type="curve" smooth="yes"/>
      <point x="509" y="505" type="line"/>
      <point x="509" y="-14" type="line"/>
      <point x="372" y="-179" type="line"/>
    </contour>
  </outline>
</glyph>
<glyph name="ai-tamil" format="2">
  <advance width="814"/>
  <unicode hex="0B90"/>
  <note>
uni0B90
</note>
  <anchor x="406" y="0" name="bottom"/>
  <anchor x="404" y="-314" name="nukta"/>
  <anchor x="424" y="565" name="top"/>
  <anchor x="422" y="565" name="vedic"/>
  <outline>
    <contour>
      <point x="238" y="-314" type="curve" smooth="yes"/>
      <point x="334" y="-314"/>
      <point x="398" y="-266"/>
      <point x="420" y="-191" type="curve"/>
      <point x="438" y="-262"/>
      <point x="494" y="-314"/>
      <point x="585" y="-314" type="curve" smooth="yes"/>
      <point x="692" y="-314"/>
      <point x="771" y="-250"/>
      <point x="771" y="-110" type="curve" smooth="yes"/>
      <point x="771" y="-43"/>
      <point x="749" y="12"/>
      <point x="717" y="70" type="curve"/>
      <point x="661" y="39" type="line"/>
      <point x="688" y="-10"/>
      <point x="707" y="-57"/>
      <point x="707" y="-105" type="curve" smooth="yes"/>
      <point x="707" y="-203"/>
      <point x="659" y="-247"/>
      <point x="587" y="-247" type="curve" smooth="yes"/>
      <point x="518" y="-247"/>
      <point x="476" y="-190"/>
      <point x="476" y="-95" type="curve" smooth="yes"/>
      <point x="476" y="-32" type="line"/>
      <point x="362" y="-32" type="line"/>
      <point x="362" y="-108" type="line" smooth="yes"/>
      <point x="362" y="-200"/>
      <point x="328" y="-249"/>
      <point x="266" y="-249" type="curve" smooth="yes"/>
      <point x="206" y="-249"/>
      <point x="175" y="-203"/>
      <point x="175" y="-121" type="curve" smooth="yes"/>
      <point x="175" y="18"/>
      <point x="237" y="56"/>
      <point x="434" y="77" type="curve" smooth="yes"/>
      <point x="637" y="99"/>
      <point x="770" y="149"/>
      <point x="770" y="348" type="curve" smooth="yes"/>
      <point x="770" y="502"/>
      <point x="692" y="570"/>
      <point x="582" y="570" type="curve" smooth="yes"/>
      <point x="509" y="570"/>
      <point x="444" y="537"/>
      <point x="420" y="458" type="curve"/>
      <point x="394" y="535"/>
      <point x="331" y="570"/>
      <point x="247" y="570" type="curve" smooth="yes"/>
      <point x="128" y="570"/>
      <point x="48" y="481"/>
      <point x="48" y="348" type="curve" smooth="yes"/>
      <point x="48" y="235"/>
      <point x="106" y="154"/>
      <point x="191" y="154" type="curve" smooth="yes"/>
      <point x="259" y="154"/>
      <point x="311" y="201"/>
      <point x="311" y="281" type="curve" smooth="yes"/>
      <point x="311" y="362"/>
      <point x="270" y="411"/>
      <point x="209" y="411" type="curve" smooth="yes"/>
      <point x="148" y="411"/>
      <point x="101" y="369"/>
      <point x="94" y="245" type="curve"/>
      <point x="121" y="219" type="line"/>
      <point x="125" y="316"/>
      <point x="152" y="342"/>
      <point x="179" y="342" type="curve" smooth="yes"/>
      <point x="205" y="342"/>
      <point x="218" y="318"/>
      <point x="218" y="281" type="curve" smooth="yes"/>
      <point x="218" y="243"/>
      <point x="203" y="218"/>
      <point x="175" y="218" type="curve" smooth="yes"/>
      <point x="138" y="218"/>
      <point x="111" y="257"/>
      <point x="111" y="345" type="curve" smooth="yes"/>
      <point x="111" y="449"/>
      <point x="168" y="507"/>
      <point x="242" y="507" type="curve" smooth="yes"/>
      <point x="317" y="507"/>
      <point x="362" y="466"/>
      <point x="362" y="368" type="curve" smooth="yes"/>
      <point x="362" y="211" type="line"/>
      <point x="476" y="211" type="line"/>
      <point x="476" y="387" type="line" smooth="yes"/>
      <point x="476" y="463"/>
      <point x="505" y="506"/>
      <point x="556" y="506" type="curve" smooth="yes"/>
      <point x="610" y="506"/>
      <point x="638" y="453"/>
      <point x="638" y="360" type="curve" smooth="yes"/>
      <point x="638" y="198"/>
      <point x="578" y="144"/>
      <point x="354" y="119" type="curve" smooth="yes"/>
      <point x="199" y="102"/>
      <point x="43" y="60"/>
      <point x="43" y="-114" type="curve" smooth="yes"/>
      <point x="43" y="-242"/>
      <point x="119" y="-314"/>
    </contour>
  </outline>
</glyph>
<glyph name="o-tamil" format="2">
  <advance width="862"/>
  <unicode hex="0B92"/>
  <note>
uni0B92
</note>
  <anchor x="433" y="0" name="bottom"/>
  <anchor x="431" y="-335" name="nukta"/>
  <anchor x="426" y="565" name="top"/>
  <anchor x="426" y="565" name="vedic"/>
  <outline>
    <contour>
      <point x="313" y="-310" type="curve" smooth="yes"/>
      <point x="490" y="-310"/>
      <point x="528" y="-132"/>
      <point x="658" y="-132" type="curve" smooth="yes"/>
      <point x="705" y="-132" type="line"/>
      <point x="705" y="-72" type="line"/>
      <point x="641" y="-72" type="line" smooth="yes"/>
      <point x="545" y="-72"/>
      <point x="483" y="-19"/>
      <point x="483" y="74" type="curve" smooth="yes"/>
      <point x="483" y="111"/>
      <point x="493" y="155"/>
      <point x="515" y="204" type="curve"/>
      <point x="521" y="201" type="line"/>
      <point x="517" y="180"/>
      <point x="515" y="159"/>
      <point x="515" y="140" type="curve" smooth="yes"/>
      <point x="515" y="56"/>
      <point x="555" y="-4"/>
      <point x="653" y="-4" type="curve" smooth="yes"/>
      <point x="746" y="-4"/>
      <point x="819" y="66"/>
      <point x="819" y="196" type="curve" smooth="yes"/>
      <point x="819" y="436"/>
      <point x="638" y="570"/>
      <point x="406" y="570" type="curve" smooth="yes"/>
      <point x="188" y="570"/>
      <point x="43" y="418"/>
      <point x="43" y="245" type="curve" smooth="yes"/>
      <point x="43" y="89"/>
      <point x="117" y="-5"/>
      <point x="231" y="-5" type="curve" smooth="yes"/>
      <point x="331" y="-5"/>
      <point x="396" y="60"/>
      <point x="396" y="164" type="curve" smooth="yes"/>
      <point x="396" y="256"/>
      <point x="345" y="323"/>
      <point x="259" y="323" type="curve" smooth="yes"/>
      <point x="160" y="323"/>
      <point x="108" y="228"/>
      <point x="105" y="117" type="curve"/>
      <point x="142" y="91" type="line"/>
      <point x="144" y="174"/>
      <point x="169" y="235"/>
      <point x="213" y="235" type="curve" smooth="yes"/>
      <point x="248" y="235"/>
      <point x="267" y="198"/>
      <point x="267" y="153" type="curve" smooth="yes"/>
      <point x="267" y="99"/>
      <point x="249" y="63"/>
      <point x="205" y="63" type="curve" smooth="yes"/>
      <point x="151" y="63"/>
      <point x="107" y="126"/>
      <point x="107" y="244" type="curve" smooth="yes"/>
      <point x="107" y="395"/>
      <point x="241" y="508"/>
      <point x="393" y="508" type="curve" smooth="yes"/>
      <point x="566" y="508"/>
      <point x="685" y="402"/>
      <point x="685" y="211" type="curve" smooth="yes"/>
      <point x="685" y="116"/>
      <point x="656" y="68"/>
      <point x="614" y="68" type="curve" smooth="yes"/>
      <point x="581" y="68"/>
      <point x="563" y="100"/>
      <point x="563" y="151" type="curve" smooth="yes"/>
      <point x="563" y="181"/>
      <point x="570" y="219"/>
      <point x="583" y="260" type="curve"/>
      <point x="507" y="294" type="line"/>
      <point x="452" y="200"/>
      <point x="429" y="124"/>
      <point x="429" y="65" type="curve" smooth="yes"/>
      <point x="429" y="-17"/>
      <point x="473" y="-69"/>
      <point x="538" y="-96" type="curve"/>
      <point x="538" y="-101" type="line"/>
      <point x="421" y="-126"/>
      <point x="388" y="-239"/>
      <point x="289" y="-239" type="curve" smooth="yes"/>
      <point x="245" y="-239"/>
      <point x="213" y="-215"/>
      <point x="213" y="-169" type="curve" smooth="yes"/>
      <point x="213" y="-137"/>
      <point x="229" y="-115"/>
      <point x="255" y="-87" type="curve"/>
      <point x="214" y="-48" type="line"/>
      <point x="176" y="-87"/>
      <point x="153" y="-120"/>
      <point x="153" y="-168" type="curve" smooth="yes"/>
      <point x="153" y="-255"/>
      <point x="215" y="-310"/>
    </contour>
  </outline>
</glyph>
<glyph name="oo-tamil" format="2">
  <advance width="862"/>
  <unicode hex="0B93"/>
  <note>
uni0B93
</note>
  <anchor x="426" y="0" name="bottom"/>
  <anchor x="424" y="-290" name="nukta"/>
  <anchor x="419" y="565" name="top"/>
  <anchor x="419" y="565" name="vedic"/>
  <outline>
    <contour>
      <point x="292" y="-321" type="curve" smooth="yes"/>
      <point x="476" y="-321"/>
      <point x="528" y="-132"/>
      <point x="658" y="-132" type="curve" smooth="yes"/>
      <point x="702" y="-132" type="line"/>
      <point x="702" y="-72" type="line"/>
      <point x="641" y="-72" type="line" smooth="yes"/>
      <point x="545" y="-72"/>
      <point x="483" y="-19"/>
      <point x="483" y="74" type="curve" smooth="yes"/>
      <point x="483" y="111"/>
      <point x="493" y="155"/>
      <point x="515" y="204" type="curve"/>
      <point x="521" y="201" type="line"/>
      <point x="517" y="180"/>
      <point x="515" y="159"/>
      <point x="515" y="140" type="curve" smooth="yes"/>
      <point x="515" y="56"/>
      <point x="555" y="-4"/>
      <point x="653" y="-4" type="curve" smooth="yes"/>
      <point x="746" y="-4"/>
      <point x="819" y="66"/>
      <point x="819" y="196" type="curve" smooth="yes"/>
      <point x="819" y="436"/>
      <point x="638" y="570"/>
      <point x="406" y="570" type="curve" smooth="yes"/>
      <point x="188" y="570"/>
      <point x="43" y="418"/>
      <point x="43" y="245" type="curve" smooth="yes"/>
      <point x="43" y="89"/>
      <point x="117" y="-5"/>
      <point x="231" y="-5" type="curve" smooth="yes"/>
      <point x="331" y="-5"/>
      <point x="396" y="60"/>
      <point x="396" y="164" type="curve" smooth="yes"/>
      <point x="396" y="256"/>
      <point x="345" y="323"/>
      <point x="259" y="323" type="curve" smooth="yes"/>
      <point x="160" y="323"/>
      <point x="108" y="228"/>
      <point x="105" y="117" type="curve"/>
      <point x="142" y="91" type="line"/>
      <point x="144" y="174"/>
      <point x="169" y="235"/>
      <point x="213" y="235" type="curve" smooth="yes"/>
      <point x="248" y="235"/>
      <point x="267" y="198"/>
      <point x="267" y="153" type="curve" smooth="yes"/>
      <point x="267" y="99"/>
      <point x="249" y="63"/>
      <point x="205" y="63" type="curve" smooth="yes"/>
      <point x="151" y="63"/>
      <point x="107" y="126"/>
      <point x="107" y="244" type="curve" smooth="yes"/>
      <point x="107" y="395"/>
      <point x="241" y="508"/>
      <point x="393" y="508" type="curve" smooth="yes"/>
      <point x="566" y="508"/>
      <point x="685" y="402"/>
      <point x="685" y="211" type="curve" smooth="yes"/>
      <point x="685" y="116"/>
      <point x="656" y="68"/>
      <point x="614" y="68" type="curve" smooth="yes"/>
      <point x="581" y="68"/>
      <point x="563" y="100"/>
      <point x="563" y="151" type="curve" smooth="yes"/>
      <point x="563" y="181"/>
      <point x="570" y="219"/>
      <point x="583" y="260" type="curve"/>
      <point x="507" y="294" type="line"/>
      <point x="452" y="200"/>
      <point x="429" y="124"/>
      <point x="429" y="65" type="curve" smooth="yes"/>
      <point x="429" y="-17"/>
      <point x="473" y="-69"/>
      <point x="538" y="-96" type="curve"/>
      <point x="538" y="-101" type="line"/>
      <point x="421" y="-126"/>
      <point x="375" y="-253"/>
      <point x="266" y="-253" type="curve" smooth="yes"/>
      <point x="212" y="-253"/>
      <point x="183" y="-229"/>
      <point x="183" y="-185" type="curve" smooth="yes"/>
      <point x="183" y="-151"/>
      <point x="207" y="-125"/>
      <point x="237" y="-125" type="curve" smooth="yes"/>
      <point x="270" y="-125"/>
      <point x="292" y="-143"/>
      <point x="304" y="-183" type="curve"/>
      <point x="334" y="-170"/>
      <point x="354" y="-147"/>
      <point x="354" y="-118" type="curve" smooth="yes"/>
      <point x="354" y="-76"/>
      <point x="312" y="-49"/>
      <point x="258" y="-49" type="curve" smooth="yes"/>
      <point x="180" y="-49"/>
      <point x="125" y="-108"/>
      <point x="125" y="-181" type="curve" smooth="yes"/>
      <point x="125" y="-264"/>
      <point x="194" y="-321"/>
    </contour>
  </outline>
</glyph>
<glyph name="au-tamil" format="2">
  <advance width="1901"/>
  <unicode hex="0B94"/>
  <note>
uni0B94
</note>
  <anchor x="982" y="0" name="bottom"/>
  <anchor x="1087" y="0" name="nukta"/>
  <anchor x="976" y="565" name="top"/>
  <anchor x="976" y="565" name="vedic"/>
  <outline>
    <contour>
      <point x="1074" y="-5" type="curve" smooth="yes"/>
      <point x="1173" y="-5"/>
      <point x="1239" y="60"/>
      <point x="1239" y="164" type="curve" smooth="yes"/>
      <point x="1239" y="256"/>
      <point x="1188" y="323"/>
      <point x="1102" y="323" type="curve" smooth="yes"/>
      <point x="1003" y="323"/>
      <point x="951" y="228"/>
      <point x="948" y="117" type="curve"/>
      <point x="984" y="91" type="line"/>
      <point x="986" y="174"/>
      <point x="1012" y="235"/>
      <point x="1056" y="235" type="curve" smooth="yes"/>
      <point x="1090" y="235"/>
      <point x="1109" y="198"/>
      <point x="1109" y="153" type="curve" smooth="yes"/>
      <point x="1109" y="99"/>
      <point x="1091" y="63"/>
      <point x="1048" y="63" type="curve" smooth="yes"/>
      <point x="994" y="63"/>
      <point x="950" y="133"/>
      <point x="950" y="255" type="curve" smooth="yes"/>
      <point x="950" y="415"/>
      <point x="1032" y="503"/>
      <point x="1151" y="503" type="curve" smooth="yes"/>
      <point x="1271" y="503"/>
      <point x="1350" y="425"/>
      <point x="1350" y="283" type="curve"/>
      <point x="1412" y="293" type="line"/>
      <point x="1401" y="490"/>
      <point x="1280" y="570"/>
      <point x="1148" y="570" type="curve" smooth="yes"/>
      <point x="989" y="570"/>
      <point x="886" y="451"/>
      <point x="886" y="257" type="curve" smooth="yes"/>
      <point x="886" y="96"/>
      <point x="959" y="-5"/>
    </contour>
    <contour>
      <point x="1350" y="0" type="line"/>
      <point x="1494" y="0" type="line"/>
      <point x="1494" y="505" type="line"/>
      <point x="1636" y="505" type="line"/>
      <point x="1636" y="0" type="line"/>
      <point x="1779" y="0" type="line"/>
      <point x="1779" y="505" type="line"/>
      <point x="1883" y="505" type="line"/>
      <point x="1883" y="565" type="line"/>
      <point x="1384" y="565" type="line"/>
      <point x="1384" y="359" type="line"/>
      <point x="1350" y="367" type="line"/>
    </contour>
    <component base="o-tamil"/>
  </outline>
</glyph>
<glyph name="ka-tamil" format="2">
  <advance width="715"/>
  <unicode hex="0B95"/>
  <note>
uni0B95
</note>
  <anchor x="356" y="0" name="bottom"/>
  <anchor x="499" y="565" name="imatra"/>
  <anchor x="356" y="0" name="nukta"/>
  <anchor x="380" y="565" name="top"/>
  <anchor x="374" y="565" name="vedic"/>
  <outline>
    <contour>
      <point x="231" y="-4" type="curve" smooth="yes"/>
      <point x="364" y="-4"/>
      <point x="445" y="66"/>
      <point x="445" y="202" type="curve" smooth="yes"/>
      <point x="445" y="268" type="line"/>
      <point x="465" y="268" type="line" smooth="yes"/>
      <point x="511" y="268"/>
      <point x="534" y="231"/>
      <point x="534" y="159" type="curve" smooth="yes"/>
      <point x="534" y="96"/>
      <point x="506" y="57"/>
      <point x="466" y="57" type="curve" smooth="yes"/>
      <point x="449" y="57" type="line"/>
      <point x="449" y="-3" type="line"/>
      <point x="504" y="-3" type="line" smooth="yes"/>
      <point x="596" y="-3"/>
      <point x="674" y="47"/>
      <point x="674" y="159" type="curve" smooth="yes"/>
      <point x="674" y="275"/>
      <point x="596" y="329"/>
      <point x="474" y="329" type="curve" smooth="yes"/>
      <point x="445" y="329" type="line"/>
      <point x="445" y="504" type="line"/>
      <point x="565" y="504" type="line"/>
      <point x="565" y="565" type="line"/>
      <point x="135" y="565" type="line"/>
      <point x="135" y="294" type="line"/>
      <point x="200" y="294" type="line"/>
      <point x="200" y="504" type="line"/>
      <point x="299" y="504" type="line"/>
      <point x="299" y="329" type="line"/>
      <point x="189" y="329" type="line" smooth="yes"/>
      <point x="111" y="329"/>
      <point x="43" y="266"/>
      <point x="43" y="170" type="curve" smooth="yes"/>
      <point x="43" y="68"/>
      <point x="105" y="-4"/>
    </contour>
    <contour>
      <point x="200" y="64" type="curve" smooth="yes"/>
      <point x="147" y="64"/>
      <point x="109" y="101"/>
      <point x="109" y="168" type="curve" smooth="yes"/>
      <point x="109" y="228"/>
      <point x="134" y="268"/>
      <point x="193" y="268" type="curve" smooth="yes"/>
      <point x="299" y="268" type="line"/>
      <point x="299" y="190" type="line" smooth="yes"/>
      <point x="299" y="99"/>
      <point x="258" y="64"/>
    </contour>
  </outline>
</glyph>
<glyph name="ja-tamil" format="2">
  <advance width="814"/>
  <unicode hex="0B9C"/>
  <note>
uni0B9C
</note>
  <anchor x="406" y="0" name="bottom"/>
  <anchor x="404" y="-314" name="nukta"/>
  <anchor x="414" y="565" name="top"/>
  <anchor x="408" y="565" name="vedic"/>
  <outline>
    <contour>
      <point x="219" y="-314" type="curve" smooth="yes"/>
      <point x="417" y="-314"/>
      <point x="431" y="-25"/>
      <point x="559" y="-25" type="curve" smooth="yes"/>
      <point x="613" y="-25"/>
      <point x="640" y="-67"/>
      <point x="640" y="-132" type="curve" smooth="yes"/>
      <point x="640" y="-203"/>
      <point x="608" y="-247"/>
      <point x="551" y="-247" type="curve" smooth="yes"/>
      <point x="528" y="-247"/>
      <point x="505" y="-239"/>
      <point x="479" y="-223" type="curve"/>
      <point x="453" y="-272" type="line"/>
      <point x="491" y="-300"/>
      <point x="532" y="-314"/>
      <point x="587" y="-314" type="curve" smooth="yes"/>
      <point x="689" y="-314"/>
      <point x="770" y="-253"/>
      <point x="770" y="-135" type="curve" smooth="yes"/>
      <point x="770" y="-16"/>
      <point x="706" y="44"/>
      <point x="605" y="44" type="curve" smooth="yes"/>
      <point x="390" y="44"/>
      <point x="374" y="-243"/>
      <point x="256" y="-243" type="curve" smooth="yes"/>
      <point x="204" y="-243"/>
      <point x="175" y="-205"/>
      <point x="175" y="-115" type="curve" smooth="yes"/>
      <point x="175" y="30"/>
      <point x="244" y="58"/>
      <point x="436" y="82" type="curve" smooth="yes"/>
      <point x="631" y="106"/>
      <point x="771" y="148"/>
      <point x="771" y="348" type="curve" smooth="yes"/>
      <point x="771" y="501"/>
      <point x="693" y="570"/>
      <point x="583" y="570" type="curve" smooth="yes"/>
      <point x="512" y="570"/>
      <point x="445" y="536"/>
      <point x="422" y="457" type="curve"/>
      <point x="395" y="534"/>
      <point x="335" y="570"/>
      <point x="250" y="570" type="curve" smooth="yes"/>
      <point x="131" y="570"/>
      <point x="49" y="481"/>
      <point x="49" y="348" type="curve" smooth="yes"/>
      <point x="49" y="235"/>
      <point x="107" y="154"/>
      <point x="192" y="154" type="curve" smooth="yes"/>
      <point x="260" y="154"/>
      <point x="312" y="201"/>
      <point x="312" y="281" type="curve" smooth="yes"/>
      <point x="312" y="362"/>
      <point x="271" y="411"/>
      <point x="210" y="411" type="curve" smooth="yes"/>
      <point x="150" y="411"/>
      <point x="102" y="369"/>
      <point x="95" y="245" type="curve"/>
      <point x="123" y="219" type="line"/>
      <point x="126" y="316"/>
      <point x="153" y="342"/>
      <point x="180" y="342" type="curve" smooth="yes"/>
      <point x="206" y="342"/>
      <point x="219" y="318"/>
      <point x="219" y="281" type="curve" smooth="yes"/>
      <point x="219" y="243"/>
      <point x="204" y="218"/>
      <point x="176" y="218" type="curve" smooth="yes"/>
      <point x="139" y="218"/>
      <point x="112" y="257"/>
      <point x="112" y="345" type="curve" smooth="yes"/>
      <point x="112" y="449"/>
      <point x="170" y="507"/>
      <point x="245" y="507" type="curve" smooth="yes"/>
      <point x="320" y="507"/>
      <point x="363" y="463"/>
      <point x="363" y="369" type="curve" smooth="yes"/>
      <point x="363" y="211" type="line"/>
      <point x="477" y="211" type="line"/>
      <point x="477" y="388" type="line" smooth="yes"/>
      <point x="477" y="461"/>
      <point x="507" y="506"/>
      <point x="558" y="506" type="curve" smooth="yes"/>
      <point x="611" y="506"/>
      <point x="639" y="453"/>
      <point x="639" y="360" type="curve" smooth="yes"/>
      <point x="639" y="198"/>
      <point x="583" y="150"/>
      <point x="356" y="122" type="curve" smooth="yes"/>
      <point x="209" y="104"/>
      <point x="43" y="63"/>
      <point x="43" y="-115" type="curve" smooth="yes"/>
      <point x="43" y="-248"/>
      <point x="109" y="-314"/>
    </contour>
  </outline>
</glyph>
<glyph name="nya-tamil" format="2">
  <advance width="1121"/>
  <unicode hex="0B9E"/>
  <note>
uni0B9E
</note>
  <anchor x="569" y="0" name="bottom"/>
  <anchor x="845" y="565" name="imatra"/>
  <anchor x="568" y="-321" name="nukta"/>
  <anchor x="593" y="565" name="top"/>
  <anchor x="565" y="565" name="vedic"/>
  <outline>
    <contour>
      <point x="568" y="-321" type="curve" smooth="yes"/>
      <point x="833" y="-321"/>
      <point x="1077" y="-174"/>
      <point x="1077" y="118" type="curve" smooth="yes"/>
      <point x="1077" y="276"/>
      <point x="1012" y="346"/>
      <point x="928" y="346" type="curve" smooth="yes"/>
      <point x="846" y="346"/>
      <point x="796" y="271"/>
      <point x="796" y="173" type="curve" smooth="yes"/>
      <point x="796" y="135" type="line"/>
      <point x="818" y="135" type="line"/>
      <point x="818" y="171" type="line" smooth="yes"/>
      <point x="818" y="222"/>
      <point x="842" y="259"/>
      <point x="877" y="259" type="curve" smooth="yes"/>
      <point x="920" y="259"/>
      <point x="944" y="216"/>
      <point x="944" y="119" type="curve" smooth="yes"/>
      <point x="944" y="-142"/>
      <point x="765" y="-257"/>
      <point x="563" y="-257" type="curve" smooth="yes"/>
      <point x="336" y="-257"/>
      <point x="112" y="-91"/>
      <point x="112" y="228" type="curve" smooth="yes"/>
      <point x="112" y="400"/>
      <point x="154" y="511"/>
      <point x="247" y="627" type="curve"/>
      <point x="197" y="667" type="line"/>
      <point x="93" y="539"/>
      <point x="47" y="407"/>
      <point x="47" y="225" type="curve" smooth="yes"/>
      <point x="47" y="-102"/>
      <point x="283" y="-321"/>
    </contour>
    <component base="e-tamil" xOffset="167"/>
  </outline>
</glyph>
<glyph name="tta-tamil" format="2">
  <advance width="743"/>
  <unicode hex="0B9F"/>
  <note>
uni0B9F
</note>
  <anchor x="381" y="0" name="bottom"/>
  <anchor x="381" y="0" name="nukta"/>
  <anchor x="390" y="565" name="top"/>
  <anchor x="396" y="565" name="vedic"/>
  <outline>
    <contour>
      <point x="64" y="0" type="line"/>
      <point x="730" y="0" type="line"/>
      <point x="730" y="61" type="line"/>
      <point x="208" y="61" type="line"/>
      <point x="208" y="565" type="line"/>
      <point x="64" y="565" type="line"/>
    </contour>
  </outline>
</glyph>
<glyph name="nna-tamil" format="2">
  <advance width="1477"/>
  <unicode hex="0BA3"/>
  <note>
uni0BA3
</note>
  <anchor x="769" y="0" name="bottom"/>
  <anchor x="1369" y="565" name="imatra"/>
  <anchor x="768" y="0" name="nukta"/>
  <anchor x="759" y="565" name="top"/>
  <anchor x="757" y="565" name="vedic"/>
  <outline>
    <contour>
      <point x="593" y="-4" type="curve" smooth="yes"/>
      <point x="693" y="-4"/>
      <point x="756" y="67"/>
      <point x="756" y="190" type="curve" smooth="yes"/>
      <point x="756" y="410"/>
      <point x="605" y="570"/>
      <point x="365" y="570" type="curve" smooth="yes"/>
      <point x="173" y="570"/>
      <point x="43" y="447"/>
      <point x="43" y="257" type="curve" smooth="yes"/>
      <point x="43" y="96"/>
      <point x="116" y="-5"/>
      <point x="231" y="-5" type="curve" smooth="yes"/>
      <point x="330" y="-5"/>
      <point x="396" y="60"/>
      <point x="396" y="164" type="curve" smooth="yes"/>
      <point x="396" y="256"/>
      <point x="345" y="323"/>
      <point x="258" y="323" type="curve" smooth="yes"/>
      <point x="160" y="323"/>
      <point x="108" y="228"/>
      <point x="105" y="117" type="curve"/>
      <point x="142" y="91" type="line"/>
      <point x="144" y="174"/>
      <point x="169" y="235"/>
      <point x="212" y="235" type="curve" smooth="yes"/>
      <point x="248" y="235"/>
      <point x="266" y="198"/>
      <point x="266" y="153" type="curve" smooth="yes"/>
      <point x="266" y="99"/>
      <point x="248" y="63"/>
      <point x="205" y="63" type="curve" smooth="yes"/>
      <point x="150" y="63"/>
      <point x="107" y="133"/>
      <point x="107" y="255" type="curve" smooth="yes"/>
      <point x="107" y="417"/>
      <point x="222" y="507"/>
      <point x="350" y="507" type="curve" smooth="yes"/>
      <point x="525" y="507"/>
      <point x="627" y="376"/>
      <point x="627" y="182" type="curve" smooth="yes"/>
      <point x="627" y="103"/>
      <point x="607" y="64"/>
      <point x="568" y="64" type="curve" smooth="yes"/>
      <point x="533" y="64"/>
      <point x="510" y="103"/>
      <point x="510" y="184" type="curve" smooth="yes"/>
      <point x="510" y="353"/>
      <point x="585" y="507"/>
      <point x="754" y="507" type="curve" smooth="yes"/>
      <point x="917" y="507"/>
      <point x="993" y="366"/>
      <point x="993" y="182" type="curve" smooth="yes"/>
      <point x="993" y="103"/>
      <point x="972" y="64"/>
      <point x="934" y="64" type="curve" smooth="yes"/>
      <point x="898" y="64"/>
      <point x="875" y="103"/>
      <point x="875" y="184" type="curve" smooth="yes"/>
      <point x="875" y="366"/>
      <point x="976" y="505"/>
      <point x="1159" y="505" type="curve" smooth="yes"/>
      <point x="1459" y="505" type="line"/>
      <point x="1459" y="565" type="line"/>
      <point x="1153" y="565" type="line" smooth="yes"/>
      <point x="925" y="565"/>
      <point x="812" y="396"/>
      <point x="812" y="189" type="curve" smooth="yes"/>
      <point x="812" y="68"/>
      <point x="857" y="-4"/>
      <point x="958" y="-4" type="curve" smooth="yes"/>
      <point x="1058" y="-4"/>
      <point x="1122" y="67"/>
      <point x="1122" y="190" type="curve" smooth="yes"/>
      <point x="1122" y="403"/>
      <point x="994" y="570"/>
      <point x="770" y="570" type="curve" smooth="yes"/>
      <point x="557" y="570"/>
      <point x="446" y="383"/>
      <point x="446" y="189" type="curve" smooth="yes"/>
      <point x="446" y="68"/>
      <point x="492" y="-4"/>
    </contour>
    <contour>
      <point x="1212" y="0" type="line"/>
      <point x="1355" y="0" type="line"/>
      <point x="1355" y="536" type="line"/>
      <point x="1212" y="536" type="line"/>
    </contour>
  </outline>
</glyph>
<glyph name="na-tamil" format="2">
  <advance width="682"/>
  <unicode hex="0BA8"/>
  <note>
uni0BA8
</note>
  <anchor x="323" y="0" name="bottom"/>
  <anchor x="445" y="565" name="imatra"/>
  <anchor x="365" y="-201" name="nukta"/>
  <anchor x="324" y="565" name="top"/>
  <anchor x="343" y="565" name="vedic"/>
  <outline>
    <contour>
      <point x="164" y="-272" type="curve"/>
      <point x="164" y="-186"/>
      <point x="183" y="-134"/>
      <point x="277" y="-134" type="curve" smooth="yes"/>
      <point x="382" y="-134" type="line" smooth="yes"/>
      <point x="526" y="-134"/>
      <point x="638" y="-57"/>
      <point x="638" y="143" type="curve" smooth="yes"/>
      <point x="638" y="279"/>
      <point x="576" y="350"/>
      <point x="491" y="350" type="curve" smooth="yes"/>
      <point x="432" y="350"/>
      <point x="399" y="316"/>
      <point x="377" y="282" type="curve"/>
      <point x="377" y="505" type="line"/>
      <point x="527" y="505" type="line"/>
      <point x="527" y="565" type="line"/>
      <point x="64" y="565" type="line"/>
      <point x="64" y="0" type="line"/>
      <point x="129" y="0" type="line"/>
      <point x="129" y="505" type="line"/>
      <point x="233" y="505" type="line"/>
      <point x="233" y="0" type="line"/>
      <point x="377" y="0" type="line"/>
      <point x="377" y="185" type="line" smooth="yes"/>
      <point x="377" y="231"/>
      <point x="399" y="261"/>
      <point x="435" y="261" type="curve" smooth="yes"/>
      <point x="479" y="261"/>
      <point x="504" y="220"/>
      <point x="504" y="131" type="curve" smooth="yes"/>
      <point x="504" y="-19"/>
      <point x="449" y="-82"/>
      <point x="332" y="-82" type="curve" smooth="yes"/>
      <point x="229" y="-82" type="line" smooth="yes"/>
      <point x="135" y="-82"/>
      <point x="53" y="-100"/>
      <point x="53" y="-185" type="curve" smooth="yes"/>
      <point x="53" y="-244"/>
      <point x="97" y="-272"/>
    </contour>
  </outline>
</glyph>
<glyph name="nnna-tamil" format="2">
  <advance width="1119"/>
  <unicode hex="0BA9"/>
  <note>
uni0BA9
</note>
  <anchor x="544" y="0" name="bottom"/>
  <anchor x="982" y="565" name="imatra"/>
  <anchor x="546" y="0" name="nukta"/>
  <anchor x="584" y="565" name="top"/>
  <anchor x="576" y="565" name="vedic"/>
  <outline>
    <contour>
      <point x="231" y="-5" type="curve" smooth="yes"/>
      <point x="330" y="-5"/>
      <point x="396" y="60"/>
      <point x="396" y="164" type="curve" smooth="yes"/>
      <point x="396" y="256"/>
      <point x="345" y="323"/>
      <point x="258" y="323" type="curve" smooth="yes"/>
      <point x="160" y="323"/>
      <point x="108" y="228"/>
      <point x="105" y="117" type="curve"/>
      <point x="142" y="91" type="line"/>
      <point x="144" y="174"/>
      <point x="169" y="235"/>
      <point x="212" y="235" type="curve" smooth="yes"/>
      <point x="248" y="235"/>
      <point x="266" y="198"/>
      <point x="266" y="153" type="curve" smooth="yes"/>
      <point x="266" y="99"/>
      <point x="248" y="63"/>
      <point x="205" y="63" type="curve" smooth="yes"/>
      <point x="150" y="63"/>
      <point x="107" y="133"/>
      <point x="107" y="255" type="curve" smooth="yes"/>
      <point x="107" y="417"/>
      <point x="222" y="507"/>
      <point x="350" y="507" type="curve" smooth="yes"/>
      <point x="525" y="507"/>
      <point x="627" y="376"/>
      <point x="627" y="182" type="curve" smooth="yes"/>
      <point x="627" y="103"/>
      <point x="606" y="64"/>
      <point x="567" y="64" type="curve" smooth="yes"/>
      <point x="532" y="64"/>
      <point x="510" y="103"/>
      <point x="510" y="184" type="curve" smooth="yes"/>
      <point x="510" y="366"/>
      <point x="608" y="505"/>
      <point x="792" y="505" type="curve" smooth="yes"/>
      <point x="1101" y="505" type="line"/>
      <point x="1101" y="565" type="line"/>
      <point x="788" y="565" type="line" smooth="yes"/>
      <point x="559" y="565"/>
      <point x="446" y="396"/>
      <point x="446" y="189" type="curve" smooth="yes"/>
      <point x="446" y="68"/>
      <point x="491" y="-4"/>
      <point x="592" y="-4" type="curve" smooth="yes"/>
      <point x="691" y="-4"/>
      <point x="756" y="67"/>
      <point x="756" y="190" type="curve" smooth="yes"/>
      <point x="756" y="413"/>
      <point x="605" y="570"/>
      <point x="365" y="570" type="curve" smooth="yes"/>
      <point x="173" y="570"/>
      <point x="43" y="447"/>
      <point x="43" y="257" type="curve" smooth="yes"/>
      <point x="43" y="96"/>
      <point x="116" y="-5"/>
    </contour>
    <contour>
      <point x="854" y="0" type="line"/>
      <point x="997" y="0" type="line"/>
      <point x="997" y="536" type="line"/>
      <point x="854" y="536" type="line"/>
    </contour>
  </outline>
</glyph>
<glyph name="ya-tamil" format="2">
  <advance width="828"/>
  <unicode hex="0BAF"/>
  <note>
uni0BAF
</note>
  <anchor x="404" y="0" name="bottom"/>
  <anchor x="760" y="565" name="imatra"/>
  <anchor x="403" y="0" name="nukta"/>
  <anchor x="422" y="565" name="top"/>
  <anchor x="416" y="565" name="vedic"/>
  <outline>
    <contour>
      <point x="195" y="-8" type="curve" smooth="yes"/>
      <point x="254" y="-8"/>
      <point x="290" y="23"/>
      <point x="314" y="60" type="curve"/>
      <point x="314" y="0" type="line"/>
      <point x="765" y="0" type="line"/>
      <point x="765" y="565" type="line"/>
      <point x="621" y="565" type="line"/>
      <point x="621" y="61" type="line"/>
      <point x="439" y="61" type="line"/>
      <point x="439" y="565" type="line"/>
      <point x="300" y="565" type="line"/>
      <point x="300" y="143" type="line" smooth="yes"/>
      <point x="300" y="93"/>
      <point x="277" y="67"/>
      <point x="249" y="67" type="curve" smooth="yes"/>
      <point x="220" y="67"/>
      <point x="203" y="85"/>
      <point x="203" y="140" type="curve" smooth="yes"/>
      <point x="203" y="565" type="line"/>
      <point x="60" y="565" type="line"/>
      <point x="60" y="153" type="line" smooth="yes"/>
      <point x="60" y="43"/>
      <point x="116" y="-8"/>
    </contour>
  </outline>
</glyph>
<glyph name="la-tamil" format="2">
  <advance width="883"/>
  <unicode hex="0BB2"/>
  <note>
uni0BB2
</note>
  <anchor x="436" y="0" name="bottom"/>
  <anchor x="435" y="0" name="nukta"/>
  <anchor x="449" y="565" name="top"/>
  <anchor x="438" y="565" name="vedic"/>
  <outline>
    <contour>
      <point x="231" y="-5" type="curve" smooth="yes"/>
      <point x="331" y="-5"/>
      <point x="396" y="60"/>
      <point x="396" y="164" type="curve" smooth="yes"/>
      <point x="396" y="256"/>
      <point x="345" y="323"/>
      <point x="259" y="323" type="curve" smooth="yes"/>
      <point x="160" y="323"/>
      <point x="108" y="228"/>
      <point x="105" y="117" type="curve"/>
      <point x="142" y="91" type="line"/>
      <point x="144" y="174"/>
      <point x="169" y="235"/>
      <point x="213" y="235" type="curve" smooth="yes"/>
      <point x="248" y="235"/>
      <point x="267" y="198"/>
      <point x="267" y="153" type="curve" smooth="yes"/>
      <point x="267" y="99"/>
      <point x="249" y="63"/>
      <point x="205" y="63" type="curve" smooth="yes"/>
      <point x="151" y="63"/>
      <point x="107" y="133"/>
      <point x="107" y="255" type="curve" smooth="yes"/>
      <point x="107" y="413"/>
      <point x="182" y="504"/>
      <point x="297" y="504" type="curve" smooth="yes"/>
      <point x="421" y="504"/>
      <point x="467" y="423"/>
      <point x="468" y="301" type="curve" smooth="yes"/>
      <point x="468" y="168" type="line" smooth="yes"/>
      <point x="468" y="56"/>
      <point x="516" y="-2"/>
      <point x="624" y="-2" type="curve" smooth="yes"/>
      <point x="749" y="-2"/>
      <point x="837" y="104"/>
      <point x="837" y="292" type="curve" smooth="yes"/>
      <point x="837" y="398"/>
      <point x="809" y="476"/>
      <point x="753" y="570" type="curve"/>
      <point x="697" y="539" type="line"/>
      <point x="745" y="457"/>
      <point x="772" y="381"/>
      <point x="772" y="292" type="curve" smooth="yes"/>
      <point x="772" y="150"/>
      <point x="718" y="71"/>
      <point x="662" y="71" type="curve" smooth="yes"/>
      <point x="628" y="71"/>
      <point x="613" y="97"/>
      <point x="613" y="162" type="curve" smooth="yes"/>
      <point x="613" y="308" type="line" smooth="yes"/>
      <point x="613" y="475"/>
      <point x="515" y="570"/>
      <point x="333" y="570" type="curve" smooth="yes"/>
      <point x="142" y="570"/>
      <point x="43" y="445"/>
      <point x="43" y="257" type="curve" smooth="yes"/>
      <point x="43" y="96"/>
      <point x="117" y="-5"/>
    </contour>
  </outline>
</glyph>
<glyph name="lla-tamil" format="2">
  <advance width="1058"/>
  <unicode hex="0BB3"/>
  <note>
uni0BB3
</note>
  <anchor x="528" y="0" name="bottom"/>
  <anchor x="938" y="565" name="imatra"/>
  <anchor x="531" y="0" name="nukta"/>
  <anchor x="556" y="565" name="top"/>
  <anchor x="544" y="565" name="vedic"/>
  <outline>
    <contour>
      <point x="231" y="-5" type="curve" smooth="yes"/>
      <point x="331" y="-5"/>
      <point x="396" y="60"/>
      <point x="396" y="164" type="curve" smooth="yes"/>
      <point x="396" y="256"/>
      <point x="345" y="323"/>
      <point x="259" y="323" type="curve" smooth="yes"/>
      <point x="160" y="323"/>
      <point x="108" y="228"/>
      <point x="105" y="117" type="curve"/>
      <point x="142" y="91" type="line"/>
      <point x="144" y="174"/>
      <point x="169" y="235"/>
      <point x="213" y="235" type="curve" smooth="yes"/>
      <point x="248" y="235"/>
      <point x="267" y="198"/>
      <point x="267" y="153" type="curve" smooth="yes"/>
      <point x="267" y="99"/>
      <point x="249" y="63"/>
      <point x="205" y="63" type="curve" smooth="yes"/>
      <point x="151" y="63"/>
      <point x="107" y="133"/>
      <point x="107" y="255" type="curve" smooth="yes"/>
      <point x="107" y="415"/>
      <point x="190" y="503"/>
      <point x="309" y="503" type="curve" smooth="yes"/>
      <point x="428" y="503"/>
      <point x="507" y="425"/>
      <point x="507" y="283" type="curve"/>
      <point x="569" y="293" type="line"/>
      <point x="558" y="490"/>
      <point x="438" y="570"/>
      <point x="306" y="570" type="curve" smooth="yes"/>
      <point x="146" y="570"/>
      <point x="43" y="451"/>
      <point x="43" y="257" type="curve" smooth="yes"/>
      <point x="43" y="96"/>
      <point x="117" y="-5"/>
    </contour>
    <contour>
      <point x="508" y="0" type="line"/>
      <point x="651" y="0" type="line"/>
      <point x="651" y="505" type="line"/>
      <point x="793" y="505" type="line"/>
      <point x="793" y="0" type="line"/>
      <point x="936" y="0" type="line"/>
      <point x="936" y="505" type="line"/>
      <point x="1040" y="505" type="line"/>
      <point x="1040" y="565" type="line"/>
      <point x="542" y="565" type="line"/>
      <point x="542" y="359" type="line"/>
      <point x="508" y="367" type="line"/>
    </contour>
  </outline>
</glyph>
<glyph name="va-tamil" format="2">
  <advance width="938"/>
  <unicode hex="0BB5"/>
  <note>
uni0BB5
</note>
  <anchor x="495" y="0" name="bottom"/>
  <anchor x="737" y="565" name="imatra"/>
  <anchor x="489" y="0" name="nukta"/>
  <anchor x="471" y="565" name="top"/>
  <anchor x="469" y="565" name="vedic"/>
  <outline>
    <contour>
      <point x="231" y="-5" type="curve" smooth="yes"/>
      <point x="331" y="-5"/>
      <point x="396" y="60"/>
      <point x="396" y="164" type="curve" smooth="yes"/>
      <point x="396" y="256"/>
      <point x="345" y="323"/>
      <point x="259" y="323" type="curve" smooth="yes"/>
      <point x="160" y="323"/>
      <point x="108" y="228"/>
      <point x="105" y="117" type="curve"/>
      <point x="142" y="91" type="line"/>
      <point x="144" y="174"/>
      <point x="169" y="235"/>
      <point x="213" y="235" type="curve" smooth="yes"/>
      <point x="248" y="235"/>
      <point x="267" y="198"/>
      <point x="267" y="153" type="curve" smooth="yes"/>
      <point x="267" y="99"/>
      <point x="249" y="63"/>
      <point x="205" y="63" type="curve" smooth="yes"/>
      <point x="151" y="63"/>
      <point x="107" y="133"/>
      <point x="107" y="255" type="curve" smooth="yes"/>
      <point x="107" y="413"/>
      <point x="188" y="504"/>
      <point x="300" y="504" type="curve" smooth="yes"/>
      <point x="426" y="504"/>
      <point x="497" y="408"/>
      <point x="497" y="260" type="curve" smooth="yes"/>
      <point x="497" y="163"/>
      <point x="476" y="97"/>
      <point x="450" y="44" type="curve"/>
      <point x="470" y="0" type="line"/>
      <point x="875" y="0" type="line"/>
      <point x="875" y="565" type="line"/>
      <point x="731" y="565" type="line"/>
      <point x="731" y="61" type="line"/>
      <point x="548" y="61" type="line"/>
      <point x="597" y="116"/>
      <point x="636" y="183"/>
      <point x="636" y="278" type="curve" smooth="yes"/>
      <point x="636" y="468"/>
      <point x="506" y="570"/>
      <point x="338" y="570" type="curve" smooth="yes"/>
      <point x="151" y="570"/>
      <point x="43" y="444"/>
      <point x="43" y="257" type="curve" smooth="yes"/>
      <point x="43" y="96"/>
      <point x="117" y="-5"/>
    </contour>
  </outline>
</glyph>
<glyph name="sa-tamil" format="2">
  <advance width="1158"/>
  <unicode hex="0BB8"/>
  <note>
uni0BB8
</note>
  <anchor x="603" y="0" name="bottom"/>
  <anchor x="600" y="0" name="nukta"/>
  <anchor x="593" y="565" name="top"/>
  <anchor x="599" y="565" name="vedic"/>
  <outline>
    <contour>
      <point x="487" y="0" type="line"/>
      <point x="629" y="0" type="line"/>
      <point x="629" y="428" type="line" smooth="yes"/>
      <point x="629" y="482"/>
      <point x="652" y="506"/>
      <point x="688" y="506" type="curve" smooth="yes"/>
      <point x="722" y="506"/>
      <point x="744" y="482"/>
      <point x="744" y="437" type="curve" smooth="yes"/>
      <point x="744" y="168" type="line" smooth="yes"/>
      <point x="744" y="56"/>
      <point x="791" y="-2"/>
      <point x="899" y="-2" type="curve" smooth="yes"/>
      <point x="1023" y="-2"/>
      <point x="1112" y="104"/>
      <point x="1112" y="292" type="curve" smooth="yes"/>
      <point x="1112" y="398"/>
      <point x="1084" y="476"/>
      <point x="1028" y="570" type="curve"/>
      <point x="972" y="539" type="line"/>
      <point x="1020" y="457"/>
      <point x="1047" y="381"/>
      <point x="1047" y="292" type="curve" smooth="yes"/>
      <point x="1047" y="150"/>
      <point x="993" y="71"/>
      <point x="937" y="71" type="curve" smooth="yes"/>
      <point x="903" y="71"/>
      <point x="888" y="97"/>
      <point x="888" y="162" type="curve" smooth="yes"/>
      <point x="888" y="401" type="line" smooth="yes"/>
      <point x="888" y="514"/>
      <point x="806" y="569"/>
      <point x="700" y="569" type="curve" smooth="yes"/>
      <point x="599" y="569"/>
      <point x="522" y="513"/>
      <point x="522" y="425" type="curve" smooth="yes"/>
      <point x="522" y="349" type="line"/>
      <point x="487" y="349" type="line"/>
    </contour>
    <contour>
      <point x="231" y="-5" type="curve" smooth="yes"/>
      <point x="330" y="-5"/>
      <point x="396" y="60"/>
      <point x="396" y="164" type="curve" smooth="yes"/>
      <point x="396" y="256"/>
      <point x="345" y="323"/>
      <point x="258" y="323" type="curve" smooth="yes"/>
      <point x="160" y="323"/>
      <point x="108" y="228"/>
      <point x="105" y="117" type="curve"/>
      <point x="142" y="91" type="line"/>
      <point x="144" y="174"/>
      <point x="169" y="235"/>
      <point x="213" y="235" type="curve" smooth="yes"/>
      <point x="248" y="235"/>
      <point x="267" y="198"/>
      <point x="267" y="153" type="curve" smooth="yes"/>
      <point x="267" y="99"/>
      <point x="248" y="63"/>
      <point x="205" y="63" type="curve" smooth="yes"/>
      <point x="151" y="63"/>
      <point x="107" y="133"/>
      <point x="107" y="255" type="curve" smooth="yes"/>
      <point x="107" y="408"/>
      <point x="184" y="503"/>
      <point x="306" y="503" type="curve" smooth="yes"/>
      <point x="420" y="503"/>
      <point x="488" y="433"/>
      <point x="488" y="295" type="curve"/>
      <point x="551" y="305" type="line"/>
      <point x="543" y="492"/>
      <point x="428" y="570"/>
      <point x="306" y="570" type="curve" smooth="yes"/>
      <point x="141" y="570"/>
      <point x="43" y="443"/>
      <point x="43" y="257" type="curve" smooth="yes"/>
      <point x="43" y="96"/>
      <point x="117" y="-5"/>
    </contour>
  </outline>
</glyph>
<glyph name="ha-tamil" format="2">
  <advance width="1402"/>
  <unicode hex="0BB9"/>
  <note>
uni0BB9
</note>
  <anchor x="711" y="0" name="bottom"/>
  <anchor x="713" y="-136" name="nukta"/>
  <anchor x="725" y="565" name="top"/>
  <anchor x="716" y="565" name="vedic"/>
  <outline>
    <contour>
      <point x="208" y="-272" type="curve"/>
      <point x="208" y="-191"/>
      <point x="224" y="-136"/>
      <point x="322" y="-136" type="curve" smooth="yes"/>
      <point x="944" y="-136" type="line" smooth="yes"/>
      <point x="1210" y="-136"/>
      <point x="1365" y="-19"/>
      <point x="1365" y="247" type="curve" smooth="yes"/>
      <point x="1365" y="454"/>
      <point x="1279" y="570"/>
      <point x="1134" y="570" type="curve" smooth="yes"/>
      <point x="1054" y="570"/>
      <point x="1000" y="534"/>
      <point x="979" y="478" type="curve"/>
      <point x="961" y="533"/>
      <point x="918" y="570"/>
      <point x="849" y="570" type="curve" smooth="yes"/>
      <point x="772" y="570"/>
      <point x="718" y="518"/>
      <point x="718" y="424" type="curve" smooth="yes"/>
      <point x="718" y="61" type="line"/>
      <point x="548" y="61" type="line"/>
      <point x="597" y="116"/>
      <point x="636" y="183"/>
      <point x="636" y="278" type="curve" smooth="yes"/>
      <point x="636" y="468"/>
      <point x="506" y="570"/>
      <point x="338" y="570" type="curve" smooth="yes"/>
      <point x="151" y="570"/>
      <point x="43" y="444"/>
      <point x="43" y="257" type="curve" smooth="yes"/>
      <point x="43" y="96"/>
      <point x="117" y="-5"/>
      <point x="231" y="-5" type="curve" smooth="yes"/>
      <point x="331" y="-5"/>
      <point x="396" y="60"/>
      <point x="396" y="164" type="curve" smooth="yes"/>
      <point x="396" y="256"/>
      <point x="345" y="323"/>
      <point x="259" y="323" type="curve" smooth="yes"/>
      <point x="160" y="323"/>
      <point x="108" y="228"/>
      <point x="105" y="117" type="curve"/>
      <point x="142" y="91" type="line"/>
      <point x="144" y="174"/>
      <point x="169" y="235"/>
      <point x="213" y="235" type="curve" smooth="yes"/>
      <point x="248" y="235"/>
      <point x="267" y="198"/>
      <point x="267" y="153" type="curve" smooth="yes"/>
      <point x="267" y="99"/>
      <point x="249" y="63"/>
      <point x="205" y="63" type="curve" smooth="yes"/>
      <point x="151" y="63"/>
      <point x="107" y="133"/>
      <point x="107" y="255" type="curve" smooth="yes"/>
      <point x="107" y="413"/>
      <point x="188" y="504"/>
      <point x="300" y="504" type="curve" smooth="yes"/>
      <point x="426" y="504"/>
      <point x="497" y="408"/>
      <point x="497" y="260" type="curve" smooth="yes"/>
      <point x="497" y="163"/>
      <point x="476" y="97"/>
      <point x="450" y="44" type="curve"/>
      <point x="470" y="0" type="line"/>
      <point x="784" y="0" type="line"/>
      <point x="784" y="419" type="line" smooth="yes"/>
      <point x="784" y="478"/>
      <point x="803" y="505"/>
      <point x="842" y="505" type="curve" smooth="yes"/>
      <point x="885" y="505"/>
      <point x="904" y="473"/>
      <point x="904" y="415" type="curve" smooth="yes"/>
      <point x="904" y="0" type="line"/>
      <point x="1051" y="0" type="line"/>
      <point x="1051" y="408" type="line" smooth="yes"/>
      <point x="1051" y="472"/>
      <point x="1075" y="505"/>
      <point x="1119" y="505" type="curve" smooth="yes"/>
      <point x="1182" y="505"/>
      <point x="1214" y="440"/>
      <point x="1214" y="259" type="curve" smooth="yes"/>
      <point x="1214" y="24"/>
      <point x="1149" y="-80"/>
      <point x="911" y="-80" type="curve" smooth="yes"/>
      <point x="273" y="-80" type="line" smooth="yes"/>
      <point x="179" y="-80"/>
      <point x="97" y="-100"/>
      <point x="97" y="-186" type="curve" smooth="yes"/>
      <point x="97" y="-245"/>
      <point x="142" y="-272"/>
    </contour>
  </outline>
</glyph>
<glyph name="aaMatra-tamil" format="2">
  <advance width="531"/>
  <unicode hex="0BBE"/>
  <note>
uni0BBE
</note>
  <outline>
    <contour>
      <point x="64" y="0" type="line"/>
      <point x="130" y="0" type="line"/>
      <point x="130" y="505" type="line"/>
      <point x="265" y="505" type="line"/>
      <point x="265" y="0" type="line"/>
      <point x="409" y="0" type="line"/>
      <point x="409" y="505" type="line"/>
      <point x="513" y="505" type="line"/>
      <point x="513" y="565" type="line"/>
      <point x="64" y="565" type="line"/>
    </contour>
  </outline>
</glyph>
<glyph name="iMatra-tamil" format="2">
  <advance width="177"/>
  <unicode hex="0BBF"/>
  <note>
uni0BBF
</note>
  <outline>
    <contour>
      <point x="48" y="0" type="line"/>
      <point x="114" y="0" type="line"/>
      <point x="114" y="565" type="line" smooth="yes"/>
      <point x="114" y="750"/>
      <point x="2" y="831"/>
      <point x="-135" y="831" type="curve" smooth="yes"/>
      <point x="-254" y="831"/>
      <point x="-327" y="758"/>
      <point x="-327" y="656" type="curve" smooth="yes"/>
      <point x="-327" y="562"/>
      <point x="-268" y="507"/>
      <point x="-162" y="507" type="curve" smooth="yes"/>
      <point x="-159" y="507" type="line"/>
      <point x="-159" y="565" type="line"/>
      <point x="-162" y="565" type="line" smooth="yes"/>
      <point x="-208" y="565"/>
      <point x="-244" y="585"/>
      <point x="-244" y="632" type="curve" smooth="yes"/>
      <point x="-244" y="682"/>
      <point x="-205" y="716"/>
      <point x="-131" y="716" type="curve" smooth="yes"/>
      <point x="-38" y="716"/>
      <point x="48" y="666"/>
      <point x="48" y="529" type="curve" smooth="yes"/>
    </contour>
  </outline>
</glyph>
<glyph name="iiMatra-tamil" format="2">
  <unicode hex="0BC0"/>
  <note>
uni0BC0
</note>
  <anchor x="0" y="565" name="_imatra"/>
  <outline>
    <contour>
      <point x="-27" y="507" type="curve" smooth="yes"/>
      <point x="0" y="507" type="line"/>
      <point x="0" y="565" type="line"/>
      <point x="-23" y="565" type="line" smooth="yes"/>
      <point x="-86" y="565"/>
      <point x="-132" y="612"/>
      <point x="-132" y="696" type="curve" smooth="yes"/>
      <point x="-132" y="784"/>
      <point x="-92" y="843"/>
      <point x="-17" y="843" type="curve" smooth="yes"/>
      <point x="38" y="843"/>
      <point x="65" y="805"/>
      <point x="65" y="748" type="curve" smooth="yes"/>
      <point x="65" y="706"/>
      <point x="46" y="680"/>
      <point x="17" y="680" type="curve" smooth="yes"/>
      <point x="-16" y="680"/>
      <point x="-33" y="716"/>
      <point x="-33" y="765" type="curve" smooth="yes"/>
      <point x="-33" y="795"/>
      <point x="-26" y="831"/>
      <point x="-13" y="866" type="curve"/>
      <point x="-58" y="870" type="line"/>
      <point x="-76" y="831"/>
      <point x="-85" y="791"/>
      <point x="-85" y="753" type="curve" smooth="yes"/>
      <point x="-85" y="672"/>
      <point x="-42" y="607"/>
      <point x="45" y="607" type="curve" smooth="yes"/>
      <point x="121" y="607"/>
      <point x="175" y="662"/>
      <point x="175" y="742" type="curve" smooth="yes"/>
      <point x="175" y="841"/>
      <point x="108" y="906"/>
      <point x="-2" y="906" type="curve" smooth="yes"/>
      <point x="-123" y="906"/>
      <point x="-195" y="816"/>
      <point x="-195" y="699" type="curve" smooth="yes"/>
      <point x="-195" y="580"/>
      <point x="-132" y="507"/>
    </contour>
  </outline>
</glyph>
<glyph name="uMatra-tamil" format="2">
  <advance width="433"/>
  <unicode hex="0BC1"/>
  <note>
uni0BC1
</note>
  <anchor x="142" y="565" name="top"/>
  <outline>
    <contour>
      <point x="234" y="222" type="curve" smooth="yes"/>
      <point x="331" y="222"/>
      <point x="403" y="276"/>
      <point x="403" y="391" type="curve" smooth="yes"/>
      <point x="403" y="565" type="line"/>
      <point x="-238" y="565" type="line"/>
      <point x="-191" y="505" type="line"/>
      <point x="258" y="505" type="line"/>
      <point x="258" y="376" type="line" smooth="yes"/>
      <point x="258" y="323"/>
      <point x="237" y="295"/>
      <point x="199" y="295" type="curve" smooth="yes"/>
      <point x="161" y="295"/>
      <point x="145" y="323"/>
      <point x="145" y="388" type="curve" smooth="yes"/>
      <point x="145" y="529" type="line"/>
      <point x="81" y="529" type="line"/>
      <point x="81" y="396" type="line" smooth="yes"/>
      <point x="81" y="279"/>
      <point x="136" y="222"/>
    </contour>
  </outline>
</glyph>
<glyph name="uuMatra-tamil" format="2">
  <advance width="728"/>
  <unicode hex="0BC2"/>
  <note>
uni0BC2
</note>
  <outline>
    <contour>
      <point x="299" y="4" type="curve" smooth="yes"/>
      <point x="512" y="4"/>
      <point x="670" y="150"/>
      <point x="670" y="407" type="curve" smooth="yes"/>
      <point x="670" y="640"/>
      <point x="540" y="787"/>
      <point x="344" y="787" type="curve" smooth="yes"/>
      <point x="156" y="787"/>
      <point x="81" y="654"/>
      <point x="81" y="527" type="curve" smooth="yes"/>
      <point x="81" y="396" type="line" smooth="yes"/>
      <point x="81" y="279"/>
      <point x="136" y="222"/>
      <point x="234" y="222" type="curve" smooth="yes"/>
      <point x="331" y="222"/>
      <point x="403" y="276"/>
      <point x="403" y="391" type="curve" smooth="yes"/>
      <point x="403" y="565" type="line"/>
      <point x="-236" y="565" type="line"/>
      <point x="-189" y="505" type="line"/>
      <point x="258" y="505" type="line"/>
      <point x="258" y="376" type="line" smooth="yes"/>
      <point x="258" y="323"/>
      <point x="236" y="295"/>
      <point x="199" y="295" type="curve" smooth="yes"/>
      <point x="161" y="295"/>
      <point x="145" y="323"/>
      <point x="145" y="388" type="curve" smooth="yes"/>
      <point x="145" y="527" type="line" smooth="yes"/>
      <point x="145" y="624"/>
      <point x="193" y="719"/>
      <point x="312" y="719" type="curve" smooth="yes"/>
      <point x="458" y="719"/>
      <point x="517" y="585"/>
      <point x="517" y="418" type="curve" smooth="yes"/>
      <point x="517" y="201"/>
      <point x="426" y="72"/>
      <point x="277" y="72" type="curve" smooth="yes"/>
      <point x="185" y="72"/>
      <point x="132" y="106"/>
      <point x="74" y="183" type="curve"/>
      <point x="24" y="140" type="line"/>
      <point x="89" y="58"/>
      <point x="157" y="4"/>
    </contour>
  </outline>
</glyph>
<glyph name="eMatra-tamil" format="2">
  <advance width="681"/>
  <unicode hex="0BC6"/>
  <note>
uni0BC6
</note>
  <outline>
    <contour>
      <point x="273" y="-5" type="curve" smooth="yes"/>
      <point x="373" y="-5"/>
      <point x="438" y="60"/>
      <point x="438" y="165" type="curve" smooth="yes"/>
      <point x="438" y="258"/>
      <point x="387" y="326"/>
      <point x="301" y="326" type="curve" smooth="yes"/>
      <point x="203" y="326"/>
      <point x="149" y="228"/>
      <point x="146" y="117" type="curve"/>
      <point x="184" y="90" type="line"/>
      <point x="186" y="175"/>
      <point x="212" y="238"/>
      <point x="255" y="238" type="curve" smooth="yes"/>
      <point x="290" y="238"/>
      <point x="309" y="200"/>
      <point x="309" y="154" type="curve" smooth="yes"/>
      <point x="309" y="99"/>
      <point x="291" y="63"/>
      <point x="248" y="63" type="curve" smooth="yes"/>
      <point x="183" y="63"/>
      <point x="113" y="181"/>
      <point x="113" y="382" type="curve" smooth="yes"/>
      <point x="113" y="595"/>
      <point x="216" y="711"/>
      <point x="356" y="711" type="curve" smooth="yes"/>
      <point x="469" y="711"/>
      <point x="553" y="644"/>
      <point x="553" y="469" type="curve" smooth="yes"/>
      <point x="553" y="0" type="line"/>
      <point x="618" y="0" type="line"/>
      <point x="618" y="498" type="line" smooth="yes"/>
      <point x="618" y="722"/>
      <point x="521" y="831"/>
      <point x="360" y="831" type="curve" smooth="yes"/>
      <point x="153" y="831"/>
      <point x="49" y="644"/>
      <point x="49" y="384" type="curve" smooth="yes"/>
      <point x="49" y="149"/>
      <point x="146" y="-5"/>
    </contour>
  </outline>
</glyph>
<glyph name="halant-tamil" format="2">
  <unicode hex="0BCD"/>
  <note>
uni0BCD
</note>
  <anchor x="0" y="565" name="_top"/>
  <anchor x="0" y="727" name="top"/>
  <outline>
    <contour>
      <point x="0" y="630" type="curve" smooth="yes"/>
      <point x="42" y="630"/>
      <point x="77" y="663"/>
      <point x="77" y="702" type="curve" smooth="yes"/>
      <point x="77" y="740"/>
      <point x="42" y="773"/>
      <point x="0" y="773" type="curve" smooth="yes"/>
      <point x="-42" y="773"/>
      <point x="-76" y="740"/>
      <point x="-76" y="702" type="curve" smooth="yes"/>
      <point x="-76" y="663"/>
      <point x="-42" y="630"/>
    </contour>
  </outline>
</glyph>
<glyph name="om-tamil" format="2">
  <advance width="862"/>
  <unicode hex="0BD0"/>
  <note>
uni0BD0
</note>
  <outline>
    <contour>
      <point x="296" y="-369" type="curve" smooth="yes"/>
      <point x="533" y="-369"/>
      <point x="538" y="-146"/>
      <point x="674" y="-146" type="curve" smooth="yes"/>
      <point x="717" y="-146" type="line"/>
      <point x="717" y="-86" type="line"/>
      <point x="657" y="-86" type="line" smooth="yes"/>
      <point x="558" y="-86"/>
      <point x="486" y="-21"/>
      <point x="486" y="82" type="curve" smooth="yes"/>
      <point x="486" y="118"/>
      <point x="495" y="159"/>
      <point x="515" y="204" type="curve"/>
      <point x="521" y="201" type="line"/>
      <point x="517" y="180"/>
      <point x="515" y="159"/>
      <point x="515" y="140" type="curve" smooth="yes"/>
      <point x="515" y="56"/>
      <point x="555" y="-4"/>
      <point x="653" y="-4" type="curve" smooth="yes"/>
      <point x="746" y="-4"/>
      <point x="819" y="66"/>
      <point x="819" y="196" type="curve" smooth="yes"/>
      <point x="819" y="436"/>
      <point x="638" y="570"/>
      <point x="406" y="570" type="curve" smooth="yes"/>
      <point x="188" y="570"/>
      <point x="43" y="423"/>
      <point x="43" y="250" type="curve" smooth="yes"/>
      <point x="43" y="93"/>
      <point x="117" y="5"/>
      <point x="231" y="5" type="curve" smooth="yes"/>
      <point x="331" y="5"/>
      <point x="396" y="69"/>
      <point x="396" y="173" type="curve" smooth="yes"/>
      <point x="396" y="266"/>
      <point x="345" y="333"/>
      <point x="259" y="333" type="curve" smooth="yes"/>
      <point x="160" y="333"/>
      <point x="108" y="232"/>
      <point x="105" y="122" type="curve"/>
      <point x="142" y="91" type="line"/>
      <point x="144" y="179"/>
      <point x="169" y="245"/>
      <point x="213" y="245" type="curve" smooth="yes"/>
      <point x="248" y="245"/>
      <point x="267" y="208"/>
      <point x="267" y="163" type="curve" smooth="yes"/>
      <point x="267" y="109"/>
      <point x="249" y="73"/>
      <point x="205" y="73" type="curve" smooth="yes"/>
      <point x="151" y="73"/>
      <point x="107" y="130"/>
      <point x="107" y="248" type="curve" smooth="yes"/>
      <point x="107" y="400"/>
      <point x="241" y="508"/>
      <point x="393" y="508" type="curve" smooth="yes"/>
      <point x="566" y="508"/>
      <point x="685" y="402"/>
      <point x="685" y="211" type="curve" smooth="yes"/>
      <point x="685" y="116"/>
      <point x="656" y="68"/>
      <point x="614" y="68" type="curve" smooth="yes"/>
      <point x="581" y="68"/>
      <point x="563" y="100"/>
      <point x="563" y="151" type="curve" smooth="yes"/>
      <point x="563" y="181"/>
      <point x="570" y="219"/>
      <point x="583" y="260" type="curve"/>
      <point x="507" y="294" type="line"/>
      <point x="455" y="205"/>
      <point x="434" y="130"/>
      <point x="434" y="70" type="curve" smooth="yes"/>
      <point x="434" y="-23"/>
      <point x="485" y="-82"/>
      <point x="554" y="-111" type="curve"/>
      <point x="554" y="-116" type="line"/>
      <point x="450" y="-133"/>
      <point x="454" y="-304"/>
      <point x="271" y="-304" type="curve" smooth="yes"/>
      <point x="191" y="-304"/>
      <point x="135" y="-265"/>
      <point x="135" y="-195" type="curve" smooth="yes"/>
      <point x="135" y="-187"/>
      <point x="136" y="-180"/>
      <point x="137" y="-172" type="curve"/>
      <point x="81" y="-163" type="line"/>
      <point x="79" y="-175"/>
      <point x="78" y="-186"/>
      <point x="78" y="-197" type="curve" smooth="yes"/>
      <point x="78" y="-300"/>
      <point x="159" y="-369"/>
    </contour>
    <contour>
      <point x="184" y="-240" type="line"/>
      <point x="231" y="-240" type="line"/>
      <point x="231" y="-85" type="line"/>
      <point x="184" y="-85" type="line"/>
    </contour>
    <contour>
      <point x="200" y="-240" type="line"/>
      <point x="363" y="-240" type="line"/>
      <point x="363" y="-196" type="line"/>
      <point x="200" y="-196" type="line"/>
    </contour>
    <contour>
      <point x="261" y="-240" type="line"/>
      <point x="307" y="-240" type="line"/>
      <point x="307" y="-145" type="line" smooth="yes"/>
      <point x="307" y="-133"/>
      <point x="312" y="-125"/>
      <point x="321" y="-125" type="curve" smooth="yes"/>
      <point x="331" y="-125"/>
      <point x="335" y="-133"/>
      <point x="335" y="-145" type="curve" smooth="yes"/>
      <point x="335" y="-240" type="line"/>
      <point x="383" y="-240" type="line"/>
      <point x="383" y="-150" type="line" smooth="yes"/>
      <point x="383" y="-102"/>
      <point x="355" y="-83"/>
      <point x="321" y="-83" type="curve" smooth="yes"/>
      <point x="287" y="-83"/>
      <point x="261" y="-102"/>
      <point x="261" y="-150" type="curve" smooth="yes"/>
    </contour>
    <contour>
      <point x="285" y="-70" type="curve" smooth="yes"/>
      <point x="301" y="-70"/>
      <point x="315" y="-57"/>
      <point x="315" y="-41" type="curve" smooth="yes"/>
      <point x="315" y="-24"/>
      <point x="301" y="-11"/>
      <point x="285" y="-11" type="curve" smooth="yes"/>
      <point x="268" y="-11"/>
      <point x="254" y="-24"/>
      <point x="254" y="-41" type="curve" smooth="yes"/>
      <point x="254" y="-57"/>
      <point x="268" y="-70"/>
    </contour>
  </outline>
</glyph>
<glyph name="zero-tamil" format="2">
  <advance width="515"/>
  <unicode hex="0BE6"/>
  <note>
uni0BE6
</note>
  <outline>
    <contour>
      <point x="250" y="-5" type="curve" smooth="yes"/>
      <point x="385" y="-5"/>
      <point x="472" y="97"/>
      <point x="472" y="283" type="curve" smooth="yes"/>
      <point x="472" y="468"/>
      <point x="389" y="570"/>
      <point x="257" y="570" type="curve" smooth="yes"/>
      <point x="121" y="570"/>
      <point x="43" y="458"/>
      <point x="43" y="279" type="curve" smooth="yes"/>
      <point x="43" y="106"/>
      <point x="113" y="-5"/>
    </contour>
    <contour>
      <point x="227" y="71" type="curve" smooth="yes"/>
      <point x="141" y="71"/>
      <point x="109" y="163"/>
      <point x="109" y="283" type="curve" smooth="yes"/>
      <point x="109" y="402"/>
      <point x="144" y="494"/>
      <point x="227" y="494" type="curve" smooth="yes"/>
      <point x="306" y="494"/>
      <point x="345" y="419"/>
      <point x="345" y="283" type="curve" smooth="yes"/>
      <point x="345" y="146"/>
      <point x="303" y="71"/>
    </contour>
  </outline>
</glyph>
<glyph name="one-tamil" format="2">
  <advance width="717"/>
  <unicode hex="0BE7"/>
  <note>
uni0BE7
</note>
  <outline>
    <contour>
      <point x="231" y="-4" type="curve" smooth="yes"/>
      <point x="364" y="-4"/>
      <point x="445" y="66"/>
      <point x="445" y="202" type="curve" smooth="yes"/>
      <point x="445" y="268" type="line"/>
      <point x="464" y="268" type="line" smooth="yes"/>
      <point x="510" y="268"/>
      <point x="536" y="233"/>
      <point x="536" y="161" type="curve" smooth="yes"/>
      <point x="536" y="91"/>
      <point x="507" y="63"/>
      <point x="472" y="63" type="curve" smooth="yes"/>
      <point x="441" y="63"/>
      <point x="422" y="82"/>
      <point x="402" y="118" type="curve"/>
      <point x="360" y="76" type="line"/>
      <point x="395" y="25"/>
      <point x="431" y="-5"/>
      <point x="502" y="-5" type="curve" smooth="yes"/>
      <point x="592" y="-5"/>
      <point x="673" y="43"/>
      <point x="673" y="161" type="curve" smooth="yes"/>
      <point x="673" y="278"/>
      <point x="594" y="329"/>
      <point x="473" y="329" type="curve" smooth="yes"/>
      <point x="445" y="329" type="line"/>
      <point x="445" y="504" type="line"/>
      <point x="565" y="504" type="line"/>
      <point x="565" y="565" type="line"/>
      <point x="135" y="565" type="line"/>
      <point x="135" y="294" type="line"/>
      <point x="200" y="294" type="line"/>
      <point x="200" y="504" type="line"/>
      <point x="299" y="504" type="line"/>
      <point x="299" y="329" type="line"/>
      <point x="189" y="329" type="line" smooth="yes"/>
      <point x="111" y="329"/>
      <point x="43" y="266"/>
      <point x="43" y="170" type="curve" smooth="yes"/>
      <point x="43" y="68"/>
      <point x="105" y="-4"/>
    </contour>
    <contour>
      <point x="200" y="64" type="curve" smooth="yes"/>
      <point x="147" y="64"/>
      <point x="109" y="101"/>
      <point x="109" y="168" type="curve" smooth="yes"/>
      <point x="109" y="228"/>
      <point x="134" y="268"/>
      <point x="193" y="268" type="curve" smooth="yes"/>
      <point x="299" y="268" type="line"/>
      <point x="299" y="190" type="line" smooth="yes"/>
      <point x="299" y="99"/>
      <point x="258" y="64"/>
    </contour>
  </outline>
</glyph>
<glyph name="two-tamil" format="2">
  <advance width="795"/>
  <unicode hex="0BE8"/>
  <note>
uni0BE8
</note>
  <outline>
    <contour>
      <point x="137" y="0" type="curve" smooth="yes"/>
      <point x="777" y="0" type="line"/>
      <point x="777" y="61" type="line"/>
      <point x="135" y="61" type="line" smooth="yes"/>
      <point x="120" y="61"/>
      <point x="105" y="75"/>
      <point x="105" y="97" type="curve" smooth="yes"/>
      <point x="105" y="119"/>
      <point x="120" y="133"/>
      <point x="135" y="133" type="curve" smooth="yes"/>
      <point x="318" y="133" type="line" smooth="yes"/>
      <point x="475" y="133"/>
      <point x="566" y="211"/>
      <point x="566" y="348" type="curve" smooth="yes"/>
      <point x="566" y="496"/>
      <point x="468" y="570"/>
      <point x="328" y="570" type="curve" smooth="yes"/>
      <point x="191" y="570"/>
      <point x="109" y="487"/>
      <point x="109" y="353" type="curve" smooth="yes"/>
      <point x="109" y="218"/>
      <point x="175" y="151"/>
      <point x="298" y="151" type="curve"/>
      <point x="298" y="191" type="line"/>
      <point x="204" y="191"/>
      <point x="173" y="254"/>
      <point x="173" y="352" type="curve" smooth="yes"/>
      <point x="173" y="452"/>
      <point x="220" y="509"/>
      <point x="300" y="509" type="curve" smooth="yes"/>
      <point x="377" y="509"/>
      <point x="432" y="458"/>
      <point x="432" y="352" type="curve" smooth="yes"/>
      <point x="432" y="247"/>
      <point x="382" y="191"/>
      <point x="298" y="191" type="curve" smooth="yes"/>
      <point x="137" y="191" type="line" smooth="yes"/>
      <point x="84" y="191"/>
      <point x="45" y="156"/>
      <point x="45" y="97" type="curve" smooth="yes"/>
      <point x="45" y="38"/>
      <point x="84" y="0"/>
    </contour>
  </outline>
</glyph>
<glyph name="five-tamil" format="2">
  <advance width="952"/>
  <unicode hex="0BEB"/>
  <note>
uni0BEB
</note>
  <outline>
    <contour>
      <point x="458" y="-286" type="curve" smooth="yes"/>
      <point x="670" y="-286"/>
      <point x="847" y="-136"/>
      <point x="847" y="110" type="curve" smooth="yes"/>
      <point x="847" y="255"/>
      <point x="785" y="350"/>
      <point x="687" y="350" type="curve" smooth="yes"/>
      <point x="601" y="350"/>
      <point x="556" y="280"/>
      <point x="556" y="183" type="curve" smooth="yes"/>
      <point x="556" y="139" type="line"/>
      <point x="577" y="139" type="line"/>
      <point x="577" y="182" type="line" smooth="yes"/>
      <point x="577" y="228"/>
      <point x="600" y="264"/>
      <point x="638" y="264" type="curve" smooth="yes"/>
      <point x="687" y="264"/>
      <point x="715" y="204"/>
      <point x="715" y="104" type="curve" smooth="yes"/>
      <point x="715" y="-108"/>
      <point x="609" y="-222"/>
      <point x="447" y="-222" type="curve" smooth="yes"/>
      <point x="238" y="-222"/>
      <point x="117" y="-33"/>
      <point x="117" y="258" type="curve" smooth="yes"/>
      <point x="117" y="551"/>
      <point x="250" y="722"/>
      <point x="477" y="722" type="curve" smooth="yes"/>
      <point x="650" y="722"/>
      <point x="797" y="637"/>
      <point x="832" y="398" type="curve"/>
      <point x="898" y="398" type="line"/>
      <point x="868" y="689"/>
      <point x="714" y="837"/>
      <point x="479" y="837" type="curve" smooth="yes"/>
      <point x="198" y="837"/>
      <point x="50" y="596"/>
      <point x="50" y="258" type="curve" smooth="yes"/>
      <point x="50" y="-62"/>
      <point x="198" y="-286"/>
    </contour>
    <contour>
      <point x="264" y="0" type="line"/>
      <point x="330" y="0" type="line"/>
      <point x="330" y="505" type="line"/>
      <point x="433" y="505" type="line"/>
      <point x="433" y="0" type="line"/>
      <point x="577" y="0" type="line"/>
      <point x="577" y="505" type="line"/>
      <point x="699" y="505" type="line"/>
      <point x="699" y="565" type="line"/>
      <point x="264" y="565" type="line"/>
    </contour>
  </outline>
</glyph>
<glyph name="six-tamil" format="2">
  <advance width="986"/>
  <unicode hex="0BEC"/>
  <note>
uni0BEC
</note>
  <outline>
    <contour>
      <point x="231" y="-4" type="curve" smooth="yes"/>
      <point x="366" y="-4"/>
      <point x="444" y="66"/>
      <point x="444" y="202" type="curve" smooth="yes"/>
      <point x="444" y="268" type="line"/>
      <point x="488" y="268" type="line" smooth="yes"/>
      <point x="514" y="268"/>
      <point x="530" y="251"/>
      <point x="530" y="219" type="curve" smooth="yes"/>
      <point x="530" y="0" type="line"/>
      <point x="667" y="0" type="line"/>
      <point x="667" y="219" type="line" smooth="yes"/>
      <point x="667" y="252"/>
      <point x="683" y="268"/>
      <point x="709" y="268" type="curve" smooth="yes"/>
      <point x="948" y="268" type="line"/>
      <point x="948" y="329" type="line"/>
      <point x="682" y="329" type="line" smooth="yes"/>
      <point x="641" y="329"/>
      <point x="609" y="306"/>
      <point x="599" y="265" type="curve"/>
      <point x="588" y="306"/>
      <point x="557" y="329"/>
      <point x="513" y="329" type="curve" smooth="yes"/>
      <point x="444" y="329" type="line"/>
      <point x="444" y="504" type="line"/>
      <point x="565" y="504" type="line"/>
      <point x="565" y="565" type="line"/>
      <point x="135" y="565" type="line"/>
      <point x="135" y="294" type="line"/>
      <point x="200" y="294" type="line"/>
      <point x="200" y="504" type="line"/>
      <point x="300" y="504" type="line"/>
      <point x="300" y="329" type="line"/>
      <point x="189" y="329" type="line" smooth="yes"/>
      <point x="111" y="329"/>
      <point x="43" y="266"/>
      <point x="43" y="170" type="curve" smooth="yes"/>
      <point x="43" y="68"/>
      <point x="105" y="-4"/>
    </contour>
    <contour>
      <point x="200" y="64" type="curve" smooth="yes"/>
      <point x="147" y="64"/>
      <point x="109" y="101"/>
      <point x="109" y="168" type="curve" smooth="yes"/>
      <point x="109" y="228"/>
      <point x="134" y="268"/>
      <point x="193" y="268" type="curve" smooth="yes"/>
      <point x="300" y="268" type="line"/>
      <point x="300" y="190" type="line" smooth="yes"/>
      <point x="300" y="99"/>
      <point x="260" y="64"/>
    </contour>
    <contour>
      <point x="754" y="0" type="line"/>
      <point x="893" y="0" type="line"/>
      <point x="893" y="292" type="line"/>
      <point x="754" y="292" type="line"/>
    </contour>
  </outline>
</glyph>
<glyph name="eight-tamil" format="2">
  <advance width="1090"/>
  <unicode hex="0BEE"/>
  <note>
uni0BEE
</note>
  <outline>
    <contour>
      <point x="884" y="-203" type="line"/>
      <point x="1027" y="-203" type="line"/>
      <point x="1027" y="565" type="line"/>
      <point x="884" y="565" type="line"/>
      <point x="884" y="164" type="line"/>
      <point x="104" y="164" type="line" smooth="yes"/>
      <point x="57" y="164"/>
      <point x="27" y="133"/>
      <point x="27" y="86" type="curve" smooth="yes"/>
      <point x="27" y="-27"/>
      <point x="167" y="-140"/>
      <point x="359" y="-140" type="curve" smooth="yes"/>
      <point x="608" y="-140"/>
      <point x="793" y="-5"/>
      <point x="793" y="244" type="curve" smooth="yes"/>
      <point x="793" y="450"/>
      <point x="674" y="570"/>
      <point x="511" y="570" type="curve" smooth="yes"/>
      <point x="357" y="570"/>
      <point x="291" y="457"/>
      <point x="291" y="323" type="curve" smooth="yes"/>
      <point x="291" y="257"/>
      <point x="311" y="191"/>
      <point x="347" y="130" type="curve"/>
      <point x="412" y="131" type="line"/>
      <point x="372" y="197"/>
      <point x="356" y="256"/>
      <point x="356" y="316" type="curve" smooth="yes"/>
      <point x="356" y="426"/>
      <point x="400" y="507"/>
      <point x="493" y="507" type="curve" smooth="yes"/>
      <point x="593" y="507"/>
      <point x="658" y="413"/>
      <point x="658" y="256" type="curve" smooth="yes"/>
      <point x="658" y="31"/>
      <point x="521" y="-78"/>
      <point x="339" y="-78" type="curve" smooth="yes"/>
      <point x="198" y="-78"/>
      <point x="97" y="9"/>
      <point x="97" y="75" type="curve" smooth="yes"/>
      <point x="97" y="92"/>
      <point x="106" y="103"/>
      <point x="125" y="103" type="curve" smooth="yes"/>
      <point x="884" y="103" type="line"/>
    </contour>
  </outline>
</glyph>
<glyph name="nine-tamil" format="2">
  <advance width="1030"/>
  <unicode hex="0BEF"/>
  <note>
uni0BEF
</note>
  <outline>
    <contour>
      <point x="853" y="-17" type="line"/>
      <point x="939" y="27"/>
      <point x="993" y="92"/>
      <point x="993" y="197" type="curve" smooth="yes"/>
      <point x="993" y="344"/>
      <point x="886" y="432"/>
      <point x="744" y="432" type="curve" smooth="yes"/>
      <point x="593" y="432"/>
      <point x="503" y="327"/>
      <point x="503" y="179" type="curve" smooth="yes"/>
      <point x="503" y="71"/>
      <point x="549" y="-5"/>
      <point x="646" y="-5" type="curve" smooth="yes"/>
      <point x="725" y="-5"/>
      <point x="789" y="48"/>
      <point x="789" y="147" type="curve" smooth="yes"/>
      <point x="789" y="262"/>
      <point x="703" y="329"/>
      <point x="587" y="329" type="curve" smooth="yes"/>
      <point x="444" y="329" type="line"/>
      <point x="444" y="504" type="line"/>
      <point x="565" y="504" type="line"/>
      <point x="565" y="565" type="line"/>
      <point x="135" y="565" type="line"/>
      <point x="135" y="294" type="line"/>
      <point x="200" y="294" type="line"/>
      <point x="200" y="504" type="line"/>
      <point x="300" y="504" type="line"/>
      <point x="300" y="329" type="line"/>
      <point x="189" y="329" type="line" smooth="yes"/>
      <point x="111" y="329"/>
      <point x="43" y="266"/>
      <point x="43" y="170" type="curve" smooth="yes"/>
      <point x="43" y="68"/>
      <point x="105" y="-4"/>
      <point x="231" y="-4" type="curve" smooth="yes"/>
      <point x="364" y="-4"/>
      <point x="444" y="66"/>
      <point x="444" y="202" type="curve" smooth="yes"/>
      <point x="444" y="268" type="line"/>
      <point x="569" y="268" type="line" smooth="yes"/>
      <point x="630" y="268"/>
      <point x="664" y="219"/>
      <point x="664" y="142" type="curve" smooth="yes"/>
      <point x="664" y="92"/>
      <point x="647" y="63"/>
      <point x="618" y="63" type="curve" smooth="yes"/>
      <point x="584" y="63"/>
      <point x="561" y="110"/>
      <point x="561" y="174" type="curve" smooth="yes"/>
      <point x="561" y="292"/>
      <point x="621" y="367"/>
      <point x="714" y="367" type="curve" smooth="yes"/>
      <point x="805" y="367"/>
      <point x="869" y="301"/>
      <point x="869" y="187" type="curve" smooth="yes"/>
      <point x="869" y="124"/>
      <point x="854" y="70"/>
      <point x="822" y="25" type="curve"/>
    </contour>
    <contour>
      <point x="200" y="64" type="curve" smooth="yes"/>
      <point x="147" y="64"/>
      <point x="109" y="101"/>
      <point x="109" y="168" type="curve" smooth="yes"/>
      <point x="109" y="228"/>
      <point x="134" y="268"/>
      <point x="193" y="268" type="curve" smooth="yes"/>
      <point x="300" y="268" type="line"/>
      <point x="300" y="190" type="line" smooth="yes"/>
      <point x="300" y="99"/>
      <point x="258" y="64"/>
    </contour>
  </outline>
</glyph>
<glyph name="ten-tamil" format="2">
  <advance width="732"/>
  <unicode hex="0BF0"/>
  <note>
uni0BF0
</note>
  <outline>
    <contour>
      <point x="458" y="-5" type="curve" smooth="yes"/>
      <point x="590" y="-5"/>
      <point x="686" y="122"/>
      <point x="686" y="345" type="curve" smooth="yes"/>
      <point x="686" y="586"/>
      <point x="580" y="783"/>
      <point x="293" y="817" type="curve"/>
      <point x="287" y="754" type="line"/>
      <point x="536" y="727"/>
      <point x="622" y="540"/>
      <point x="622" y="355" type="curve" smooth="yes"/>
      <point x="622" y="165"/>
      <point x="555" y="63"/>
      <point x="486" y="63" type="curve" smooth="yes"/>
      <point x="459" y="63"/>
      <point x="448" y="81"/>
      <point x="448" y="109" type="curve" smooth="yes"/>
      <point x="448" y="565" type="line"/>
      <point x="309" y="565" type="line"/>
      <point x="309" y="146" type="line" smooth="yes"/>
      <point x="309" y="53"/>
      <point x="361" y="-5"/>
    </contour>
    <contour>
      <point x="208" y="-7" type="curve" smooth="yes"/>
      <point x="277" y="-7"/>
      <point x="345" y="30"/>
      <point x="345" y="140" type="curve" smooth="yes"/>
      <point x="345" y="208" type="line"/>
      <point x="309" y="208" type="line"/>
      <point x="309" y="138" type="line" smooth="yes"/>
      <point x="309" y="87"/>
      <point x="288" y="63"/>
      <point x="261" y="63" type="curve" smooth="yes"/>
      <point x="232" y="63"/>
      <point x="213" y="79"/>
      <point x="213" y="131" type="curve" smooth="yes"/>
      <point x="213" y="565" type="line"/>
      <point x="69" y="565" type="line"/>
      <point x="69" y="147" type="line" smooth="yes"/>
      <point x="69" y="42"/>
      <point x="127" y="-7"/>
    </contour>
  </outline>
</glyph>
<glyph name="onehundred-tamil" format="2">
  <advance width="723"/>
  <unicode hex="0BF1"/>
  <note>
uni0BF1
</note>
  <outline>
    <contour>
      <point x="229" y="0" type="line"/>
      <point x="293" y="0" type="line"/>
      <point x="293" y="505" type="line"/>
      <point x="432" y="505" type="line"/>
      <point x="432" y="0" type="line"/>
      <point x="576" y="0" type="line"/>
      <point x="576" y="505" type="line"/>
      <point x="680" y="505" type="line"/>
      <point x="680" y="565" type="line"/>
      <point x="229" y="565" type="line"/>
    </contour>
    <contour>
      <point x="54" y="0" type="line"/>
      <point x="120" y="0" type="line"/>
      <point x="120" y="439" type="line" smooth="yes"/>
      <point x="120" y="489"/>
      <point x="141" y="512"/>
      <point x="174" y="512" type="curve" smooth="yes"/>
      <point x="207" y="512"/>
      <point x="229" y="488"/>
      <point x="229" y="436" type="curve"/>
      <point x="255" y="436" type="line"/>
      <point x="255" y="525"/>
      <point x="214" y="571"/>
      <point x="153" y="571" type="curve" smooth="yes"/>
      <point x="83" y="571"/>
      <point x="54" y="515"/>
      <point x="54" y="435" type="curve" smooth="yes"/>
    </contour>
  </outline>
</glyph>
<glyph name="onethousand-tamil" format="2">
  <advance width="985"/>
  <unicode hex="0BF2"/>
  <note>
uni0BF2
</note>
  <outline>
    <contour>
      <point x="232" y="-4" type="curve" smooth="yes"/>
      <point x="365" y="-4"/>
      <point x="445" y="66"/>
      <point x="445" y="202" type="curve" smooth="yes"/>
      <point x="445" y="504" type="line"/>
      <point x="566" y="504" type="line"/>
      <point x="566" y="565" type="line"/>
      <point x="136" y="565" type="line"/>
      <point x="136" y="294" type="line"/>
      <point x="201" y="294" type="line"/>
      <point x="201" y="504" type="line"/>
      <point x="301" y="504" type="line"/>
      <point x="301" y="190" type="line" smooth="yes"/>
      <point x="301" y="99"/>
      <point x="259" y="64"/>
      <point x="201" y="64" type="curve" smooth="yes"/>
      <point x="148" y="64"/>
      <point x="110" y="101"/>
      <point x="110" y="168" type="curve" smooth="yes"/>
      <point x="110" y="228"/>
      <point x="135" y="268"/>
      <point x="194" y="268" type="curve" smooth="yes"/>
      <point x="867" y="268" type="line"/>
      <point x="867" y="329" type="line"/>
      <point x="190" y="329" type="line" smooth="yes"/>
      <point x="112" y="329"/>
      <point x="44" y="266"/>
      <point x="44" y="170" type="curve" smooth="yes"/>
      <point x="44" y="68"/>
      <point x="106" y="-4"/>
    </contour>
    <contour>
      <point x="426" y="-299" type="curve"/>
      <point x="426" y="-207"/>
      <point x="449" y="-162"/>
      <point x="545" y="-162" type="curve" smooth="yes"/>
      <point x="667" y="-162" type="line" smooth="yes"/>
      <point x="853" y="-162"/>
      <point x="938" y="-98"/>
      <point x="938" y="27" type="curve" smooth="yes"/>
      <point x="938" y="146"/>
      <point x="859" y="199"/>
      <point x="739" y="199" type="curve" smooth="yes"/>
      <point x="589" y="199" type="line" smooth="yes"/>
      <point x="530" y="199"/>
      <point x="480" y="156"/>
      <point x="480" y="83" type="curve" smooth="yes"/>
      <point x="480" y="11"/>
      <point x="521" y="-39"/>
      <point x="610" y="-39" type="curve" smooth="yes"/>
      <point x="705" y="-39"/>
      <point x="756" y="12"/>
      <point x="756" y="100" type="curve" smooth="yes"/>
      <point x="756" y="294" type="line"/>
      <point x="636" y="294" type="line"/>
      <point x="636" y="92" type="line" smooth="yes"/>
      <point x="636" y="44"/>
      <point x="618" y="21"/>
      <point x="585" y="21" type="curve" smooth="yes"/>
      <point x="558" y="21"/>
      <point x="540" y="43"/>
      <point x="540" y="81" type="curve" smooth="yes"/>
      <point x="540" y="118"/>
      <point x="559" y="141"/>
      <point x="591" y="141" type="curve" smooth="yes"/>
      <point x="742" y="141" type="line" smooth="yes"/>
      <point x="792" y="141"/>
      <point x="817" y="103"/>
      <point x="817" y="29" type="curve" smooth="yes"/>
      <point x="817" y="-71"/>
      <point x="758" y="-106"/>
      <point x="665" y="-106" type="curve" smooth="yes"/>
      <point x="496" y="-106" type="line" smooth="yes"/>
      <point x="401" y="-106"/>
      <point x="316" y="-125"/>
      <point x="316" y="-211" type="curve" smooth="yes"/>
      <point x="316" y="-272"/>
      <point x="359" y="-299"/>
    </contour>
  </outline>
</glyph>
<glyph name="month-tamil" format="2">
  <advance width="940"/>
  <unicode hex="0BF4"/>
  <note>
uni0BF4
</note>
  <anchor x="367" y="0" name="bottom"/>
  <anchor x="681" y="565" name="imatra"/>
  <anchor x="368" y="0" name="nukta"/>
  <anchor x="375" y="565" name="top"/>
  <anchor x="385" y="565" name="vedic"/>
  <outline>
    <contour>
      <point x="603" y="477" type="curve"/>
      <point x="625" y="500" type="line"/>
      <point x="582" y="548"/>
      <point x="553" y="593"/>
      <point x="553" y="665" type="curve" smooth="yes"/>
      <point x="553" y="757"/>
      <point x="593" y="804"/>
      <point x="661" y="804" type="curve" smooth="yes"/>
      <point x="715" y="804"/>
      <point x="751" y="758"/>
      <point x="751" y="701" type="curve" smooth="yes"/>
      <point x="751" y="661"/>
      <point x="736" y="638"/>
      <point x="708" y="638" type="curve" smooth="yes"/>
      <point x="673" y="638"/>
      <point x="656" y="685"/>
      <point x="656" y="747" type="curve" smooth="yes"/>
      <point x="656" y="842"/>
      <point x="699" y="907"/>
      <point x="771" y="907" type="curve" smooth="yes"/>
      <point x="834" y="907"/>
      <point x="877" y="872"/>
      <point x="877" y="789" type="curve" smooth="yes"/>
      <point x="877" y="582" type="line"/>
      <point x="971" y="582" type="line"/>
      <point x="971" y="814" type="line" smooth="yes"/>
      <point x="971" y="878"/>
      <point x="996" y="915"/>
      <point x="1050" y="900" type="curve"/>
      <point x="1060" y="958" type="line"/>
      <point x="980" y="972"/>
      <point x="935" y="927"/>
      <point x="925" y="862" type="curve"/>
      <point x="921" y="862" type="line"/>
      <point x="900" y="925"/>
      <point x="845" y="963"/>
      <point x="775" y="963" type="curve" smooth="yes"/>
      <point x="668" y="963"/>
      <point x="601" y="869"/>
      <point x="601" y="744" type="curve" smooth="yes"/>
      <point x="601" y="648"/>
      <point x="639" y="576"/>
      <point x="721" y="576" type="curve" smooth="yes"/>
      <point x="787" y="576"/>
      <point x="829" y="622"/>
      <point x="829" y="697" type="curve" smooth="yes"/>
      <point x="829" y="795"/>
      <point x="767" y="862"/>
      <point x="662" y="862" type="curve" smooth="yes"/>
      <point x="561" y="862"/>
      <point x="497" y="782"/>
      <point x="497" y="677" type="curve" smooth="yes"/>
      <point x="497" y="595"/>
      <point x="536" y="539"/>
    </contour>
    <component base="ma-tamil"/>
  </outline>
</glyph>
<glyph name="year-tamil" format="2">
  <advance width="1864"/>
  <unicode hex="0BF5"/>
  <note>
uni0BF5
</note>
  <anchor x="705" y="0" name="bottom"/>
  <anchor x="1115" y="565" name="imatra"/>
  <anchor x="708" y="0" name="nukta"/>
  <anchor x="733" y="565" name="top"/>
  <anchor x="721" y="565" name="vedic"/>
  <outline>
    <contour>
      <point x="730" y="-265" type="curve" smooth="yes"/>
      <point x="1096" y="-265"/>
      <point x="1371" y="-140"/>
      <point x="1371" y="136" type="curve" smooth="yes"/>
      <point x="1371" y="271"/>
      <point x="1312" y="350"/>
      <point x="1220" y="350" type="curve" smooth="yes"/>
      <point x="1128" y="350"/>
      <point x="1089" y="275"/>
      <point x="1089" y="177" type="curve" smooth="yes"/>
      <point x="1089" y="139" type="line"/>
      <point x="1112" y="139" type="line"/>
      <point x="1112" y="175" type="line" smooth="yes"/>
      <point x="1112" y="223"/>
      <point x="1125" y="263"/>
      <point x="1168" y="263" type="curve" smooth="yes"/>
      <point x="1218" y="263"/>
      <point x="1238" y="216"/>
      <point x="1238" y="136" type="curve" smooth="yes"/>
      <point x="1238" y="-105"/>
      <point x="1031" y="-202"/>
      <point x="727" y="-202" type="curve" smooth="yes"/>
      <point x="358" y="-202"/>
      <point x="111" y="-46"/>
      <point x="111" y="278" type="curve" smooth="yes"/>
      <point x="111" y="598"/>
      <point x="355" y="774"/>
      <point x="796" y="774" type="curve" smooth="yes"/>
      <point x="1204" y="774"/>
      <point x="1448" y="611"/>
      <point x="1448" y="326" type="curve" smooth="yes"/>
      <point x="1448" y="168" type="line" smooth="yes"/>
      <point x="1448" y="56"/>
      <point x="1497" y="-2"/>
      <point x="1604" y="-2" type="curve" smooth="yes"/>
      <point x="1729" y="-2"/>
      <point x="1817" y="104"/>
      <point x="1817" y="292" type="curve" smooth="yes"/>
      <point x="1817" y="398"/>
      <point x="1790" y="476"/>
      <point x="1733" y="570" type="curve"/>
      <point x="1677" y="539" type="line"/>
      <point x="1725" y="457"/>
      <point x="1753" y="381"/>
      <point x="1753" y="292" type="curve" smooth="yes"/>
      <point x="1753" y="150"/>
      <point x="1699" y="71"/>
      <point x="1643" y="71" type="curve" smooth="yes"/>
      <point x="1608" y="71"/>
      <point x="1593" y="97"/>
      <point x="1593" y="162" type="curve" smooth="yes"/>
      <point x="1593" y="333" type="line" smooth="yes"/>
      <point x="1593" y="661"/>
      <point x="1270" y="837"/>
      <point x="801" y="837" type="curve" smooth="yes"/>
      <point x="295" y="837"/>
      <point x="46" y="622"/>
      <point x="46" y="275" type="curve" smooth="yes"/>
      <point x="46" y="-78"/>
      <point x="318" y="-265"/>
    </contour>
    <component base="lla-tamil" xOffset="177"/>
  </outline>
</glyph>
<glyph name="debit-tamil" format="2">
  <advance width="1007"/>
  <unicode hex="0BF6"/>
  <note>
uni0BF6
</note>
  <outline>
    <contour>
      <point x="311" y="-321" type="curve" smooth="yes"/>
      <point x="520" y="-321"/>
      <point x="668" y="-220"/>
      <point x="668" y="-14" type="curve" smooth="yes"/>
      <point x="668" y="565" type="line"/>
      <point x="526" y="565" type="line"/>
      <point x="526" y="-15" type="line" smooth="yes"/>
      <point x="526" y="-188"/>
      <point x="443" y="-261"/>
      <point x="293" y="-261" type="curve" smooth="yes"/>
      <point x="182" y="-261"/>
      <point x="102" y="-205"/>
      <point x="102" y="-145" type="curve" smooth="yes"/>
      <point x="102" y="-128"/>
      <point x="112" y="-118"/>
      <point x="131" y="-118" type="curve" smooth="yes"/>
      <point x="944" y="-118" type="line"/>
      <point x="944" y="565" type="line"/>
      <point x="800" y="565" type="line"/>
      <point x="800" y="-57" type="line"/>
      <point x="106" y="-57" type="line" smooth="yes"/>
      <point x="60" y="-57"/>
      <point x="31" y="-86"/>
      <point x="31" y="-132" type="curve" smooth="yes"/>
      <point x="31" y="-236"/>
      <point x="149" y="-321"/>
    </contour>
    <contour>
      <point x="64" y="14" type="line"/>
      <point x="599" y="14" type="line"/>
      <point x="599" y="76" type="line"/>
      <point x="208" y="76" type="line"/>
      <point x="208" y="565" type="line"/>
      <point x="64" y="565" type="line"/>
    </contour>
  </outline>
</glyph>
<glyph name="credit-tamil" format="2">
  <advance width="1286"/>
  <unicode hex="0BF7"/>
  <note>
uni0BF7
</note>
  <anchor x="407" y="0" name="bottom"/>
  <anchor x="407" y="0" name="nukta"/>
  <anchor x="410" y="565" name="top"/>
  <anchor x="410" y="565" name="vedic"/>
  <outline>
    <contour>
      <point x="848" y="-5" type="curve" smooth="yes"/>
      <point x="920" y="-5"/>
      <point x="983" y="46"/>
      <point x="983" y="146" type="curve" smooth="yes"/>
      <point x="983" y="258"/>
      <point x="913" y="329"/>
      <point x="798" y="329" type="curve" smooth="yes"/>
      <point x="713" y="329"/>
      <point x="649" y="283"/>
      <point x="602" y="217" type="curve"/>
      <point x="602" y="146" type="line"/>
      <point x="660" y="220"/>
      <point x="718" y="269"/>
      <point x="774" y="269" type="curve" smooth="yes"/>
      <point x="835" y="269"/>
      <point x="867" y="212"/>
      <point x="867" y="141" type="curve" smooth="yes"/>
      <point x="867" y="87"/>
      <point x="849" y="63"/>
      <point x="822" y="63" type="curve" smooth="yes"/>
      <point x="790" y="63"/>
      <point x="771" y="111"/>
      <point x="771" y="177" type="curve" smooth="yes"/>
      <point x="771" y="294"/>
      <point x="836" y="367"/>
      <point x="926" y="367" type="curve" smooth="yes"/>
      <point x="1019" y="367"/>
      <point x="1083" y="303"/>
      <point x="1083" y="194" type="curve" smooth="yes"/>
      <point x="1083" y="139"/>
      <point x="1062" y="85"/>
      <point x="1023" y="43" type="curve"/>
      <point x="1042" y="0" type="line"/>
      <point x="1270" y="0" type="line"/>
      <point x="1270" y="61" type="line"/>
      <point x="1082" y="61" type="line"/>
      <point x="1087" y="43" type="line"/>
      <point x="1147" y="81"/>
      <point x="1192" y="137"/>
      <point x="1192" y="213" type="curve" smooth="yes"/>
      <point x="1192" y="354"/>
      <point x="1088" y="432"/>
      <point x="953" y="432" type="curve" smooth="yes"/>
      <point x="807" y="432"/>
      <point x="713" y="329"/>
      <point x="713" y="181" type="curve" smooth="yes"/>
      <point x="713" y="72"/>
      <point x="754" y="-5"/>
    </contour>
    <component base="e-tamil"/>
  </outline>
</glyph>
<glyph name="rupee-tamil" format="2">
  <advance width="868"/>
  <unicode hex="0BF9"/>
  <note>
uni0BF9
</note>
  <outline>
    <contour>
      <point x="448" y="-286" type="curve" smooth="yes"/>
      <point x="656" y="-286"/>
      <point x="825" y="-141"/>
      <point x="825" y="110" type="curve" smooth="yes"/>
      <point x="825" y="256"/>
      <point x="776" y="350"/>
      <point x="676" y="350" type="curve" smooth="yes"/>
      <point x="598" y="350"/>
      <point x="550" y="286"/>
      <point x="550" y="182" type="curve" smooth="yes"/>
      <point x="550" y="153" type="line"/>
      <point x="568" y="153" type="line"/>
      <point x="568" y="179" type="line" smooth="yes"/>
      <point x="568" y="229"/>
      <point x="589" y="265"/>
      <point x="624" y="265" type="curve" smooth="yes"/>
      <point x="669" y="265"/>
      <point x="693" y="205"/>
      <point x="693" y="104" type="curve" smooth="yes"/>
      <point x="693" y="-115"/>
      <point x="591" y="-222"/>
      <point x="437" y="-222" type="curve" smooth="yes"/>
      <point x="231" y="-222"/>
      <point x="116" y="-22"/>
      <point x="116" y="298" type="curve" smooth="yes"/>
      <point x="116" y="623"/>
      <point x="195" y="822"/>
      <point x="315" y="822" type="curve" smooth="yes"/>
      <point x="375" y="822"/>
      <point x="405" y="777"/>
      <point x="405" y="732" type="curve" smooth="yes"/>
      <point x="405" y="692"/>
      <point x="385" y="675"/>
      <point x="360" y="675" type="curve" smooth="yes"/>
      <point x="330" y="675"/>
      <point x="309" y="710"/>
      <point x="309" y="757" type="curve" smooth="yes"/>
      <point x="309" y="840"/>
      <point x="354" y="892"/>
      <point x="433" y="892" type="curve" smooth="yes"/>
      <point x="505" y="892"/>
      <point x="553" y="841"/>
      <point x="553" y="771" type="curve" smooth="yes"/>
      <point x="553" y="729"/>
      <point x="538" y="691"/>
      <point x="518" y="662" type="curve"/>
      <point x="534" y="618" type="line"/>
      <point x="693" y="618" type="line"/>
      <point x="693" y="678" type="line"/>
      <point x="562" y="678" type="line"/>
      <point x="546" y="645" type="line"/>
      <point x="600" y="675"/>
      <point x="631" y="726"/>
      <point x="631" y="787" type="curve" smooth="yes"/>
      <point x="631" y="890"/>
      <point x="551" y="952"/>
      <point x="445" y="952" type="curve" smooth="yes"/>
      <point x="334" y="952"/>
      <point x="254" y="872"/>
      <point x="254" y="757" type="curve" smooth="yes"/>
      <point x="254" y="671"/>
      <point x="297" y="613"/>
      <point x="373" y="613" type="curve" smooth="yes"/>
      <point x="434" y="613"/>
      <point x="482" y="656"/>
      <point x="482" y="731" type="curve" smooth="yes"/>
      <point x="482" y="823"/>
      <point x="412" y="880"/>
      <point x="321" y="880" type="curve" smooth="yes"/>
      <point x="145" y="880"/>
      <point x="47" y="648"/>
      <point x="47" y="298" type="curve" smooth="yes"/>
      <point x="47" y="-51"/>
      <point x="188" y="-286"/>
    </contour>
    <contour>
      <point x="253" y="0" type="line"/>
      <point x="318" y="0" type="line"/>
      <point x="318" y="505" type="line"/>
      <point x="424" y="505" type="line"/>
      <point x="424" y="0" type="line"/>
      <point x="568" y="0" type="line"/>
      <point x="568" y="505" type="line"/>
      <point x="694" y="505" type="line"/>
      <point x="694" y="565" type="line"/>
      <point x="253" y="565" type="line"/>
    </contour>
  </outline>
</glyph>
<glyph name="number-tamil" format="2">
  <advance width="816"/>
  <unicode hex="0BFA"/>
  <note>
uni0BFA
</note>
  <anchor x="323" y="0" name="bottom"/>
  <anchor x="445" y="565" name="imatra"/>
  <anchor x="365" y="-201" name="nukta"/>
  <anchor x="324" y="565" name="top"/>
  <anchor x="343" y="565" name="vedic"/>
  <outline>
    <contour>
      <point x="631" y="505" type="line"/>
      <point x="813" y="505" type="line"/>
      <point x="813" y="565" type="line"/>
      <point x="660" y="565" type="line"/>
      <point x="665" y="537" type="line"/>
      <point x="740" y="589"/>
      <point x="794" y="655"/>
      <point x="794" y="761" type="curve" smooth="yes"/>
      <point x="794" y="891"/>
      <point x="710" y="971"/>
      <point x="600" y="971" type="curve" smooth="yes"/>
      <point x="486" y="971"/>
      <point x="413" y="873"/>
      <point x="413" y="762" type="curve" smooth="yes"/>
      <point x="413" y="673"/>
      <point x="451" y="609"/>
      <point x="533" y="609" type="curve" smooth="yes"/>
      <point x="597" y="609"/>
      <point x="642" y="657"/>
      <point x="642" y="726" type="curve" smooth="yes"/>
      <point x="642" y="824"/>
      <point x="572" y="884"/>
      <point x="473" y="884" type="curve" smooth="yes"/>
      <point x="376" y="884"/>
      <point x="305" y="810"/>
      <point x="305" y="700" type="curve" smooth="yes"/>
      <point x="305" y="602"/>
      <point x="365" y="525"/>
      <point x="453" y="522" type="curve"/>
      <point x="467" y="565" type="line"/>
      <point x="396" y="565"/>
      <point x="362" y="627"/>
      <point x="362" y="695" type="curve" smooth="yes"/>
      <point x="362" y="779"/>
      <point x="403" y="824"/>
      <point x="471" y="824" type="curve" smooth="yes"/>
      <point x="527" y="824"/>
      <point x="563" y="787"/>
      <point x="563" y="729" type="curve" smooth="yes"/>
      <point x="563" y="691"/>
      <point x="545" y="671"/>
      <point x="520" y="671" type="curve" smooth="yes"/>
      <point x="485" y="671"/>
      <point x="466" y="708"/>
      <point x="466" y="759" type="curve" smooth="yes"/>
      <point x="466" y="837"/>
      <point x="509" y="911"/>
      <point x="588" y="911" type="curve" smooth="yes"/>
      <point x="666" y="911"/>
      <point x="715" y="846"/>
      <point x="715" y="749" type="curve" smooth="yes"/>
      <point x="715" y="655"/>
      <point x="674" y="602"/>
      <point x="613" y="551" type="curve"/>
    </contour>
    <component base="na-tamil"/>
  </outline>
</glyph>
<glyph name="quotedblright" format="2">
  <advance width="402"/>
  <unicode hex="201D"/>
  <outline>
    <contour>
      <point x="203" y="416" type="line"/>
      <point x="310" y="451"/>
      <point x="351" y="527"/>
      <point x="351" y="612" type="curve" smooth="yes"/>
      <point x="351" y="676"/>
      <point x="321" y="714"/>
      <point x="275" y="714" type="curve" smooth="yes"/>
      <point x="241" y="714"/>
      <point x="215" y="691"/>
      <point x="215" y="649" type="curve" smooth="yes"/>
      <point x="215" y="574"/>
      <point x="274" y="585"/>
      <point x="274" y="547" type="curve"/>
      <point x="274" y="508"/>
      <point x="250" y="485"/>
      <point x="203" y="464" type="curve"/>
    </contour>
    <contour>
      <point x="45" y="416" type="line"/>
      <point x="152" y="451"/>
      <point x="193" y="527"/>
      <point x="193" y="612" type="curve" smooth="yes"/>
      <point x="193" y="676"/>
      <point x="163" y="714"/>
      <point x="116" y="714" type="curve" smooth="yes"/>
      <point x="82" y="714"/>
      <point x="57" y="691"/>
      <point x="57" y="649" type="curve" smooth="yes"/>
      <point x="57" y="574"/>
      <point x="116" y="585"/>
      <point x="116" y="547" type="curve"/>
      <point x="116" y="508"/>
      <point x="92" y="485"/>
      <point x="45" y="464" type="curve"/>
    </contour>
  </outline>
</glyph>
<glyph name="ellipsis" format="2">
  <advance width="749"/>
  <unicode hex="2026"/>
  <outline>
    <contour>
      <point x="615" y="-7" type="curve" smooth="yes"/>
      <point x="652" y="-7"/>
      <point x="684" y="11"/>
      <point x="684" y="68" type="curve" smooth="yes"/>
      <point x="684" y="126"/>
      <point x="652" y="144"/>
      <point x="615" y="144" type="curve" smooth="yes"/>
      <point x="577" y="144"/>
      <point x="546" y="126"/>
      <point x="546" y="68" type="curve" smooth="yes"/>
      <point x="546" y="11"/>
      <point x="577" y="-7"/>
    </contour>
    <contour>
      <point x="145" y="-7" type="curve" smooth="yes"/>
      <point x="181" y="-7"/>
      <point x="213" y="11"/>
      <point x="213" y="68" type="curve" smooth="yes"/>
      <point x="213" y="126"/>
      <point x="181" y="144"/>
      <point x="145" y="144" type="curve" smooth="yes"/>
      <point x="106" y="144"/>
      <point x="75" y="126"/>
      <point x="75" y="68" type="curve" smooth="yes"/>
      <point x="75" y="11"/>
      <point x="106" y="-7"/>
    </contour>
    <contour>
      <point x="379" y="-7" type="curve" smooth="yes"/>
      <point x="415" y="-7"/>
      <point x="447" y="11"/>
      <point x="447" y="68" type="curve" smooth="yes"/>
      <point x="447" y="126"/>
      <point x="415" y="144"/>
      <point x="379" y="144" type="curve" smooth="yes"/>
      <point x="340" y="144"/>
      <point x="310" y="126"/>
      <point x="310" y="68" type="curve" smooth="yes"/>
      <point x="310" y="11"/>
      <point x="340" y="-7"/>
    </contour>
  </outline>
</glyph>
<glyph name="foursuperior" format="2">
  <advance width="327"/>
  <unicode hex="2074"/>
  <outline>
    <contour>
      <point x="97" y="387" type="line"/>
      <point x="302" y="387" type="line"/>
      <point x="302" y="430" type="line"/>
      <point x="282" y="430" type="line"/>
      <point x="263" y="430"/>
      <point x="247" y="434"/>
      <point x="247" y="465" type="curve"/>
      <point x="247" y="513" type="line"/>
      <point x="309" y="513" type="line"/>
      <point x="309" y="564" type="line"/>
      <point x="247" y="564" type="line"/>
      <point x="247" y="819" type="line"/>
      <point x="164" y="819" type="line"/>
      <point x="9" y="551" type="line"/>
      <point x="9" y="513" type="line"/>
      <point x="162" y="513" type="line"/>
      <point x="162" y="465" type="line"/>
      <point x="162" y="434"/>
      <point x="145" y="430"/>
      <point x="127" y="430" type="curve"/>
      <point x="97" y="430" type="line"/>
    </contour>
    <contour>
      <point x="62" y="564" type="line"/>
      <point x="145" y="715" type="line"/>
      <point x="151" y="723"/>
      <point x="158" y="741"/>
      <point x="164" y="756" type="curve"/>
      <point x="161" y="731"/>
      <point x="161" y="705"/>
      <point x="161" y="684" type="curve"/>
      <point x="161" y="564" type="line"/>
    </contour>
  </outline>
</glyph>
<glyph name="rupeeIndian" format="2">
  <advance width="421"/>
  <unicode hex="20B9"/>
  <outline>
    <contour>
      <point x="321" y="0" type="curve" smooth="yes"/>
      <point x="391" y="0" type="line"/>
      <point x="391" y="52" type="line"/>
      <point x="379" y="52" type="line" smooth="yes"/>
      <point x="357" y="52"/>
      <point x="324" y="78"/>
      <point x="289" y="135" type="curve" smooth="yes"/>
      <point x="175" y="322" type="line"/>
      <point x="235" y="330"/>
      <point x="295" y="390"/>
      <point x="312" y="483" type="curve"/>
      <point x="377" y="483" type="line"/>
      <point x="377" y="540" type="line"/>
      <point x="317" y="540" type="line"/>
      <point x="315" y="589"/>
      <point x="305" y="628"/>
      <point x="283" y="656" type="curve"/>
      <point x="377" y="656" type="line"/>
      <point x="377" y="714" type="line"/>
      <point x="28" y="714" type="line"/>
      <point x="28" y="656" type="line"/>
      <point x="38" y="656" type="line" smooth="yes"/>
      <point x="107" y="656"/>
      <point x="151" y="623"/>
      <point x="157" y="540" type="curve"/>
      <point x="31" y="540" type="line"/>
      <point x="31" y="483" type="line"/>
      <point x="155" y="483" type="line"/>
      <point x="146" y="396"/>
      <point x="126" y="362"/>
      <point x="60" y="362" type="curve" smooth="yes"/>
      <point x="28" y="362" type="line"/>
      <point x="28" y="317" type="line"/>
      <point x="150" y="95" type="line" smooth="yes"/>
      <point x="189" y="24"/>
      <point x="227" y="0"/>
    </contour>
  </outline>
</glyph>
<glyph name="minus" format="2">
  <advance width="425"/>
  <unicode hex="2212"/>
  <outline>
    <contour>
      <point x="38" y="324" type="line"/>
      <point x="387" y="324" type="line"/>
      <point x="387" y="391" type="line"/>
      <point x="38" y="391" type="line"/>
    </contour>
  </outline>
</glyph>
<glyph name="dottedCircle" format="2">
  <advance width="594"/>
  <unicode hex="25CC"/>
  <anchor x="297" y="300" name="bottom"/>
  <anchor x="297" y="554" name="imatra"/>
  <anchor x="297" y="0" name="nukta"/>
  <anchor x="297" y="554" name="top"/>
  <anchor x="297" y="304" name="vedic"/>
  <outline>
    <contour>
      <point x="382" y="469" type="curve" smooth="yes"/>
      <point x="400" y="469"/>
      <point x="410" y="480"/>
      <point x="410" y="496" type="curve" smooth="yes"/>
      <point x="410" y="513"/>
      <point x="400" y="523"/>
      <point x="382" y="523" type="curve" smooth="yes"/>
      <point x="363" y="523"/>
      <point x="353" y="513"/>
      <point x="353" y="496" type="curve" smooth="yes"/>
      <point x="353" y="480"/>
      <point x="363" y="469"/>
    </contour>
    <contour>
      <point x="140" y="106" type="curve" smooth="yes"/>
      <point x="158" y="106"/>
      <point x="169" y="117"/>
      <point x="169" y="133" type="curve" smooth="yes"/>
      <point x="169" y="149"/>
      <point x="158" y="161"/>
      <point x="140" y="161" type="curve" smooth="yes"/>
      <point x="122" y="161"/>
      <point x="111" y="149"/>
      <point x="111" y="133" type="curve" smooth="yes"/>
      <point x="111" y="117"/>
      <point x="122" y="106"/>
    </contour>
    <contour>
      <point x="92" y="180" type="curve" smooth="yes"/>
      <point x="109" y="180"/>
      <point x="120" y="190"/>
      <point x="120" y="207" type="curve" smooth="yes"/>
      <point x="120" y="223"/>
      <point x="109" y="234"/>
      <point x="92" y="234" type="curve" smooth="yes"/>
      <point x="74" y="234"/>
      <point x="63" y="223"/>
      <point x="63" y="207" type="curve" smooth="yes"/>
      <point x="63" y="190"/>
      <point x="74" y="180"/>
    </contour>
    <contour>
      <point x="212" y="59" type="curve" smooth="yes"/>
      <point x="230" y="59"/>
      <point x="241" y="70"/>
      <point x="241" y="86" type="curve" smooth="yes"/>
      <point x="241" y="103"/>
      <point x="230" y="113"/>
      <point x="212" y="113" type="curve" smooth="yes"/>
      <point x="194" y="113"/>
      <point x="184" y="102"/>
      <point x="184" y="85" type="curve" smooth="yes"/>
      <point x="184" y="69"/>
      <point x="194" y="59"/>
    </contour>
    <contour>
      <point x="75" y="264" type="curve" smooth="yes"/>
      <point x="92" y="264"/>
      <point x="103" y="275"/>
      <point x="103" y="291" type="curve" smooth="yes"/>
      <point x="103" y="307"/>
      <point x="92" y="318"/>
      <point x="75" y="318" type="curve" smooth="yes"/>
      <point x="57" y="318"/>
      <point x="46" y="307"/>
      <point x="46" y="291" type="curve" smooth="yes"/>
      <point x="46" y="275"/>
      <point x="57" y="264"/>
    </contour>
    <contour>
      <point x="297" y="41" type="curve" smooth="yes"/>
      <point x="314" y="41"/>
      <point x="325" y="52"/>
      <point x="325" y="68" type="curve" smooth="yes"/>
      <point x="325" y="84"/>
      <point x="314" y="96"/>
      <point x="297" y="96" type="curve" smooth="yes"/>
      <point x="279" y="96"/>
      <point x="269" y="84"/>
      <point x="269" y="68" type="curve" smooth="yes"/>
      <point x="269" y="52"/>
      <point x="279" y="41"/>
    </contour>
    <contour>
      <point x="93" y="348" type="curve" smooth="yes"/>
      <point x="110" y="348"/>
      <point x="120" y="359"/>
      <point x="120" y="375" type="curve" smooth="yes"/>
      <point x="120" y="392"/>
      <point x="109" y="402"/>
      <point x="92" y="402" type="curve" smooth="yes"/>
      <point x="74" y="402"/>
      <point x="63" y="392"/>
      <point x="63" y="375" type="curve" smooth="yes"/>
      <point x="63" y="359"/>
      <point x="74" y="348"/>
    </contour>
    <contour>
      <point x="382" y="59" type="curve" smooth="yes"/>
      <point x="400" y="59"/>
      <point x="410" y="69"/>
      <point x="410" y="85" type="curve" smooth="yes"/>
      <point x="410" y="102"/>
      <point x="400" y="113"/>
      <point x="382" y="113" type="curve" smooth="yes"/>
      <point x="363" y="113"/>
      <point x="353" y="102"/>
      <point x="353" y="85" type="curve" smooth="yes"/>
      <point x="353" y="69"/>
      <point x="363" y="59"/>
    </contour>
    <contour>
      <point x="455" y="106" type="curve" smooth="yes"/>
      <point x="473" y="106"/>
      <point x="482" y="117"/>
      <point x="482" y="133" type="curve" smooth="yes"/>
      <point x="482" y="149"/>
      <point x="473" y="161"/>
      <point x="455" y="161" type="curve" smooth="yes"/>
      <point x="437" y="161"/>
      <point x="426" y="149"/>
      <point x="426" y="133" type="curve" smooth="yes"/>
      <point x="426" y="117"/>
      <point x="437" y="106"/>
    </contour>
    <contour>
      <point x="140" y="421" type="curve" smooth="yes"/>
      <point x="158" y="421"/>
      <point x="169" y="433"/>
      <point x="169" y="449" type="curve" smooth="yes"/>
      <point x="169" y="465"/>
      <point x="158" y="476"/>
      <point x="140" y="476" type="curve" smooth="yes"/>
      <point x="122" y="476"/>
      <point x="111" y="465"/>
      <point x="111" y="448" type="curve" smooth="yes"/>
      <point x="111" y="432"/>
      <point x="122" y="421"/>
    </contour>
    <contour>
      <point x="212" y="469" type="curve" smooth="yes"/>
      <point x="230" y="469"/>
      <point x="241" y="480"/>
      <point x="241" y="496" type="curve" smooth="yes"/>
      <point x="241" y="513"/>
      <point x="230" y="523"/>
      <point x="212" y="523" type="curve" smooth="yes"/>
      <point x="194" y="523"/>
      <point x="184" y="513"/>
      <point x="184" y="496" type="curve" smooth="yes"/>
      <point x="184" y="480"/>
      <point x="194" y="469"/>
    </contour>
    <contour>
      <point x="502" y="180" type="curve" smooth="yes"/>
      <point x="521" y="180"/>
      <point x="531" y="190"/>
      <point x="531" y="207" type="curve" smooth="yes"/>
      <point x="531" y="223"/>
      <point x="521" y="234"/>
      <point x="502" y="234" type="curve" smooth="yes"/>
      <point x="484" y="234"/>
      <point x="474" y="223"/>
      <point x="474" y="207" type="curve" smooth="yes"/>
      <point x="474" y="190"/>
      <point x="484" y="180"/>
    </contour>
    <contour>
      <point x="297" y="486" type="curve" smooth="yes"/>
      <point x="314" y="486"/>
      <point x="325" y="498"/>
      <point x="325" y="514" type="curve" smooth="yes"/>
      <point x="325" y="530"/>
      <point x="314" y="541"/>
      <point x="297" y="541" type="curve" smooth="yes"/>
      <point x="279" y="541"/>
      <point x="269" y="530"/>
      <point x="269" y="514" type="curve" smooth="yes"/>
      <point x="269" y="498"/>
      <point x="279" y="486"/>
    </contour>
    <contour>
      <point x="521" y="264" type="curve" smooth="yes"/>
      <point x="539" y="264"/>
      <point x="548" y="275"/>
      <point x="548" y="291" type="curve" smooth="yes"/>
      <point x="548" y="307"/>
      <point x="539" y="318"/>
      <point x="521" y="318" type="curve" smooth="yes"/>
      <point x="502" y="318"/>
      <point x="492" y="307"/>
      <point x="492" y="291" type="curve" smooth="yes"/>
      <point x="492" y="275"/>
      <point x="502" y="264"/>
    </contour>
    <contour>
      <point x="502" y="348" type="curve" smooth="yes"/>
      <point x="521" y="348"/>
      <point x="531" y="359"/>
      <point x="531" y="375" type="curve" smooth="yes"/>
      <point x="531" y="392"/>
      <point x="521" y="402"/>
      <point x="503" y="402" type="curve" smooth="yes"/>
      <point x="484" y="402"/>
      <point x="474" y="392"/>
      <point x="474" y="375" type="curve" smooth="yes"/>
      <point x="474" y="359"/>
      <point x="484" y="348"/>
    </contour>
    <contour>
      <point x="455" y="421" type="curve" smooth="yes"/>
      <point x="473" y="421"/>
      <point x="482" y="433"/>
      <point x="482" y="449" type="curve" smooth="yes"/>
      <point x="482" y="465"/>
      <point x="473" y="476"/>
      <point x="455" y="476" type="curve" smooth="yes"/>
      <point x="437" y="476"/>
      <point x="426" y="465"/>
      <point x="426" y="449" type="curve" smooth="yes"/>
      <point x="426" y="433"/>
      <point x="437" y="421"/>
    </contour>
  </outline>
</glyph>
<glyph name="candrabinduhalant-deva" format="2">
  <advance width="406"/>
  <unicode hex="A8F3"/>
  <note>
uniA8F3
</note>
  <outline>
    <contour>
      <point x="200" y="330" type="curve" smooth="yes"/>
      <point x="295" y="330"/>
      <point x="363" y="399"/>
      <point x="375" y="533" type="curve"/>
      <point x="291" y="549" type="line"/>
      <point x="285" y="454"/>
      <point x="249" y="411"/>
      <point x="189" y="411" type="curve" smooth="yes"/>
      <point x="137" y="411"/>
      <point x="102" y="453"/>
      <point x="91" y="544" type="curve"/>
      <point x="34" y="531" type="line"/>
      <point x="47" y="404"/>
      <point x="99" y="330"/>
    </contour>
    <contour>
      <point x="193" y="481" type="curve" smooth="yes"/>
      <point x="218" y="481"/>
      <point x="241" y="493"/>
      <point x="241" y="528" type="curve" smooth="yes"/>
      <point x="241" y="563"/>
      <point x="218" y="575"/>
      <point x="193" y="575" type="curve" smooth="yes"/>
      <point x="165" y="575"/>
      <point x="144" y="563"/>
      <point x="144" y="528" type="curve" smooth="yes"/>
      <point x="144" y="493"/>
      <point x="165" y="481"/>
    </contour>
    <contour>
      <point x="314" y="31" type="curve"/>
      <point x="367" y="58" type="line"/>
      <point x="279" y="229"/>
      <point x="249" y="265"/>
      <point x="162" y="265" type="curve" smooth="yes"/>
      <point x="137" y="265"/>
      <point x="117" y="256"/>
      <point x="104" y="253" type="curve"/>
      <point x="137" y="161" type="line"/>
      <point x="155" y="168"/>
      <point x="168" y="172"/>
      <point x="188" y="172" type="curve" smooth="yes"/>
      <point x="235" y="172"/>
      <point x="254" y="148"/>
    </contour>
  </outline>
</glyph>
<glyph name="u11301" format="2">
  <unicode hex="11301"/>
  <anchor x="0" y="565" name="_vedic"/>
  <outline>
    <contour>
      <point x="12" y="934" type="curve" smooth="yes"/>
      <point x="119" y="934"/>
      <point x="177" y="988"/>
      <point x="177" y="1063" type="curve" smooth="yes"/>
      <point x="177" y="1095"/>
      <point x="164" y="1136"/>
      <point x="123" y="1136" type="curve" smooth="yes"/>
      <point x="117" y="1136"/>
      <point x="105" y="1135"/>
      <point x="99" y="1132" type="curve"/>
      <point x="106" y="1118"/>
      <point x="109" y="1097"/>
      <point x="109" y="1081" type="curve" smooth="yes"/>
      <point x="109" y="1024"/>
      <point x="74" y="1001"/>
      <point x="19" y="1001" type="curve" smooth="yes"/>
      <point x="-47" y="1001"/>
      <point x="-80" y="1026"/>
      <point x="-80" y="1085" type="curve" smooth="yes"/>
      <point x="-80" y="1101"/>
      <point x="-77" y="1119"/>
      <point x="-72" y="1133" type="curve"/>
      <point x="-80" y="1136"/>
      <point x="-90" y="1138"/>
      <point x="-102" y="1138" type="curve" smooth="yes"/>
      <point x="-147" y="1138"/>
      <point x="-176" y="1103"/>
      <point x="-176" y="1056" type="curve" smooth="yes"/>
      <point x="-176" y="998"/>
      <point x="-132" y="934"/>
    </contour>
    <contour>
      <point x="13" y="1036" type="curve" smooth="yes"/>
      <point x="51" y="1036"/>
      <point x="70" y="1056"/>
      <point x="70" y="1086" type="curve" smooth="yes"/>
      <point x="70" y="1116"/>
      <point x="51" y="1138"/>
      <point x="13" y="1138" type="curve" smooth="yes"/>
      <point x="-24" y="1138"/>
      <point x="-42" y="1116"/>
      <point x="-42" y="1088" type="curve" smooth="yes"/>
      <point x="-42" y="1056"/>
      <point x="-23" y="1036"/>
    </contour>
  </outline>
</glyph>
<glyph name="visarga-grantha" format="2">
  <advance width="262"/>
  <unicode hex="11303"/>
  <outline>
    <contour>
      <point x="133" y="-4" type="curve" smooth="yes"/>
      <point x="203" y="-4"/>
      <point x="257" y="41"/>
      <point x="257" y="112" type="curve" smooth="yes"/>
      <point x="257" y="184"/>
      <point x="203" y="229"/>
      <point x="133" y="229" type="curve" smooth="yes"/>
      <point x="64" y="229"/>
      <point x="10" y="184"/>
      <point x="10" y="112" type="curve" smooth="yes"/>
      <point x="10" y="41"/>
      <point x="64" y="-4"/>
    </contour>
    <contour>
      <point x="133" y="64" type="curve" smooth="yes"/>
      <point x="104" y="64"/>
      <point x="86" y="84"/>
      <point x="86" y="113" type="curve" smooth="yes"/>
      <point x="86" y="142"/>
      <point x="104" y="162"/>
      <point x="133" y="162" type="curve" smooth="yes"/>
      <point x="163" y="162"/>
      <point x="180" y="142"/>
      <point x="180" y="113" type="curve" smooth="yes"/>
      <point x="180" y="84"/>
      <point x="163" y="64"/>
    </contour>
    <contour>
      <point x="133" y="340" type="curve" smooth="yes"/>
      <point x="203" y="340"/>
      <point x="257" y="386"/>
      <point x="257" y="458" type="curve" smooth="yes"/>
      <point x="257" y="529"/>
      <point x="203" y="574"/>
      <point x="133" y="574" type="curve" smooth="yes"/>
      <point x="64" y="574"/>
      <point x="10" y="529"/>
      <point x="10" y="458" type="curve" smooth="yes"/>
      <point x="10" y="386"/>
      <point x="64" y="340"/>
    </contour>
    <contour>
      <point x="133" y="409" type="curve" smooth="yes"/>
      <point x="104" y="409"/>
      <point x="86" y="429"/>
      <point x="86" y="458" type="curve" smooth="yes"/>
      <point x="86" y="486"/>
      <point x="104" y="506"/>
      <point x="133" y="506" type="curve" smooth="yes"/>
      <point x="163" y="506"/>
      <point x="180" y="486"/>
      <point x="180" y="458" type="curve" smooth="yes"/>
      <point x="180" y="429"/>
      <point x="163" y="409"/>
    </contour>
  </outline>
</glyph>
<glyph name="u1133B" format="2">
  <unicode hex="1133B"/>
  <anchor x="0" y="0" name="_nukta"/>
  <outline>
    <contour>
      <point x="0" y="-193" type="curve" smooth="yes"/>
      <point x="42" y="-193"/>
      <point x="77" y="-160"/>
      <point x="77" y="-121" type="curve" smooth="yes"/>
      <point x="77" y="-83"/>
      <point x="42" y="-50"/>
      <point x="0" y="-50" type="curve" smooth="yes"/>
      <point x="-42" y="-50"/>
      <point x="-76" y="-83"/>
      <point x="-76" y="-121" type="curve" smooth="yes"/>
      <point x="-76" y="-160"/>
      <point x="-42" y="-193"/>
    </contour>
  </outline>
</glyph>
<glyph name="nukta-grantha" format="2">
  <unicode hex="1133C"/>
  <anchor x="0" y="0" name="_nukta"/>
  <outline>
    <contour>
      <point x="-111" y="-193" type="curve" smooth="yes"/>
      <point x="-69" y="-193"/>
      <point x="-34" y="-160"/>
      <point x="-34" y="-121" type="curve" smooth="yes"/>
      <point x="-34" y="-83"/>
      <point x="-69" y="-50"/>
      <point x="-111" y="-50" type="curve" smooth="yes"/>
      <point x="-153" y="-50"/>
      <point x="-187" y="-83"/>
      <point x="-187" y="-121" type="curve" smooth="yes"/>
      <point x="-187" y="-160"/>
      <point x="-153" y="-193"/>
    </contour>
    <contour>
      <point x="111" y="-193" type="curve" smooth="yes"/>
      <point x="153" y="-193"/>
      <point x="188" y="-160"/>
      <point x="188" y="-121" type="curve" smooth="yes"/>
      <point x="188" y="-83"/>
      <point x="153" y="-50"/>
      <point x="111" y="-50" type="curve" smooth="yes"/>
      <point x="69" y="-50"/>
      <point x="35" y="-83"/>
      <point x="35" y="-121" type="curve" smooth="yes"/>
      <point x="35" y="-160"/>
      <point x="69" y="-193"/>
    </contour>
  </outline>
</glyph>
<glyph name="anusvara-tamil.alt" format="2">
  <note>
uni0B82
</note>
  <anchor x="0" y="435" name="_top"/>
  <outline>
    <contour>
      <point x="0" y="628" type="curve" smooth="yes"/>
      <point x="71" y="628"/>
      <point x="127" y="680"/>
      <point x="127" y="751" type="curve" smooth="yes"/>
      <point x="127" y="822"/>
      <point x="71" y="873"/>
      <point x="0" y="873" type="curve" smooth="yes"/>
      <point x="-71" y="873"/>
      <point x="-127" y="822"/>
      <point x="-127" y="751" type="curve" smooth="yes"/>
      <point x="-127" y="680"/>
      <point x="-71" y="628"/>
    </contour>
    <contour>
      <point x="0" y="698" type="curve" smooth="yes"/>
      <point x="-29" y="698"/>
      <point x="-53" y="721"/>
      <point x="-53" y="751" type="curve" smooth="yes"/>
      <point x="-53" y="781"/>
      <point x="-29" y="804"/>
      <point x="0" y="804" type="curve" smooth="yes"/>
      <point x="29" y="804"/>
      <point x="53" y="781"/>
      <point x="53" y="751" type="curve" smooth="yes"/>
      <point x="53" y="721"/>
      <point x="29" y="698"/>
    </contour>
  </outline>
</glyph>
<glyph name="cii-tamil" format="2">
  <advance width="604"/>
  <note>
uni0B9A
</note>
  <anchor x="307" y="0" name="bottom"/>
  <anchor x="296" y="0" name="nukta"/>
  <anchor x="463" y="906" name="top"/>
  <anchor x="353" y="565" name="vedic"/>
  <outline>
    <contour>
      <point x="231" y="-4" type="curve" smooth="yes"/>
      <point x="364" y="-4"/>
      <point x="444" y="66"/>
      <point x="444" y="202" type="curve" smooth="yes"/>
      <point x="444" y="268" type="line"/>
      <point x="565" y="268" type="line"/>
      <point x="565" y="329" type="line"/>
      <point x="444" y="329" type="line"/>
      <point x="444" y="504" type="line"/>
      <point x="565" y="504" type="line"/>
      <point x="565" y="565" type="line"/>
      <point x="135" y="565" type="line"/>
      <point x="135" y="294" type="line"/>
      <point x="200" y="294" type="line"/>
      <point x="200" y="504" type="line"/>
      <point x="300" y="504" type="line"/>
      <point x="300" y="329" type="line"/>
      <point x="189" y="329" type="line" smooth="yes"/>
      <point x="111" y="329"/>
      <point x="43" y="266"/>
      <point x="43" y="170" type="curve" smooth="yes"/>
      <point x="43" y="68"/>
      <point x="105" y="-4"/>
    </contour>
    <contour>
      <point x="200" y="64" type="curve" smooth="yes"/>
      <point x="147" y="64"/>
      <point x="109" y="101"/>
      <point x="109" y="168" type="curve" smooth="yes"/>
      <point x="109" y="228"/>
      <point x="134" y="268"/>
      <point x="193" y="268" type="curve" smooth="yes"/>
      <point x="300" y="268" type="line"/>
      <point x="300" y="190" type="line" smooth="yes"/>
      <point x="300" y="99"/>
      <point x="258" y="64"/>
    </contour>
    <component base="iiMatra-tamil" xOffset="466"/>
  </outline>
</glyph>
<glyph name="cu-tamil" format="2">
  <advance width="749"/>
  <note>
g106
</note>
  <anchor x="379" y="0" name="bottom"/>
  <anchor x="379" y="0" name="nukta"/>
  <anchor x="384" y="565" name="top"/>
  <anchor x="408" y="565" name="vedic"/>
  <outline>
    <contour>
      <point x="231" y="-4" type="curve" smooth="yes"/>
      <point x="364" y="-4"/>
      <point x="444" y="66"/>
      <point x="444" y="202" type="curve" smooth="yes"/>
      <point x="444" y="268" type="line"/>
      <point x="532" y="268" type="line"/>
      <point x="532" y="0" type="line"/>
      <point x="657" y="0" type="line"/>
      <point x="657" y="268" type="line"/>
      <point x="736" y="268" type="line"/>
      <point x="736" y="329" type="line"/>
      <point x="444" y="329" type="line"/>
      <point x="444" y="504" type="line"/>
      <point x="565" y="504" type="line"/>
      <point x="565" y="565" type="line"/>
      <point x="135" y="565" type="line"/>
      <point x="135" y="294" type="line"/>
      <point x="200" y="294" type="line"/>
      <point x="200" y="504" type="line"/>
      <point x="300" y="504" type="line"/>
      <point x="300" y="329" type="line"/>
      <point x="189" y="329" type="line" smooth="yes"/>
      <point x="111" y="329"/>
      <point x="43" y="266"/>
      <point x="43" y="170" type="curve" smooth="yes"/>
      <point x="43" y="68"/>
      <point x="105" y="-4"/>
    </contour>
    <contour>
      <point x="200" y="64" type="curve" smooth="yes"/>
      <point x="147" y="64"/>
      <point x="109" y="101"/>
      <point x="109" y="168" type="curve" smooth="yes"/>
      <point x="109" y="228"/>
      <point x="134" y="268"/>
      <point x="193" y="268" type="curve" smooth="yes"/>
      <point x="300" y="268" type="line"/>
      <point x="300" y="190" type="line" smooth="yes"/>
      <point x="300" y="99"/>
      <point x="258" y="64"/>
    </contour>
  </outline>
</glyph>
<glyph name="cuu-tamil" format="2">
  <advance width="1046"/>
  <note>
g107
</note>
  <anchor x="553" y="0" name="bottom"/>
  <anchor x="540" y="-265" name="nukta"/>
  <anchor x="562" y="565" name="top"/>
  <anchor x="573" y="565" name="vedic"/>
  <outline>
    <contour>
      <point x="540" y="-265" type="curve" smooth="yes"/>
      <point x="782" y="-265"/>
      <point x="1002" y="-157"/>
      <point x="1002" y="42" type="curve" smooth="yes"/>
      <point x="1002" y="137"/>
      <point x="963" y="189"/>
      <point x="900" y="189" type="curve" smooth="yes"/>
      <point x="837" y="189"/>
      <point x="811" y="130"/>
      <point x="811" y="76" type="curve" smooth="yes"/>
      <point x="811" y="48" type="line"/>
      <point x="825" y="48" type="line"/>
      <point x="825" y="74" type="line" smooth="yes"/>
      <point x="825" y="99"/>
      <point x="837" y="120"/>
      <point x="858" y="120" type="curve" smooth="yes"/>
      <point x="885" y="120"/>
      <point x="899" y="94"/>
      <point x="899" y="38" type="curve" smooth="yes"/>
      <point x="899" y="-127"/>
      <point x="726" y="-202"/>
      <point x="531" y="-202" type="curve" smooth="yes"/>
      <point x="318" y="-202"/>
      <point x="112" y="-81"/>
      <point x="112" y="173" type="curve" smooth="yes"/>
      <point x="112" y="288"/>
      <point x="147" y="378"/>
      <point x="201" y="476" type="curve"/>
      <point x="145" y="506" type="line"/>
      <point x="82" y="396"/>
      <point x="47" y="297"/>
      <point x="47" y="170" type="curve" smooth="yes"/>
      <point x="47" y="-106"/>
      <point x="275" y="-265"/>
    </contour>
    <contour>
      <point x="400" y="-4" type="curve" smooth="yes"/>
      <point x="533" y="-4"/>
      <point x="613" y="66"/>
      <point x="613" y="202" type="curve" smooth="yes"/>
      <point x="613" y="268" type="line"/>
      <point x="701" y="268" type="line"/>
      <point x="701" y="0" type="line"/>
      <point x="826" y="0" type="line"/>
      <point x="826" y="268" type="line"/>
      <point x="904" y="268" type="line"/>
      <point x="904" y="329" type="line"/>
      <point x="613" y="329" type="line"/>
      <point x="613" y="504" type="line"/>
      <point x="733" y="504" type="line"/>
      <point x="733" y="565" type="line"/>
      <point x="304" y="565" type="line"/>
      <point x="304" y="294" type="line"/>
      <point x="369" y="294" type="line"/>
      <point x="369" y="504" type="line"/>
      <point x="469" y="504" type="line"/>
      <point x="469" y="329" type="line"/>
      <point x="358" y="329" type="line" smooth="yes"/>
      <point x="280" y="329"/>
      <point x="212" y="266"/>
      <point x="212" y="170" type="curve" smooth="yes"/>
      <point x="212" y="68"/>
      <point x="274" y="-4"/>
    </contour>
    <contour>
      <point x="369" y="64" type="curve" smooth="yes"/>
      <point x="316" y="64"/>
      <point x="277" y="101"/>
      <point x="277" y="168" type="curve" smooth="yes"/>
      <point x="277" y="228"/>
      <point x="303" y="268"/>
      <point x="361" y="268" type="curve" smooth="yes"/>
      <point x="469" y="268" type="line"/>
      <point x="469" y="190" type="line" smooth="yes"/>
      <point x="469" y="99"/>
      <point x="427" y="64"/>
    </contour>
  </outline>
</glyph>
<glyph name="iMatra-tamil.alt01" format="2">
  <advance width="192"/>
  <note>
uni0BBF
</note>
  <outline>
    <contour>
      <point x="63" y="0" type="line"/>
      <point x="129" y="0" type="line"/>
      <point x="129" y="566" type="line" smooth="yes"/>
      <point x="129" y="757"/>
      <point x="18" y="831"/>
      <point x="-105" y="831" type="curve" smooth="yes"/>
      <point x="-217" y="831"/>
      <point x="-287" y="756"/>
      <point x="-287" y="658" type="curve" smooth="yes"/>
      <point x="-287" y="587"/>
      <point x="-248" y="545"/>
      <point x="-180" y="507" type="curve"/>
      <point x="-157" y="538" type="line"/>
      <point x="-190" y="563"/>
      <point x="-206" y="591"/>
      <point x="-206" y="626" type="curve" smooth="yes"/>
      <point x="-206" y="672"/>
      <point x="-174" y="716"/>
      <point x="-101" y="716" type="curve" smooth="yes"/>
      <point x="-20" y="716"/>
      <point x="63" y="672"/>
      <point x="63" y="531" type="curve" smooth="yes"/>
    </contour>
  </outline>
</glyph>
<glyph name="iMatra-tamil.alt02" format="2">
  <advance width="199"/>
  <note>
uni0BBF
</note>
  <outline>
    <contour>
      <point x="70" y="0" type="line"/>
      <point x="136" y="0" type="line"/>
      <point x="136" y="525" type="line" smooth="yes"/>
      <point x="136" y="729"/>
      <point x="-3" y="831"/>
      <point x="-181" y="831" type="curve" smooth="yes"/>
      <point x="-333" y="831"/>
      <point x="-420" y="738"/>
      <point x="-420" y="629" type="curve" smooth="yes"/>
      <point x="-420" y="570"/>
      <point x="-387" y="535"/>
      <point x="-343" y="500" type="curve"/>
      <point x="-312" y="528" type="line"/>
      <point x="-331" y="550"/>
      <point x="-340" y="568"/>
      <point x="-340" y="603" type="curve" smooth="yes"/>
      <point x="-340" y="663"/>
      <point x="-285" y="716"/>
      <point x="-179" y="716" type="curve" smooth="yes"/>
      <point x="-45" y="716"/>
      <point x="70" y="641"/>
      <point x="70" y="489" type="curve" smooth="yes"/>
    </contour>
  </outline>
</glyph>
<glyph name="iiMatra-tamil.alt01" format="2">
  <note>
uni0BC0
</note>
  <outline>
    <contour>
      <point x="-190" y="505" type="curve"/>
      <point x="-163" y="543" type="line"/>
      <point x="-206" y="576"/>
      <point x="-237" y="625"/>
      <point x="-237" y="695" type="curve" smooth="yes"/>
      <point x="-237" y="780"/>
      <point x="-199" y="840"/>
      <point x="-124" y="840" type="curve" smooth="yes"/>
      <point x="-69" y="840"/>
      <point x="-42" y="802"/>
      <point x="-42" y="746" type="curve" smooth="yes"/>
      <point x="-42" y="704"/>
      <point x="-60" y="679"/>
      <point x="-90" y="679" type="curve" smooth="yes"/>
      <point x="-122" y="679"/>
      <point x="-139" y="715"/>
      <point x="-139" y="763" type="curve" smooth="yes"/>
      <point x="-139" y="793"/>
      <point x="-132" y="828"/>
      <point x="-119" y="862" type="curve"/>
      <point x="-164" y="867" type="line"/>
      <point x="-181" y="829"/>
      <point x="-190" y="789"/>
      <point x="-190" y="752" type="curve" smooth="yes"/>
      <point x="-190" y="671"/>
      <point x="-148" y="606"/>
      <point x="-61" y="606" type="curve" smooth="yes"/>
      <point x="14" y="606"/>
      <point x="68" y="660"/>
      <point x="68" y="740" type="curve" smooth="yes"/>
      <point x="68" y="837"/>
      <point x="0" y="902"/>
      <point x="-109" y="902" type="curve" smooth="yes"/>
      <point x="-230" y="902"/>
      <point x="-299" y="811"/>
      <point x="-299" y="700" type="curve" smooth="yes"/>
      <point x="-299" y="615"/>
      <point x="-265" y="558"/>
    </contour>
  </outline>
</glyph>
<glyph name="iiMatra-tamil.alt02" format="2">
  <note>
uni0BC0
</note>
  <outline>
    <contour>
      <point x="-355" y="509" type="curve"/>
      <point x="-333" y="547" type="line"/>
      <point x="-381" y="577"/>
      <point x="-414" y="627"/>
      <point x="-414" y="699" type="curve" smooth="yes"/>
      <point x="-414" y="783"/>
      <point x="-375" y="843"/>
      <point x="-299" y="843" type="curve" smooth="yes"/>
      <point x="-245" y="843"/>
      <point x="-216" y="805"/>
      <point x="-216" y="748" type="curve" smooth="yes"/>
      <point x="-216" y="706"/>
      <point x="-235" y="680"/>
      <point x="-265" y="680" type="curve" smooth="yes"/>
      <point x="-298" y="680"/>
      <point x="-315" y="716"/>
      <point x="-315" y="765" type="curve" smooth="yes"/>
      <point x="-315" y="795"/>
      <point x="-308" y="831"/>
      <point x="-294" y="866" type="curve"/>
      <point x="-339" y="870" type="line"/>
      <point x="-357" y="831"/>
      <point x="-366" y="791"/>
      <point x="-366" y="753" type="curve" smooth="yes"/>
      <point x="-366" y="672"/>
      <point x="-323" y="607"/>
      <point x="-236" y="607" type="curve" smooth="yes"/>
      <point x="-161" y="607"/>
      <point x="-106" y="662"/>
      <point x="-106" y="742" type="curve" smooth="yes"/>
      <point x="-106" y="841"/>
      <point x="-174" y="906"/>
      <point x="-285" y="906" type="curve" smooth="yes"/>
      <point x="-406" y="906"/>
      <point x="-477" y="814"/>
      <point x="-477" y="704" type="curve" smooth="yes"/>
      <point x="-477" y="613"/>
      <point x="-437" y="554"/>
    </contour>
  </outline>
</glyph>
<glyph name="kssa-tamil" format="2">
  <advance width="1565"/>
  <note>
g76
</note>
  <anchor x="791" y="0" name="bottom"/>
  <anchor x="664" y="0" name="nukta"/>
  <anchor x="807" y="565" name="top"/>
  <anchor x="799" y="565" name="vedic"/>
  <outline>
    <contour>
      <point x="645" y="-5" type="curve" smooth="yes"/>
      <point x="724" y="-5"/>
      <point x="789" y="48"/>
      <point x="789" y="147" type="curve" smooth="yes"/>
      <point x="789" y="262"/>
      <point x="703" y="329"/>
      <point x="587" y="329" type="curve" smooth="yes"/>
      <point x="444" y="329" type="line"/>
      <point x="444" y="504" type="line"/>
      <point x="565" y="504" type="line"/>
      <point x="565" y="565" type="line"/>
      <point x="135" y="565" type="line"/>
      <point x="135" y="294" type="line"/>
      <point x="200" y="294" type="line"/>
      <point x="200" y="504" type="line"/>
      <point x="300" y="504" type="line"/>
      <point x="300" y="329" type="line"/>
      <point x="189" y="329" type="line" smooth="yes"/>
      <point x="111" y="329"/>
      <point x="43" y="266"/>
      <point x="43" y="170" type="curve" smooth="yes"/>
      <point x="43" y="68"/>
      <point x="105" y="-4"/>
      <point x="231" y="-4" type="curve" smooth="yes"/>
      <point x="364" y="-4"/>
      <point x="444" y="66"/>
      <point x="444" y="202" type="curve" smooth="yes"/>
      <point x="444" y="268" type="line"/>
      <point x="569" y="268" type="line" smooth="yes"/>
      <point x="630" y="268"/>
      <point x="664" y="219"/>
      <point x="664" y="142" type="curve" smooth="yes"/>
      <point x="664" y="92"/>
      <point x="647" y="63"/>
      <point x="618" y="63" type="curve" smooth="yes"/>
      <point x="584" y="63"/>
      <point x="561" y="109"/>
      <point x="561" y="174" type="curve" smooth="yes"/>
      <point x="561" y="291"/>
      <point x="619" y="367"/>
      <point x="712" y="367" type="curve" smooth="yes"/>
      <point x="805" y="367"/>
      <point x="866" y="300"/>
      <point x="866" y="189" type="curve" smooth="yes"/>
      <point x="866" y="130"/>
      <point x="852" y="87"/>
      <point x="829" y="43" type="curve"/>
      <point x="848" y="0" type="line"/>
      <point x="1516" y="0" type="line"/>
      <point x="1516" y="331" type="line"/>
      <point x="1375" y="281" type="line"/>
      <point x="1375" y="61" type="line"/>
      <point x="873" y="61" type="line"/>
      <point x="895" y="33" type="line"/>
      <point x="939" y="71"/>
      <point x="983" y="129"/>
      <point x="983" y="208" type="curve" smooth="yes"/>
      <point x="983" y="349"/>
      <point x="879" y="432"/>
      <point x="741" y="432" type="curve" smooth="yes"/>
      <point x="588" y="432"/>
      <point x="503" y="326"/>
      <point x="503" y="179" type="curve" smooth="yes"/>
      <point x="503" y="71"/>
      <point x="548" y="-5"/>
    </contour>
    <contour>
      <point x="200" y="64" type="curve" smooth="yes"/>
      <point x="147" y="64"/>
      <point x="109" y="101"/>
      <point x="109" y="168" type="curve" smooth="yes"/>
      <point x="109" y="228"/>
      <point x="134" y="268"/>
      <point x="193" y="268" type="curve" smooth="yes"/>
      <point x="300" y="268" type="line"/>
      <point x="300" y="190" type="line" smooth="yes"/>
      <point x="300" y="99"/>
      <point x="258" y="64"/>
    </contour>
    <contour>
      <point x="1148" y="-265" type="line"/>
      <point x="1288" y="-265" type="line"/>
      <point x="1288" y="423" type="line" smooth="yes"/>
      <point x="1288" y="519"/>
      <point x="1236" y="570"/>
      <point x="1147" y="570" type="curve" smooth="yes"/>
      <point x="1054" y="570"/>
      <point x="1003" y="503"/>
      <point x="1003" y="413" type="curve" smooth="yes"/>
      <point x="1003" y="284"/>
      <point x="1077" y="210"/>
      <point x="1208" y="210" type="curve" smooth="yes"/>
      <point x="1326" y="210"/>
      <point x="1413" y="249"/>
      <point x="1516" y="325" type="curve"/>
      <point x="1516" y="336" type="line"/>
      <point x="1483" y="375" type="line"/>
      <point x="1389" y="306"/>
      <point x="1305" y="269"/>
      <point x="1206" y="269" type="curve" smooth="yes"/>
      <point x="1112" y="269"/>
      <point x="1063" y="313"/>
      <point x="1063" y="415" type="curve" smooth="yes"/>
      <point x="1063" y="460"/>
      <point x="1081" y="487"/>
      <point x="1107" y="487" type="curve" smooth="yes"/>
      <point x="1132" y="487"/>
      <point x="1148" y="470"/>
      <point x="1148" y="432" type="curve" smooth="yes"/>
    </contour>
  </outline>
</glyph>
<glyph name="ku-tamil" format="2">
  <advance width="920"/>
  <note>
g101
</note>
  <anchor x="487" y="0" name="bottom"/>
  <anchor x="473" y="-265" name="nukta"/>
  <anchor x="545" y="565" name="top"/>
  <anchor x="544" y="565" name="vedic"/>
  <outline>
    <contour>
      <point x="473" y="-265" type="curve" smooth="yes"/>
      <point x="695" y="-265"/>
      <point x="877" y="-152"/>
      <point x="877" y="66" type="curve" smooth="yes"/>
      <point x="877" y="254"/>
      <point x="763" y="329"/>
      <point x="598" y="329" type="curve" smooth="yes"/>
      <point x="364" y="329" type="line" smooth="yes"/>
      <point x="285" y="329"/>
      <point x="218" y="266"/>
      <point x="218" y="170" type="curve" smooth="yes"/>
      <point x="218" y="62"/>
      <point x="284" y="-4"/>
      <point x="406" y="-4" type="curve" smooth="yes"/>
      <point x="538" y="-4"/>
      <point x="619" y="66"/>
      <point x="619" y="200" type="curve" smooth="yes"/>
      <point x="619" y="504" type="line"/>
      <point x="738" y="504" type="line"/>
      <point x="738" y="565" type="line"/>
      <point x="311" y="565" type="line"/>
      <point x="311" y="297" type="line"/>
      <point x="375" y="297" type="line"/>
      <point x="375" y="504" type="line"/>
      <point x="476" y="504" type="line"/>
      <point x="476" y="190" type="line" smooth="yes"/>
      <point x="476" y="102"/>
      <point x="435" y="64"/>
      <point x="374" y="64" type="curve" smooth="yes"/>
      <point x="322" y="64"/>
      <point x="284" y="100"/>
      <point x="284" y="168" type="curve" smooth="yes"/>
      <point x="284" y="228"/>
      <point x="309" y="268"/>
      <point x="368" y="268" type="curve" smooth="yes"/>
      <point x="585" y="268" type="line" smooth="yes"/>
      <point x="690" y="268"/>
      <point x="739" y="210"/>
      <point x="739" y="68" type="curve" smooth="yes"/>
      <point x="739" y="-110"/>
      <point x="624" y="-201"/>
      <point x="467" y="-201" type="curve" smooth="yes"/>
      <point x="270" y="-201"/>
      <point x="112" y="-74"/>
      <point x="112" y="163" type="curve" smooth="yes"/>
      <point x="112" y="276"/>
      <point x="148" y="368"/>
      <point x="224" y="476" type="curve"/>
      <point x="172" y="512" type="line"/>
      <point x="86" y="393"/>
      <point x="47" y="285"/>
      <point x="47" y="160" type="curve" smooth="yes"/>
      <point x="47" y="-90"/>
      <point x="229" y="-265"/>
    </contour>
  </outline>
</glyph>
<glyph name="kuu-tamil" format="2">
  <advance width="1076"/>
  <note>
g102
</note>
  <anchor x="537" y="0" name="bottom"/>
  <anchor x="537" y="0" name="nukta"/>
  <anchor x="374" y="565" name="top"/>
  <anchor x="558" y="565" name="vedic"/>
  <outline>
    <contour>
      <point x="645" y="-5" type="curve" smooth="yes"/>
      <point x="724" y="-5"/>
      <point x="783" y="48"/>
      <point x="783" y="147" type="curve" smooth="yes"/>
      <point x="783" y="262"/>
      <point x="703" y="329"/>
      <point x="587" y="329" type="curve" smooth="yes"/>
      <point x="444" y="329" type="line"/>
      <point x="444" y="504" type="line"/>
      <point x="565" y="504" type="line"/>
      <point x="565" y="565" type="line"/>
      <point x="135" y="565" type="line"/>
      <point x="135" y="294" type="line"/>
      <point x="200" y="294" type="line"/>
      <point x="200" y="504" type="line"/>
      <point x="300" y="504" type="line"/>
      <point x="300" y="329" type="line"/>
      <point x="189" y="329" type="line" smooth="yes"/>
      <point x="111" y="329"/>
      <point x="43" y="266"/>
      <point x="43" y="170" type="curve" smooth="yes"/>
      <point x="43" y="68"/>
      <point x="105" y="-4"/>
      <point x="231" y="-4" type="curve" smooth="yes"/>
      <point x="364" y="-4"/>
      <point x="444" y="66"/>
      <point x="444" y="202" type="curve" smooth="yes"/>
      <point x="444" y="268" type="line"/>
      <point x="569" y="268" type="line" smooth="yes"/>
      <point x="630" y="268"/>
      <point x="664" y="219"/>
      <point x="664" y="142" type="curve" smooth="yes"/>
      <point x="664" y="92"/>
      <point x="647" y="63"/>
      <point x="618" y="63" type="curve" smooth="yes"/>
      <point x="584" y="63"/>
      <point x="561" y="109"/>
      <point x="561" y="174" type="curve" smooth="yes"/>
      <point x="561" y="291"/>
      <point x="619" y="367"/>
      <point x="712" y="367" type="curve" smooth="yes"/>
      <point x="803" y="367"/>
      <point x="861" y="303"/>
      <point x="861" y="191" type="curve" smooth="yes"/>
      <point x="861" y="132"/>
      <point x="846" y="87"/>
      <point x="823" y="43" type="curve"/>
      <point x="842" y="0" type="line"/>
      <point x="1061" y="0" type="line"/>
      <point x="1061" y="61" type="line"/>
      <point x="867" y="61" type="line"/>
      <point x="881" y="36" type="line"/>
      <point x="928" y="73"/>
      <point x="972" y="128"/>
      <point x="972" y="209" type="curve" smooth="yes"/>
      <point x="972" y="351"/>
      <point x="874" y="432"/>
      <point x="737" y="432" type="curve" smooth="yes"/>
      <point x="584" y="432"/>
      <point x="503" y="326"/>
      <point x="503" y="179" type="curve" smooth="yes"/>
      <point x="503" y="71"/>
      <point x="548" y="-5"/>
    </contour>
    <contour>
      <point x="200" y="64" type="curve" smooth="yes"/>
      <point x="147" y="64"/>
      <point x="109" y="101"/>
      <point x="109" y="168" type="curve" smooth="yes"/>
      <point x="109" y="228"/>
      <point x="134" y="268"/>
      <point x="193" y="268" type="curve" smooth="yes"/>
      <point x="300" y="268" type="line"/>
      <point x="300" y="190" type="line" smooth="yes"/>
      <point x="300" y="99"/>
      <point x="258" y="64"/>
    </contour>
  </outline>
</glyph>
